<svg width="80" height="80" viewBox="0 0 80 80" fill="none" xmlns="http://www.w3.org/2000/svg">
<g clip-path="url(#clip0_1227_32350)">
<path d="M38.3798 1.91922C38.3798 1.91922 11.1217 3.53353 11.7937 18.5689C11.9862 22.8784 10.8859 27.1934 7.64524 30.4098C5.61058 32.429 2.89474 33.9008 1.46543 36.4101C-1.35987 41.3701 0.500328 47.4357 2.05827 52.4093C3.60704 57.3527 4.61937 62.5499 7.63996 66.9502C9.29152 69.3557 11.5215 71.707 13.9659 73.4425C17.3571 75.8498 21.712 76.8773 25.9394 76.9402C50.2085 77.3021 77.0172 75.6316 79.7319 45.8661C82.4466 16.1005 64.3895 -1.9561 38.3798 1.91922Z" fill="#F4F7FA"/>
<path d="M43.819 66.293L51.8804 68.4429C51.8804 68.4429 54.5285 64.8129 53.3506 61.4387C50.9473 54.5543 57.2954 52.9823 59.8529 51.9344C63.71 50.3556 65.9886 47.5943 62.7371 44.5418C59.0581 41.0882 64.5848 35.9802 71.1908 34.3066C77.6553 32.6684 78.401 20.512 64.0759 22.8036C55.5211 24.1724 54.5085 32.3551 52.9914 36.3686C51.4743 40.3822 45.1105 39.0519 45.8484 44.6456C46.4785 49.4243 49.0832 53.4815 45.6003 55.7217C42.1174 57.9618 40.9151 61.1964 43.819 66.293Z" fill="url(#paint0_linear_1227_32350)"/>
<g style="mix-blend-mode:soft-light" opacity="0.8">
<g style="mix-blend-mode:soft-light" opacity="0.8">
<path d="M47.1035 67.9537L47.2794 67.9683C47.2886 67.8621 48.2625 57.2303 52.4852 46.9747C56.3745 37.5268 63.8995 26.4738 77.6517 27.4723L77.6648 27.3005C71.543 26.856 66.1252 28.7213 61.5623 32.8443C57.9172 36.138 54.8077 40.8717 52.3202 46.914C48.0884 57.1931 47.113 67.8485 47.1035 67.9537Z" fill="#BEB8F2"/>
</g>
<g style="mix-blend-mode:soft-light" opacity="0.8">
<path d="M59.7318 34.6475L59.9065 34.6722C60.743 29.0015 65.0668 21.7826 65.1104 21.7103L64.9584 21.623C64.9137 21.6956 60.5733 28.9438 59.7318 34.6475Z" fill="#BEB8F2"/>
</g>
<g style="mix-blend-mode:soft-light" opacity="0.8">
<path d="M62.8493 31.9816C69.5539 30.0271 74.4383 33.1253 74.4869 33.1568L74.5847 33.0137C74.5353 32.9817 69.5856 29.8382 62.7988 31.8168L62.8493 31.9816Z" fill="#BEB8F2"/>
</g>
<g style="mix-blend-mode:soft-light" opacity="0.8">
<path d="M50.0991 53.8263C54.1951 46.5055 65.6458 47.4956 65.7566 47.5143L65.798 47.3473C65.691 47.3189 54.0765 46.3578 49.9441 53.7439L50.0991 53.8263Z" fill="#BEB8F2"/>
</g>
<g style="mix-blend-mode:soft-light" opacity="0.8">
<path d="M50.9759 50.4952L51.152 50.5058C51.4887 45.1934 46.869 40.2448 46.8224 40.1954L46.6926 40.3123C46.739 40.361 51.3078 45.2571 50.9759 50.4952Z" fill="#BEB8F2"/>
</g>
<g style="mix-blend-mode:soft-light" opacity="0.8">
<path d="M47.4702 66.2984C48.5692 63.317 53.7039 62.0935 53.7559 62.0813L53.715 61.9141C53.5 61.9639 48.4367 63.1709 47.3044 66.2404L47.4702 66.2984Z" fill="#BEB8F2"/>
</g>
<g style="mix-blend-mode:soft-light" opacity="0.8">
<path d="M47.6664 63.7777L47.8419 63.7945C48.092 61.301 45.1453 57.6636 44.1768 56.4681C44.0399 56.2992 43.9218 56.1534 43.906 56.1233L43.7479 56.1997C43.7696 56.2423 43.8479 56.3396 44.0382 56.5748C44.995 57.7569 47.9097 61.3535 47.6664 63.7777Z" fill="#BEB8F2"/>
</g>
</g>
<path d="M52.1782 35.749C53.4772 37.0893 53.2102 38.8592 52.8113 40.1103C52.6369 40.1594 52.5491 40.231 52.3846 40.318C50.9008 41.104 50.096 41.1311 48.5078 41.6818C48.1661 41.8003 47.0543 41.8499 46.599 41.8417L45.7497 41.8146C45.7497 41.8146 43.1698 38.3955 44.99 36.7573C46.8101 35.1192 44.7819 31.5683 43.9451 29.5582C43.4312 28.3237 43.6012 27.5986 43.487 27.1154C42.278 22.0011 40.2767 20.9568 40.9312 19.0582C41.6535 16.9619 44.2988 17.6347 45.2077 15.3951C46.234 12.866 43.5492 10.3101 45.0688 8.1285C45.3294 7.75447 45.6072 7.37718 46.1276 7.05139C47.4121 6.24721 48.7945 6.71937 49.4574 5.30427C50.7908 2.46052 53.8725 0.726953 56.6125 2.5272C59.317 4.30386 58.3963 9.56745 53.637 14.8993C50.6953 19.0674 50.9289 20.0101 51.9565 22.18C52.676 23.6997 55.6594 27.3552 53.8031 29.6498C51.9468 31.9445 50.693 34.2166 52.1782 35.749Z" fill="url(#paint1_linear_1227_32350)"/>
<g style="mix-blend-mode:soft-light" opacity="0.5">
<g style="mix-blend-mode:soft-light" opacity="0.5">
<path d="M49.371 41.5091L49.2485 41.5284C49.134 40.8687 49.0262 40.2022 48.9321 39.5471C48.2253 34.6971 48.0456 29.9558 48.3978 25.4547C48.6965 21.6406 49.3802 17.9455 50.4303 14.4719C51.2748 11.6783 52.3596 9.01206 53.6548 6.5475C54.5651 4.81474 55.5694 3.19881 56.6395 1.74441C56.8259 1.49099 57.0321 1.24109 57.2315 0.999322C57.4971 0.677056 57.7719 0.343949 58.0019 0L58.1077 0.0571889C57.8744 0.405746 57.5979 0.741293 57.3299 1.06546C57.1315 1.30614 56.9265 1.55495 56.7418 1.80566C55.6753 3.25545 54.674 4.86678 53.7662 6.59439C52.4741 9.05299 51.392 11.713 50.5495 14.5001C49.5016 17.9664 48.819 21.6555 48.5215 25.4609C48.1698 29.9542 48.3492 34.6882 49.0549 39.5308C49.1504 40.1848 49.2568 40.8505 49.371 41.5091Z" fill="#FCFDFE"/>
</g>
<g style="mix-blend-mode:soft-light" opacity="0.5">
<path d="M49.4649 18.7706L49.3421 18.7546C50.1866 13.9827 45.8178 6.79065 45.7737 6.71855L45.8826 6.66272C45.927 6.73536 50.3161 13.9605 49.4649 18.7706Z" fill="#FCFDFE"/>
</g>
<g style="mix-blend-mode:soft-light" opacity="0.5">
<path d="M48.3923 32.2881L48.2684 32.2851C48.4239 28.9871 53.9101 24.9714 53.9654 24.9313L54.0423 25.0186C53.9873 25.0592 48.5456 29.0427 48.3923 32.2881Z" fill="#FCFDFE"/>
</g>
<g style="mix-blend-mode:soft-light" opacity="0.5">
<path d="M48.4828 34.1645L48.3598 34.1813C48.0392 32.0523 46.3423 29.3216 43.5815 26.4925C43.4426 26.3502 43.4426 26.3502 43.4393 26.3298L43.562 26.3117L43.5006 26.3206L43.5537 26.2916C43.5618 26.3019 43.6143 26.3556 43.6751 26.4179C46.4515 29.2628 48.1592 32.0138 48.4828 34.1645Z" fill="#FCFDFE"/>
</g>
<g style="mix-blend-mode:soft-light" opacity="0.5">
<path d="M49.181 40.3028L49.0582 40.287C49.4632 37.9379 52.8308 36.1323 52.8641 36.1144L52.9255 36.2111C52.8927 36.2288 49.5766 38.007 49.181 40.3028Z" fill="#FCFDFE"/>
</g>
<g style="mix-blend-mode:soft-light" opacity="0.5">
<path d="M49.1935 41.5669C48.175 39.9057 46.5915 38.4621 44.3527 37.1538L44.4213 37.059C46.6774 38.3773 48.2739 39.8339 49.3021 41.5113L49.1935 41.5669Z" fill="#FCFDFE"/>
</g>
<g style="mix-blend-mode:soft-light" opacity="0.5">
<path d="M53.03 8.05722L52.9089 8.03499C53.5414 5.4032 53.5339 2.51527 53.5314 1.56609C53.5314 1.33652 53.5314 1.25548 53.5364 1.22729L53.6587 1.24491C53.6548 1.2666 53.6551 1.39778 53.6556 1.5642C53.6581 2.51582 53.6653 5.41323 53.03 8.05722Z" fill="#FCFDFE"/>
</g>
<g style="mix-blend-mode:soft-light" opacity="0.5">
<path d="M51.3043 12.2084L51.1962 12.1542C52.5636 9.94228 57.9288 8.53125 58.1563 8.47217L58.1888 8.58058C58.1335 8.59495 52.6463 10.0377 51.3043 12.2084Z" fill="#FCFDFE"/>
</g>
</g>
<path d="M52.1799 53.42C51.7504 53.4165 51.9907 51.2286 50.4297 48.644C50.0408 47.9981 48.1622 44.332 45.0147 44.5852L43.1812 44.7329C42.4958 43.459 42.0919 42.1361 43.8757 41.4121C46.6465 40.2879 46.0829 35.6189 45.0703 34.061C43.8162 32.1328 40.9962 27.5875 45.2503 25.7875C48.7918 24.2889 51.4095 23.9884 51.0737 19.588C50.7378 15.1877 52.9589 12.1615 57.2996 11.9263C61.8679 11.678 64.8282 5.6978 68.793 7.12726C75.701 9.61838 71.1502 19.9249 63.663 23.6214C56.1759 27.3178 61.043 29.4073 61.7415 32.9595C61.8089 33.4494 61.8166 33.9453 61.7645 34.4369C61.352 38.277 57.4282 39.3834 54.9377 42.7763C51.5404 47.4032 52.9033 53.426 52.1799 53.42Z" fill="url(#paint2_linear_1227_32350)"/>
<g style="mix-blend-mode:soft-light" opacity="0.5">
<g style="mix-blend-mode:soft-light" opacity="0.5">
<path d="M48.707 43.7479L48.492 43.7327C49.7166 29.2652 58.5622 15.4156 71.5777 7.58881L71.6955 7.75495C58.735 15.5487 49.9266 29.3405 48.707 43.7479Z" fill="#FCFDFE"/>
</g>
<g style="mix-blend-mode:soft-light" opacity="0.5">
<path d="M50.1086 35.913L49.8947 35.9368C49.1468 30.2756 43.2992 26.4523 43.2403 26.4144L43.3637 26.2518C43.4234 26.29 49.349 30.1623 50.1086 35.913Z" fill="#FCFDFE"/>
</g>
<g style="mix-blend-mode:soft-light" opacity="0.5">
<path d="M49.0112 41.0923L48.8104 41.0199C51.1034 35.6371 62.3368 33.6539 62.4507 33.6346L62.4901 33.8298C62.3776 33.849 51.2606 35.8116 49.0112 41.0923Z" fill="#FCFDFE"/>
</g>
<g style="mix-blend-mode:soft-light" opacity="0.5">
<path d="M56.09 22.7987L55.8833 22.7423C57.3001 18.345 53.4892 12.249 53.4505 12.1878L53.637 12.0878C53.6758 12.1498 57.5329 18.32 56.09 22.7987Z" fill="#FCFDFE"/>
</g>
<g style="mix-blend-mode:soft-light" opacity="0.5">
<path d="M62.039 15.3863L61.9048 15.231C66.3472 11.9769 73.9816 12.645 74.0583 12.6523L74.0366 12.8499C73.961 12.8426 66.4122 12.1829 62.039 15.3863Z" fill="#FCFDFE"/>
</g>
</g>
<path d="M54.2845 13.7011L30.5579 12.9316L18.9717 12.5565C18.1577 12.5294 17.4688 13.1481 17.4688 13.9371V77.2737C17.4688 78.0627 18.1552 78.6541 18.9689 78.595L54.2717 76.0293C54.994 75.9767 55.6024 75.3333 55.6024 74.5928V15.0855C55.6027 14.3453 55.0079 13.7244 54.2845 13.7011Z" fill="url(#paint3_linear_1227_32350)"/>
<path d="M54.996 13.7011L19.7145 12.5565C18.9009 12.5294 18.2394 13.1481 18.2394 13.9371V77.2737C18.2394 78.0627 18.9009 78.6541 19.7145 78.595L54.996 76.0293C55.7183 75.9767 56.3042 75.3333 56.3042 74.5928V15.0855C56.3045 14.3453 55.7183 13.7244 54.996 13.7011Z" fill="#D8DEE8"/>
<g style="mix-blend-mode:multiply" opacity="0.3">
<g style="mix-blend-mode:multiply" opacity="0.3">
<path d="M40.5953 60.2264C39.9961 53.0308 44.4868 50.0141 42.7755 43.5092C40.6581 35.4615 32.4942 35.1674 29.7061 27.2544C28.6371 24.2188 28.2143 19.6254 31.2744 12.9324L19.7145 12.5565C18.9009 12.5294 18.2394 13.1481 18.2394 13.9371V77.2737C18.2394 78.0627 18.9009 78.6541 19.7145 78.595L51.2036 76.305C43.2389 70.3508 40.9634 64.6481 40.5953 60.2264Z" fill="#D8DEE8"/>
</g>
</g>
<path d="M54.996 14.4936L19.7145 13.3967C19.6362 13.3935 19.558 13.4059 19.4847 13.433C19.4114 13.4601 19.3445 13.5014 19.288 13.5544C19.2314 13.6074 19.1865 13.671 19.1558 13.7414C19.1251 13.8117 19.1094 13.8875 19.1095 13.9639V77.2126C19.1088 77.2881 19.1244 77.363 19.1553 77.4323C19.1861 77.5015 19.2315 77.5637 19.2886 77.6148C19.3456 77.6659 19.413 77.7048 19.4863 77.7288C19.5597 77.7529 19.6375 77.7617 19.7145 77.7547L54.996 75.2362C55.2927 75.215 55.5341 74.95 55.5341 74.6456V15.0622C55.5344 14.7578 55.293 14.5028 54.996 14.4936Z" fill="url(#paint4_linear_1227_32350)"/>
<path opacity="0.74" d="M51.0664 49.781L24.0678 50.544C23.7014 50.5563 23.3541 50.7064 23.0985 50.9628C22.8429 51.2192 22.6989 51.5621 22.6965 51.9198C22.6954 52.0937 22.7305 52.266 22.7996 52.4263C22.8687 52.5866 22.9704 52.7316 23.0986 52.8524C23.2268 52.9733 23.3788 53.0675 23.5454 53.1293C23.712 53.1912 23.8897 53.2195 24.0678 53.2124L51.0664 52.3342C51.7573 52.3117 52.3165 51.7233 52.3165 51.0197C52.3163 50.3161 51.7573 49.7615 51.0664 49.781Z" fill="url(#paint5_linear_1227_32350)"/>
<path d="M51.0664 54.8066L28.9599 55.6176C28.2151 55.6447 27.6101 56.261 27.6101 56.9936C27.6101 57.7254 28.2151 58.2946 28.9599 58.2648L51.0664 57.3595C51.7573 57.3311 52.3165 56.738 52.3165 56.0347C52.3163 55.3311 51.7573 54.7814 51.0664 54.8066Z" fill="#D8DEE8"/>
<path d="M24.0678 58.4651C23.8903 58.4738 23.7128 58.4471 23.5463 58.3865C23.3797 58.326 23.2276 58.2329 23.0992 58.1129C22.9708 57.993 22.8689 57.8488 22.7997 57.6891C22.7304 57.5294 22.6953 57.3576 22.6965 57.1842C22.6965 56.4459 23.3113 55.8246 24.0678 55.797C24.2448 55.7891 24.4217 55.8164 24.5875 55.8773C24.7534 55.9382 24.9048 56.0314 25.0325 56.1513C25.1603 56.2711 25.2617 56.4151 25.3306 56.5744C25.3995 56.7337 25.4344 56.905 25.4332 57.0779C25.4332 57.8132 24.8226 58.4342 24.0678 58.4651Z" fill="#B19AF3"/>
<path d="M24.0086 58.7686C23.7951 58.7699 23.5835 58.7298 23.3861 58.6507C23.1886 58.5715 23.0093 58.4548 22.8584 58.3075C22.7076 58.1601 22.5883 57.9849 22.5074 57.7922C22.4265 57.5994 22.3857 57.3929 22.3873 57.1847C22.3873 56.2873 23.1374 55.5297 24.0564 55.4958C24.275 55.4863 24.4933 55.5203 24.6981 55.5956C24.9028 55.671 25.0897 55.7862 25.2474 55.9342C25.4051 56.0822 25.5303 56.26 25.6154 56.4567C25.7005 56.6534 25.7437 56.8649 25.7424 57.0784C25.7424 57.9729 24.997 58.7296 24.0808 58.767C24.0567 58.7686 24.0325 58.7686 24.0086 58.7686ZM24.1197 56.0981H24.0792C23.7918 56.1108 23.5204 56.2304 23.3207 56.4323C23.1209 56.6343 23.0081 56.9032 23.0054 57.1839C23.004 57.3167 23.0306 57.4483 23.0834 57.5707C23.1362 57.6931 23.2142 57.8036 23.3125 57.8955C23.4109 57.9873 23.5275 58.0584 23.6552 58.1045C23.7828 58.1506 23.9188 58.1706 24.0547 58.1634C24.6439 58.1393 25.1237 57.6522 25.1237 57.0776C25.125 56.9486 25.1 56.8206 25.05 56.7011C25.0001 56.5816 24.9262 56.4731 24.8327 56.3818C24.7392 56.2905 24.628 56.2183 24.5056 56.1695C24.3832 56.1206 24.252 56.0961 24.1197 56.0973V56.0981Z" fill="#D8DEE8"/>
<path d="M51.0664 59.3538L28.9599 60.3331C28.2151 60.3659 27.6101 60.9866 27.6101 61.7192C27.6101 62.451 28.2151 63.0164 28.9599 62.9803L51.0664 61.9065C51.7573 61.8729 52.3165 61.2755 52.3165 60.5721C52.3163 59.8685 51.7573 59.3232 51.0664 59.3538Z" fill="#D8DEE8"/>
<path d="M24.0678 63.2178C23.8907 63.2284 23.7133 63.2034 23.5466 63.1442C23.3799 63.085 23.2275 62.9929 23.0988 62.8737C22.9702 62.7545 22.8681 62.6108 22.7989 62.4514C22.7296 62.2921 22.6948 62.1205 22.6965 61.9474C22.6965 61.2091 23.3113 60.5833 24.0678 60.5497C24.2444 60.5399 24.4211 60.5657 24.5871 60.6253C24.7531 60.6849 24.9048 60.7771 25.0328 60.8962C25.1608 61.0153 25.2624 61.1588 25.3312 61.3178C25.4001 61.4767 25.4348 61.6478 25.4332 61.8203C25.4332 62.5557 24.8226 63.1812 24.0678 63.2178Z" fill="#B19AF3"/>
<path d="M23.9975 63.5213C23.7853 63.5227 23.575 63.483 23.3787 63.4043C23.1825 63.3257 23.0042 63.2098 22.8542 63.0633C22.7043 62.9169 22.5857 62.7428 22.5054 62.5512C22.425 62.3596 22.3845 62.1544 22.3862 61.9474C22.3862 61.0511 23.1338 60.2889 24.0531 60.2483C24.2714 60.2367 24.4898 60.2689 24.6949 60.3428C24.9 60.4168 25.0874 60.5309 25.2456 60.6782C25.4038 60.8254 25.5294 61.0027 25.6147 61.1992C25.7 61.3956 25.7432 61.607 25.7416 61.8203C25.7416 62.7125 24.9973 63.4736 24.0825 63.5191C24.0547 63.5205 24.0261 63.5213 23.9975 63.5213ZM24.1311 60.85C24.1147 60.85 24.0983 60.85 24.0819 60.85C23.4886 60.8771 23.0057 61.3679 23.0057 61.9463C23.004 62.0785 23.0304 62.2096 23.0831 62.3314C23.1358 62.4532 23.2137 62.5631 23.312 62.6541C23.4103 62.7451 23.5268 62.8153 23.6543 62.8603C23.7817 62.9053 23.9173 62.9241 24.0525 62.9155C24.6434 62.8868 25.124 62.3949 25.124 61.8192C25.1257 61.6914 25.1012 61.5647 25.0519 61.4463C25.0027 61.3279 24.9296 61.2204 24.8371 61.1299C24.7446 61.0395 24.6345 60.9681 24.5132 60.9198C24.392 60.8715 24.2621 60.8474 24.1311 60.8489V60.85Z" fill="#D8DEE8"/>
<path d="M51.0664 63.9008L28.9599 65.0484C28.2151 65.0871 27.6101 65.7124 27.6101 66.445C27.6101 67.1768 28.2151 67.7376 28.9599 67.6956L51.0664 66.4534C51.7573 66.4147 52.3165 65.813 52.3165 65.1096C52.3163 64.4063 51.7573 63.8642 51.0664 63.9008Z" fill="#D8DEE8"/>
<path d="M24.0678 67.9708C23.3113 68.0133 22.6965 67.449 22.6965 66.7107C22.6965 65.9724 23.3113 65.3417 24.0678 65.3013C24.8226 65.2623 25.4332 65.8266 25.4332 66.5616C25.4332 67.298 24.8226 67.9282 24.0678 67.9708Z" fill="#B19AF3"/>
<path d="M23.9867 68.2746C23.7759 68.276 23.567 68.2366 23.372 68.1585C23.177 68.0804 23 67.9652 22.8511 67.8196C22.7022 67.674 22.5846 67.501 22.5049 67.3106C22.4253 67.1202 22.3853 66.9163 22.3873 66.7107C22.3873 65.8162 23.1341 65.0489 24.0514 65.0012C24.2694 64.9876 24.488 65.018 24.6935 65.0905C24.8989 65.163 25.0869 65.276 25.2455 65.4225C25.4042 65.5691 25.5302 65.7459 25.6157 65.9421C25.7012 66.1383 25.7443 66.3495 25.7424 66.5627C25.7424 67.4539 24.9993 68.2204 24.0856 68.2719C24.0525 68.2737 24.0206 68.2746 23.9867 68.2746ZM24.1417 65.6021C24.1232 65.6021 24.104 65.6026 24.0842 65.6037C23.4897 65.6346 23.0057 66.1312 23.0057 66.7107C23.0039 66.8422 23.0301 66.9727 23.0828 67.0939C23.1354 67.215 23.2133 67.3242 23.3116 67.4144C23.4098 67.5045 23.5261 67.5738 23.6533 67.6177C23.7804 67.6617 23.9155 67.6793 24.05 67.6696C24.6423 67.6363 25.124 67.1397 25.124 66.5627C25.126 66.4362 25.102 66.3106 25.0533 66.1933C25.0047 66.076 24.9324 65.9695 24.8408 65.8799C24.7493 65.7904 24.6402 65.7196 24.5201 65.6719C24.4 65.6242 24.2713 65.6005 24.1417 65.6021Z" fill="#D8DEE8"/>
<path d="M51.0664 68.4478L28.9599 69.7639C28.2151 69.8084 27.6101 70.4383 27.6101 71.1709C27.6101 71.9027 28.2151 72.4589 28.9599 72.4112L51.0664 71.0004C51.7573 70.9565 52.3165 70.3499 52.3165 69.6471C52.3163 68.9435 51.7573 68.4066 51.0664 68.4478Z" fill="#D8DEE8"/>
<path d="M24.0678 72.7234C23.3113 72.7716 22.6965 72.2122 22.6965 71.4739C22.6965 70.7353 23.3113 70.1003 24.0678 70.0553C24.8226 70.0103 25.4332 70.5702 25.4332 71.305C25.4332 72.0404 24.8226 72.6752 24.0678 72.7234Z" fill="#B19AF3"/>
<path d="M23.9758 73.0281C23.7664 73.0296 23.5588 72.9905 23.365 72.9129C23.1713 72.8352 22.9953 72.7208 22.8475 72.5761C22.6996 72.4314 22.5827 72.2594 22.5037 72.0702C22.4247 71.8809 22.3852 71.6782 22.3873 71.4739C22.3873 70.5795 23.133 69.8087 24.0492 69.7542C24.267 69.7384 24.4858 69.7669 24.6917 69.8378C24.8977 69.9088 25.0863 70.0208 25.2456 70.1665C25.4049 70.3123 25.5314 70.4888 25.6172 70.6848C25.7029 70.8808 25.7461 71.092 25.7438 71.3051C25.7438 72.1949 25.0018 72.9663 24.0895 73.0245C24.0506 73.0267 24.0131 73.0281 23.9758 73.0281ZM24.1525 70.3543C24.1309 70.3543 24.1089 70.3543 24.0867 70.3564C23.4908 70.3917 23.0057 70.8931 23.0057 71.4739C23.0034 71.605 23.0293 71.7351 23.0818 71.8558C23.1343 71.9764 23.2122 72.085 23.3104 72.1744C23.4087 72.2639 23.5251 72.3322 23.6521 72.3749C23.7791 72.4177 23.9139 72.4339 24.0478 72.4226C24.6412 72.3849 25.124 71.8835 25.124 71.3053C25.1262 71.1801 25.1026 71.0556 25.0545 70.9394C25.0065 70.8233 24.935 70.7177 24.8443 70.629C24.7536 70.5403 24.6455 70.4703 24.5266 70.4231C24.4076 70.376 24.2801 70.3527 24.1517 70.3545L24.1525 70.3543Z" fill="#D8DEE8"/>
<path d="M37.8659 46.3133C32.1003 46.4399 27.3289 41.8314 27.3289 36.0382C27.3289 30.245 32.1003 25.5885 37.8659 25.6574C43.5242 25.7246 48.0508 30.3344 48.0508 35.9341C48.0508 41.5338 43.5242 46.1892 37.8659 46.3133Z" fill="#D8DEE8"/>
<path d="M47.3594 35.9376C47.3594 41.1655 43.1459 45.4912 37.8659 45.601C32.4928 45.7127 28.0671 41.4305 28.0671 36.0333C28.0671 30.6361 32.4937 26.3117 37.8659 26.3694C43.1459 26.4263 47.3594 30.7096 47.3594 35.9376Z" fill="white"/>
<g opacity="0.74">
<path opacity="0.74" d="M42.0944 33.7618C42.0944 36.08 40.2173 37.9745 37.8853 37.9941C35.5354 38.0136 33.6171 36.1239 33.6171 33.7734C33.6171 31.423 35.534 29.5281 37.8853 29.5411C40.2167 29.5542 42.0944 31.4438 42.0944 33.7618Z" fill="url(#paint6_linear_1227_32350)"/>
<path opacity="0.74" d="M45.0228 46.4665C45.0228 46.4665 45.0228 46.4763 45.0228 46.4716C45.0228 42.5416 41.8474 39.3975 37.8831 39.439C33.8677 39.4818 30.5735 42.7663 30.5735 46.7917C30.5735 46.7964 30.5735 46.7917 30.5735 46.7917L45.0228 46.4665Z" fill="url(#paint7_linear_1227_32350)"/>
</g>
<path d="M27.4698 23.7598L26.1861 23.7409L25.4638 20.9893C25.4369 20.8912 25.3913 20.6886 25.3268 20.3816C25.2623 20.0746 25.2253 19.8685 25.2157 19.7634C25.2012 19.8917 25.1647 20.0975 25.1062 20.3808C25.0477 20.6641 25.0025 20.8658 24.9706 20.9857L24.2484 23.711L22.9552 23.6918L21.5789 18.4214L22.7046 18.4486L23.393 21.3216C23.513 21.8514 23.6 22.31 23.6538 22.6974C23.6687 22.5615 23.7023 22.3515 23.7547 22.0675C23.8071 21.7834 23.8566 21.563 23.9033 21.4061L24.6842 18.4941L25.7552 18.519L26.5314 21.4546C26.5653 21.5862 26.6077 21.7865 26.6586 22.0555C26.7095 22.3246 26.7483 22.5555 26.775 22.7483C26.7991 22.5638 26.8379 22.3336 26.8914 22.0577C26.9449 21.7818 26.9934 21.559 27.0367 21.3893L27.7118 18.5643L28.8158 18.5898L27.4698 23.7598Z" fill="url(#paint8_linear_1227_32350)"/>
<path d="M32.8729 23.8395L32.4936 22.606L30.5848 22.574L30.204 23.8002L29.0002 23.7823L30.8576 18.6163L32.215 18.6478L34.0605 23.8571L32.8729 23.8395ZM32.2303 21.6837C31.8801 20.5634 31.6828 19.9297 31.6386 19.7826C31.5943 19.6355 31.5626 19.5194 31.5436 19.4343C31.465 19.7341 31.2392 20.4756 30.866 21.6587L32.2303 21.6837Z" fill="url(#paint9_linear_1227_32350)"/>
<path d="M39.4558 23.9369L38.0776 23.9165L35.8401 20.0022H35.8082C35.853 20.6888 35.8754 21.1782 35.8754 21.4704V23.8848L34.8956 23.8702V18.731L36.2777 18.763L38.5084 22.6405H38.5329C38.4979 21.9759 38.4804 21.5061 38.4804 21.2311V18.8131L39.4558 18.8356V23.9369Z" fill="url(#paint10_linear_1227_32350)"/>
<path d="M42.8672 23.9873L41.7957 23.9713V19.7873L40.4178 19.7574V18.8589L44.234 18.9473V19.8401L42.8672 19.8106V23.9873Z" fill="url(#paint11_linear_1227_32350)"/>
<path d="M48.0508 24.0637L45.1814 24.0214V18.9692L48.0508 19.0356V19.9092L46.2409 19.8699V20.9771L47.9252 21.0107V21.8845L46.2409 21.8534V23.1544L48.0508 23.1836V24.0637Z" fill="url(#paint12_linear_1227_32350)"/>
<path d="M53.3261 21.6021C53.3261 22.4224 53.0975 23.0472 52.6405 23.4763C52.1834 23.9055 51.5205 24.1143 50.6517 24.1027L49.2565 24.0821V19.0635L50.8031 19.0993C51.6039 19.1174 52.2243 19.3468 52.6644 19.7875C53.1044 20.2282 53.325 20.8331 53.3261 21.6021ZM52.2513 21.6089C52.2513 20.5365 51.7864 19.9901 50.8567 19.9699L50.3011 19.958V23.2199L50.7483 23.2272C51.7512 23.2435 52.2522 22.7041 52.2513 21.6091V21.6089Z" fill="url(#paint13_linear_1227_32350)"/>
<g style="mix-blend-mode:soft-light" opacity="0.35">
<path d="M40.5953 60.2263C39.9961 53.0307 44.4868 50.0141 42.7756 43.5091C40.6581 35.4614 32.4942 35.1674 29.7061 27.2544C28.681 24.3448 28.2504 20.0016 30.9152 13.7455L19.7145 13.3967C19.6362 13.3935 19.558 13.4059 19.4847 13.433C19.4114 13.4601 19.3445 13.5014 19.288 13.5544C19.2314 13.6074 19.1865 13.671 19.1558 13.7414C19.1251 13.8117 19.1094 13.8875 19.1095 13.9639V77.2126C19.1088 77.2881 19.1244 77.363 19.1553 77.4323C19.1861 77.5015 19.2315 77.5637 19.2886 77.6148C19.3456 77.6659 19.413 77.7048 19.4863 77.7288C19.5597 77.7529 19.6375 77.7617 19.7145 77.7547L50.2533 75.5747C43.0548 69.8813 40.9481 64.4651 40.5953 60.2263Z" fill="white"/>
</g>
<path d="M22.6479 54.8871C22.6479 54.8871 24.3736 55.4522 24.5564 58.2409C24.275 58.216 23.618 58.2309 23.618 58.2309C23.618 58.2309 23.7397 56.2041 22.511 55.7929C22.6101 55.5574 22.6479 54.8871 22.6479 54.8871Z" fill="url(#paint14_linear_1227_32350)"/>
<path d="M16.247 54.6218L16.3787 56.1624C17.2468 55.9439 18.1941 55.6902 19.2098 55.6555C20.4173 55.6153 21.6246 55.7407 22.7963 56.0282C22.8965 55.8889 22.963 55.7292 22.9907 55.5612C23.0375 55.2921 23.0121 55.0159 22.9171 54.7592C22.3428 54.5525 21.7519 54.3926 21.1505 54.2814C19.3284 53.9442 17.6741 54.2231 16.247 54.6218Z" fill="url(#paint15_linear_1227_32350)"/>
<path d="M16.165 55.0644C16.1675 54.879 16.1822 54.6475 16.2484 54.6213C16.3145 54.595 16.3914 54.7654 16.4267 54.8592C16.4414 54.8983 16.4739 54.9929 16.4942 55.2929C16.5203 55.6791 16.4898 55.8678 16.462 55.9843C16.445 56.0543 16.4189 56.1602 16.38 56.1624C16.3486 56.1643 16.3214 56.0965 16.2809 55.9659C16.225 55.7894 16.1586 55.4962 16.165 55.0644Z" fill="url(#paint16_linear_1227_32350)"/>
<path d="M14.5585 58.2895C14.9246 58.3599 15.813 58.5676 15.813 58.5676C15.813 58.5676 15.2341 56.7573 16.3253 55.9385C16.3669 55.7371 16.3744 55.5305 16.3475 55.3268C16.326 55.1636 16.2823 55.004 16.2175 54.8522C15.7544 55.1002 14.7446 55.9415 14.5585 58.2895Z" fill="url(#paint17_linear_1227_32350)"/>
<path d="M6.90572 58.6909C6.90572 58.6909 6.95128 57.733 8.50699 57.7504C8.75118 57.9271 8.76341 58.709 8.76341 58.709L6.90572 58.6909Z" fill="url(#paint18_linear_1227_32350)"/>
<path d="M5.51862 77.5492L9.77629 80L12.3321 70.7445L8.10945 58.358L6.90376 58.6919L5.06857 76.5743C5.0269 76.9801 5.20692 77.3698 5.51862 77.5492Z" fill="url(#paint19_linear_1227_32350)"/>
<path style="mix-blend-mode:multiply" opacity="0.3" d="M12.3332 70.7446L8.11056 58.358L6.90488 58.6919C7.20213 59.7918 7.34464 61.5791 7.4116 62.5735C7.69663 66.8039 8.64172 67.9783 8.18418 70.9278C7.8033 73.3829 6.97016 73.7244 7.04295 75.3755C7.1224 77.1733 8.19362 78.6616 9.4632 79.8206L9.77573 80.0003L12.3332 70.7446Z" fill="url(#paint20_linear_1227_32350)"/>
<path d="M8.1114 58.3567L30.7582 58.5879L34.1999 77.6178L9.77658 80L8.1114 58.3567Z" fill="url(#paint21_linear_1227_32350)"/>
<g style="mix-blend-mode:multiply" opacity="0.2">
<path style="mix-blend-mode:multiply" opacity="0.2" d="M30.7582 58.5879L23.283 58.5117C23.0957 59.043 22.8744 59.5622 22.6204 60.0664C19.2214 66.8061 11.3212 67.6764 11.4654 68.7998C11.6807 70.4781 29.0322 68.0466 29.4647 70.2981C29.6734 71.3839 26.083 73.8935 22.2932 74.8787C17.7038 76.0713 14.2945 74.6771 12.0099 77.2815C11.232 78.167 10.8897 79.1969 10.7222 79.8924L34.1999 77.6173L30.7582 58.5879Z" fill="url(#paint22_linear_1227_32350)"/>
</g>
<path d="M8.507 57.7504C8.24392 57.7474 7.8761 57.7113 7.47578 57.9369C7.39548 57.9823 7.31935 58.0344 7.24826 58.0927L7.43272 58.0304C7.72942 57.949 8.13808 58.0661 8.29059 58.3589C8.47811 58.7183 8.54534 59.5463 8.58645 59.9564C8.70286 61.1218 9.41765 68.3721 9.41765 68.3721C9.47099 68.9828 9.94354 69.4433 10.5011 69.4292L31.4797 68.2618C31.638 68.259 31.7909 68.2055 31.915 68.1095C32.1811 67.9022 32.3014 67.5441 32.2397 67.204L31.2074 58.8288C31.1199 58.3464 30.7449 57.9965 30.3095 57.9919L8.507 57.7504Z" fill="url(#paint23_linear_1227_32350)"/>
<path d="M8.73896 57.7528C8.47643 57.7498 8.16446 57.7113 7.81664 57.7989C7.72274 57.8224 7.57245 57.8661 7.50633 57.9203C7.50633 57.9203 8.24391 57.7558 8.52283 58.361C8.69312 58.7304 8.77758 59.5482 8.81841 59.9582C8.93482 61.1237 9.64906 68.3716 9.64906 68.3716C9.70267 68.9819 10.1747 69.4422 10.7325 69.4286L31.9275 68.8844C32.0857 68.8814 32.2386 68.8278 32.3625 68.7318C32.6284 68.5244 32.7484 68.1664 32.6867 67.8265L31.426 58.8304C31.3385 58.348 30.9638 57.9984 30.5287 57.9937L8.73896 57.7528Z" fill="url(#paint24_linear_1227_32350)"/>
<path style="mix-blend-mode:multiply" opacity="0.1" d="M32.6862 67.8257L31.4255 58.8296C31.338 58.3472 30.9632 57.9975 30.5282 57.9929L8.73896 57.7528C8.47643 57.7498 8.16446 57.7113 7.81664 57.7989C7.72274 57.8224 7.57245 57.8661 7.50633 57.9203C7.50633 57.9203 8.24391 57.7558 8.52283 58.361C8.55244 58.4278 8.57722 58.4965 8.597 58.5667C10.7228 58.6703 12.8366 58.6318 14.9385 58.7865C19.0592 59.0825 23.1799 59.1213 26.9847 60.7784C28.1935 61.3048 29.02 63.1684 28.693 64.0263C28.4574 64.6451 27.6515 64.5955 27.3698 65.4086C27.0734 66.2648 27.7837 66.8451 27.4859 67.4471C27.1734 68.0778 26.223 67.7799 24.6801 68.2347C23.9999 68.438 23.3535 68.736 22.7607 69.1196L31.9283 68.8841C32.0865 68.8811 32.2394 68.8275 32.3634 68.7315C32.6278 68.5236 32.7478 68.1656 32.6862 67.8257Z" fill="url(#paint25_linear_1227_32350)"/>
<path d="M22.7149 70.6153L20.0604 71.2674L19.779 71.292C19.4954 71.3172 19.2512 71.0752 19.2387 70.7557L19.1214 67.7279C19.1089 67.4075 19.3337 67.1416 19.6184 67.1367L19.9015 67.1321L22.5707 67.4647C22.8246 67.4604 23.0385 67.3257 23.0499 67.6243L23.1594 70.4505C23.171 70.7486 22.9688 70.593 22.7149 70.6153Z" fill="url(#paint26_linear_1227_32350)"/>
<path d="M22.9166 71.0313L19.9765 71.2907C19.6929 71.3159 19.4487 71.0739 19.4362 70.7543L19.319 67.7273C19.3067 67.4072 19.5315 67.1414 19.816 67.1365L22.7649 67.0896C23.0185 67.0855 23.2341 67.3265 23.2455 67.6254L23.3538 70.4478C23.3658 70.7465 23.1696 71.0091 22.9166 71.0313Z" fill="url(#paint27_linear_1227_32350)"/>
<path d="M17.9621 44.6966C18.3527 44.4494 17.9969 43.7306 17.9758 42.1862C17.9499 40.2938 18.465 39.9412 18.0513 39.1988C17.5454 38.2911 16.2717 37.9152 15.428 37.8978C15.2419 37.894 15.1982 37.7948 13.6392 38.1886C10.8303 38.8985 10.1272 38.1377 8.86925 38.8977C7.65385 39.6319 8.18612 40.4361 7.006 41.2972C5.09302 42.693 3.08142 41.1842 1.71406 42.3515C0.420869 43.456 0.391144 46.2699 1.75129 47.8054C3.29339 49.5463 6.07396 49.0231 7.93749 48.6778C8.32975 48.6055 10.3102 48.1995 12.3721 46.7147C13.2916 46.0515 14.1076 45.2616 14.7946 44.3697C14.9113 44.2412 15.0938 44.0856 15.3349 44.0604C15.6241 44.0303 15.8564 44.203 15.9683 44.2786C16.5562 44.6746 17.5782 44.9391 17.9621 44.6966Z" fill="url(#paint28_linear_1227_32350)"/>
<path d="M16.3923 43.6596C16.8945 43.2129 18.6872 44.0735 19.8754 45.2156C21.2711 46.5576 21.1639 47.6458 22.3818 49.3127C22.9874 50.1415 24.0256 51.2571 25.8649 52.2345C25.7353 52.5521 25.6051 52.8698 25.4743 53.1874C24.5853 53.2395 22.8388 53.2089 21.21 52.1711C20.0785 51.4501 19.4962 50.4949 18.3778 48.6139C17.2557 46.7261 15.7641 44.2177 16.3923 43.6596Z" fill="url(#paint29_linear_1227_32350)"/>
<path d="M27.364 69.8946L26.7928 68.7104C26.7116 68.5422 26.585 68.3988 26.4266 68.2954L26.1438 68.1106C26.1438 68.1106 25.4677 68.0932 25.3624 68.5079C25.3399 69.0343 26.3886 70.2109 27.052 70.6781C27.1631 70.7557 27.319 70.8589 27.4145 70.8058C27.5765 70.7158 27.4626 70.2315 27.364 69.8946Z" fill="url(#paint30_linear_1227_32350)"/>
<path d="M26.2905 67.4669C26.2005 67.9748 26.3144 68.2396 26.4369 68.3884C26.5233 68.4927 27.2239 69.6197 26.937 69.8016C26.807 69.8829 25.9171 68.8055 25.8307 68.6405C25.7527 68.4908 25.7018 68.5261 25.6971 68.1184C25.6945 67.9081 25.6599 67.6993 25.5943 67.4988L26.2905 67.4669Z" fill="url(#paint31_linear_1227_32350)"/>
<path d="M27.302 63.4417C27.302 63.4417 27.9343 64.1778 27.8315 64.9847C27.7287 65.7916 26.6214 64.6118 26.4669 64.2131C26.3125 63.8144 26.1335 63.2465 26.1335 63.2465C26.1335 63.2465 26.9097 62.7752 27.302 63.4417Z" fill="url(#paint32_linear_1227_32350)"/>
<path d="M27.0609 62.29C27.0609 62.29 26.8895 63.1476 27.2164 63.6002C27.3795 63.8255 27.5993 64.0168 27.5345 64.2003C27.4912 64.3231 27.3267 64.4115 27.1875 64.3976C26.9209 64.3705 26.7731 63.9718 26.6686 63.6905C26.5147 63.275 26.4288 62.3857 26.4288 62.3857L27.0609 62.29Z" fill="url(#paint33_linear_1227_32350)"/>
<path d="M26.5569 63.0129L27.1403 62.8055C27.4437 62.1295 27.814 61.0193 27.6901 59.6698C27.3723 56.1992 24.0822 54.3602 23.7175 54.1634C22.8213 54.6022 21.9134 55.2204 21.8803 56.0016C21.8392 56.9811 23.2069 57.4991 24.4917 58.9313C25.2637 59.7913 26.0883 61.0725 26.5569 63.0129Z" fill="url(#paint34_linear_1227_32350)"/>
<path d="M26.3475 67.864C26.9897 65.4154 26.8258 63.4173 26.6403 62.2662C26.3602 60.5264 25.7905 56.9877 23.3688 55.668C22.841 55.3799 22.084 55.1218 21.1628 54.3209C20.5468 53.7826 20.0224 53.1522 19.609 52.4535C16.3703 51.5265 13.3831 51.9022 12.0649 53.597C11.9126 53.7927 11.5315 54.2174 11.4576 54.8438C11.2909 56.2567 12.7141 57.958 14.3112 58.3131C16.3392 58.7643 17.5179 56.7313 19.3162 57.4078C19.819 57.5975 20.2454 58.0659 21.0983 59.0037C21.8549 59.8329 22.5017 60.7515 23.0238 61.7379C23.7111 63.0498 24.232 64.0179 24.3081 65.2728C24.3256 65.5653 24.3359 66.1559 24.6873 66.7928C24.9112 67.1911 25.2202 67.5377 25.5935 67.8092L26.3475 67.864Z" fill="url(#paint35_linear_1227_32350)"/>
<path style="mix-blend-mode:multiply" opacity="0.3" d="M11.4576 54.8426C11.5315 54.2163 11.9126 53.7916 12.0649 53.5959C13.3831 51.9011 16.3709 51.5254 19.609 52.4524C20.0223 53.1514 20.5466 53.7821 21.1625 54.3209C22.084 55.1218 22.8402 55.3798 23.3688 55.668C24.8476 56.4738 25.6352 58.1073 26.0885 59.6522C25.4157 58.6345 24.8401 58.364 24.3939 58.3591C23.755 58.3523 23.4711 58.8844 22.7093 58.8117C21.8953 58.7342 21.7092 58.0775 21.0491 58.0019C20.8516 57.9794 20.6085 58.0089 20.3168 58.1607C19.9279 57.7628 19.6368 57.5273 19.3167 57.4064C17.5185 56.7288 16.3411 58.7616 14.3118 58.3117C12.7138 57.9569 11.2912 56.2556 11.4576 54.8426Z" fill="url(#paint36_linear_1227_32350)"/>
<path d="M24.6695 56.763C24.1323 56.7352 23.5936 56.7471 23.0582 56.7988C19.8268 57.1102 18.9359 58.669 16.265 59.0503C15.6333 59.1403 12.8202 59.5412 11.602 57.9545C10.7272 56.8161 10.8595 54.8527 11.8162 54.0808C12.2213 53.7542 12.6219 53.7631 15.2152 53.7862C16.192 53.7949 17.1685 53.7978 18.1449 53.81C22.2787 53.8613 23.0693 53.5821 23.8214 54.2491C24.1714 54.5605 24.6845 55.2289 24.6695 56.763Z" fill="url(#paint37_linear_1227_32350)"/>
<path d="M15.9425 43.823C15.9425 43.823 12.6797 42.8947 11.2415 44.4819C10.9775 44.7733 10.7692 45.1563 10.6172 45.8959C9.84381 49.6653 12.7694 51.9293 11.6173 53.9187C11.1595 54.7082 10.3533 54.9462 9.78047 56.3654C9.68351 56.6055 9.33265 57.4744 9.65462 57.7477C9.93799 57.9889 10.4047 57.4799 11.2326 57.5783C12.1096 57.6823 12.3146 58.3396 12.9047 58.2439C13.2894 58.1816 13.4553 57.8609 14.022 57.0619C14.8427 55.9051 15.253 55.3273 15.5469 55.124C16.7076 54.3239 17.6043 55.3679 18.9278 54.5751C19.4067 54.2881 21.1819 52.0583 20.6597 52.6708C19.4167 51.1579 19.1278 49.9097 19.0981 49.0419C19.0656 48.0903 19.3481 47.658 19.0981 46.5332C19.0981 46.5332 18.8203 45.2782 17.8202 44.2006C17.6771 44.0453 17.506 43.8843 15.9425 43.823Z" fill="url(#paint38_linear_1227_32350)"/>
<path d="M14.8949 41.7582C14.9391 41.9596 15.1641 43.0405 14.7107 43.3186C14.6124 43.3788 14.4237 43.4135 14.0462 43.4812C13.7989 43.5262 13.5914 43.5542 13.4453 43.5712C13.4664 43.7523 13.5286 44.0474 13.7434 44.3158C14.3443 45.0679 15.5491 44.8733 15.7211 44.8427C16.3273 44.7343 16.9237 44.5524 17.0676 44.4407C17.2871 44.2705 17.4593 44.1426 17.5616 44.0136C17.3268 43.903 16.8534 43.6113 16.5356 43.5157C16.3178 43.4504 16.0963 43.3974 15.8722 43.3571L15.7722 42.7307L14.8949 41.7582Z" fill="url(#paint39_linear_1227_32350)"/>
<path d="M14.8735 42.2968C14.8735 42.2968 14.9568 43.0891 15.7447 43.2287C16.4514 43.3536 16.9832 41.6875 16.6217 41.2568C16.5009 41.1129 16.2031 40.9763 15.945 40.9834C15.7636 40.9885 15.1502 41.2164 15.0646 41.8152C14.9424 41.6897 14.7904 41.6526 14.7151 41.7068C14.6201 41.7734 14.671 41.9672 14.6826 42.0111C14.7141 42.1235 14.7808 42.2234 14.8735 42.2968Z" fill="url(#paint40_linear_1227_32350)"/>
<path style="mix-blend-mode:multiply" opacity="0.3" d="M20.6591 52.6703C20.5096 52.4884 20.3746 52.3104 20.2513 52.1361C19.684 51.9475 19.0928 51.8364 18.4944 51.8059C17.4151 51.755 16.8242 52.0027 16.0894 51.5715C15.256 51.0817 15.4033 50.4022 14.5985 50.0231C13.7517 49.6238 13.1539 50.0748 12.3382 49.929C11.846 49.8412 11.2467 49.52 10.6353 48.5836C11.1034 50.8383 12.4657 52.4532 11.6168 53.9176C11.1589 54.7072 10.3527 54.9451 9.77991 56.3643C9.68295 56.6044 9.33208 57.4734 9.65406 57.7466C9.93742 57.9878 10.4041 57.4788 11.232 57.5772C12.109 57.6813 12.3141 58.3385 12.9041 58.2429C13.2889 58.1805 13.4547 57.8599 14.0215 57.0609C14.8421 55.9041 15.2524 55.3262 15.5463 55.1229C16.707 54.3228 17.6038 55.3669 18.9272 54.5741C19.4073 54.2876 21.1825 52.0577 20.6591 52.6703Z" fill="url(#paint41_linear_1227_32350)"/>
<path d="M21.6434 53.0574L14.2604 53.4078C14.2103 53.4103 14.1616 53.4245 14.1184 53.4492C14.0752 53.474 14.0388 53.5086 14.0123 53.5501L13.8081 53.8699C13.785 53.906 13.7725 53.9475 13.7718 53.99C13.7711 54.0325 13.7823 54.0744 13.8042 54.1112C13.8261 54.1479 13.8578 54.1782 13.896 54.1987C13.9342 54.2192 13.9774 54.2291 14.0209 54.2274L21.8412 53.9366L21.6434 53.0574Z" fill="url(#paint42_linear_1227_32350)"/>
<path d="M29.3222 49.0459L21.695 49.1901C21.5841 49.1921 21.4756 49.2223 21.3802 49.2777C21.2848 49.3331 21.2058 49.4117 21.1511 49.5059L18.5097 54.0399L26.5661 53.7268C26.6749 53.7225 26.781 53.6919 26.8747 53.6376C26.9683 53.5833 27.0466 53.5071 27.1025 53.4159L29.5489 49.4273C29.5726 49.3887 29.5852 49.3446 29.5855 49.2996C29.5858 49.2547 29.5738 49.2104 29.5506 49.1715C29.5275 49.1326 29.4941 49.1004 29.454 49.0784C29.4138 49.0563 29.3683 49.0451 29.3222 49.0459Z" fill="url(#paint43_linear_1227_32350)"/>
<path style="mix-blend-mode:multiply" opacity="0.3" d="M21.1511 49.5059C21.2058 49.4117 21.2848 49.333 21.3802 49.2777C21.4755 49.2223 21.5841 49.1921 21.695 49.1901L21.8617 49.1871C21.8867 49.4273 21.9623 49.6479 22.1117 49.8243C22.5821 50.3784 23.3635 50.0366 23.9453 50.6228C24.5842 51.2668 23.9942 52.0322 24.5662 52.6326C25.1682 53.2633 26.1419 52.7497 27.2609 53.1533L27.0998 53.4159C27.0441 53.507 26.9661 53.5831 26.8728 53.6374C26.7795 53.6918 26.6738 53.7227 26.5653 53.7273L18.5089 54.0404L21.1511 49.5059Z" fill="url(#paint44_linear_1227_32350)"/>
<path d="M14.8621 52.8166L15.1505 52.074C14.0884 51.7899 12.6194 51.3693 11.1128 50.8451C10.877 50.7638 10.5967 50.6608 10.5047 50.4185C10.2472 49.739 11.8849 49.0362 12.5216 47.5511C13.1105 46.1789 12.7863 44.2746 12.1029 44.0496C10.6808 43.5812 5.63837 49.7054 7.43939 52.287C8.45727 53.746 11.5959 53.9783 14.8621 52.8166Z" fill="url(#paint45_linear_1227_32350)"/>
<path d="M15.1505 52.0739C15.8172 51.7284 16.6153 52.0826 16.6667 52.1065C16.8815 52.2057 17.0763 52.3415 17.2421 52.5076C17.2665 52.5401 17.5557 52.931 17.4504 53.0565C17.3671 53.1568 17.0387 53.0736 16.6448 52.835C16.4117 52.8029 16.1755 52.7973 15.9411 52.8182C15.4013 52.8667 15.1541 53.0332 14.9582 52.8895C14.8149 52.7844 14.766 52.5621 14.8177 52.397C14.8735 52.2203 15.0377 52.1322 15.1505 52.0739Z" fill="url(#paint46_linear_1227_32350)"/>
<path d="M58.763 74.5702C58.763 74.5702 56.2628 75.6856 56.2234 75.8628C56.1839 76.0401 57.8321 75.7997 58.5058 75.8235C59.1795 75.8474 59.7331 75.6522 59.6726 75.3739C59.612 75.0955 59.3734 74.3962 59.3734 74.3962L58.763 74.5702Z" fill="url(#paint47_linear_1227_32350)"/>
<path d="M58.6694 73.6701L58.8242 74.7689C58.8242 74.7689 59.2206 74.9045 59.4865 74.7418L59.5976 73.5363L58.6694 73.6701Z" fill="url(#paint48_linear_1227_32350)"/>
<path d="M70.4526 73.6688L70.7446 74.1242C70.7852 74.1869 70.8121 74.2571 70.8238 74.3303C70.8354 74.4036 70.8316 74.4785 70.8124 74.5502C70.7115 74.9297 70.5101 75.6685 70.4235 75.8615C70.3034 76.1242 68.6847 76.2838 68.6847 76.2838C68.6847 76.2838 68.5397 76.0859 68.8752 75.8455C69.2108 75.6051 69.4267 75.5672 69.5448 75.2137C69.6628 74.8603 69.7392 73.8604 69.7392 73.8604L70.4526 73.6688Z" fill="url(#paint49_linear_1227_32350)"/>
<path d="M69.2383 72.5133C69.345 72.5946 69.8687 74.1344 69.8687 74.1344C69.8687 74.1344 70.0376 74.3442 70.3565 74.0336C70.6754 73.723 70.5009 73.894 70.5009 73.894L70.4373 72.3797L69.2383 72.5133Z" fill="url(#paint50_linear_1227_32350)"/>
<path d="M57.2382 51.5921C57.1143 54.8716 57.1179 58.4328 57.3215 62.2377C57.5499 66.5223 57.9971 70.4816 58.5572 74.0704C58.7622 74.0764 58.9775 74.077 59.2025 74.0704C59.3545 74.0658 59.5017 74.0583 59.644 74.0485C60.0054 73.1009 60.3125 72.1344 60.5638 71.1535C60.8483 70.0382 61.0617 68.9067 61.2027 67.7655C61.675 64.0523 61.11 63.7284 61.4944 60.9755C61.8348 58.5375 62.3279 58.441 62.8965 54.9792C63.5146 51.2232 63.0463 50.661 62.8185 50.458C61.8486 49.5932 59.5798 50.1884 57.2382 51.5921Z" fill="url(#paint51_linear_1227_32350)"/>
<path style="mix-blend-mode:multiply" opacity="0.3" d="M62.8174 50.4573C61.8934 49.633 59.786 50.1382 57.5618 51.4059C60.1307 54.1006 60.4144 55.8509 60.1099 56.9893C59.766 58.2748 58.7117 58.6473 58.7189 60.052C58.7283 61.7783 60.3263 62.232 60.2968 64.0588C60.2774 65.2671 59.5745 65.256 59.4137 66.7486C59.222 68.5144 60.1402 69.1205 59.8465 70.4274C59.7201 70.9898 59.3573 71.7249 58.3205 72.4835C58.3969 73.0199 58.475 73.5506 58.5561 74.0716C58.7611 74.0772 58.9764 74.0778 59.2014 74.0716C59.3534 74.0672 59.5006 74.0596 59.6429 74.0499C60.0043 73.1023 60.3114 72.1358 60.5627 71.1549C60.8472 70.0395 61.0606 68.908 61.2017 67.7669C61.6739 64.0537 61.1089 63.7298 61.4934 60.9768C61.8337 58.5388 62.3268 58.4423 62.8955 54.9806C63.5133 51.2224 63.0452 50.6603 62.8174 50.4573Z" fill="url(#paint52_linear_1227_32350)"/>
<path d="M58.8253 51.5333C63.4697 58.1266 66.9816 65.4145 69.2228 73.1102C69.4536 73.2136 69.7097 73.2511 69.9614 73.2186C70.2851 73.1727 70.5814 73.0156 70.7971 72.7757C71.0775 71.0469 71.1376 69.2909 70.976 67.5476C70.8982 66.7155 70.7607 65.3297 70.2129 63.62C69.5989 61.7048 69.18 61.5981 68.3793 59.5723C67.5495 57.4696 67.7479 56.9432 66.9517 54.3117C66.4725 52.7347 65.8793 51.1929 65.1765 49.6978L58.8253 51.5333Z" fill="url(#paint53_linear_1227_32350)"/>
<path d="M73.8068 40.0398C73.7821 40.7115 73.3874 41.0914 72.8195 41.8146C70.9479 44.1976 69.0338 47.9634 68.5671 51.3993C68.3671 52.8784 68.4268 54.3434 67.2953 55.5593C67.0778 55.7923 66.3913 56.5304 65.7143 56.3927C64.9087 56.2301 64.9804 55.0001 63.9086 54.4873C63.5572 54.3182 63.4363 54.3968 61.8956 54.4187C60.933 54.432 59.9601 54.4431 58.9161 54.3274C57.9277 54.219 56.5034 54.061 56.3539 53.4525C56.295 53.2102 56.465 52.996 56.6012 52.7909C57.2051 51.885 57.1207 51.2484 57.4443 49.8878C58.0494 47.347 59.4067 45.0985 59.3889 44.835C59.3888 44.8322 59.3881 44.8294 59.3867 44.8269C59.3866 44.8245 59.386 44.8222 59.3848 44.8201C59.3848 44.818 59.3826 44.8169 59.3817 44.815C59.3804 44.8132 59.3785 44.8118 59.3764 44.8109C59.3064 44.7757 59.0153 45.2283 58.753 45.6024C58.7322 45.6314 58.7117 45.6606 58.6892 45.6899C57.681 47.0451 56.3525 46.989 54.7312 46.6743C54.2098 46.5738 53.6575 46.4458 53.0761 46.3304C52.0382 46.1233 50.8375 44.5515 50.8169 43.7864C50.7942 42.9849 52.3449 43.4113 53.7925 42.4922C58.0057 39.8176 56.0041 38.4762 59.8971 36.7386C60.8627 36.3071 61.8098 36.1463 63.1702 35.9141C63.7308 35.8176 64.2536 35.7514 64.7431 35.707C65.9705 35.5931 67.2784 35.5715 68.009 35.6406C70.6768 35.8929 73.8791 38.0685 73.8068 40.0398Z" fill="url(#paint54_linear_1227_32350)"/>
<path d="M65.7816 33.5956C65.7816 33.5956 65.9482 34.5058 66.3336 35.1538C66.6814 35.7396 68.1193 35.9494 68.419 36.0513C68.7188 36.1532 67.9671 36.6625 67.1689 36.847C66.3708 37.0316 64.0319 37.1522 63.5741 36.9067C63.1163 36.6611 63.8714 36.586 64.4214 36.3041C64.9715 36.0223 65.1554 34.8752 64.9851 34.3876C64.8148 33.9 65.7816 33.5956 65.7816 33.5956Z" fill="url(#paint55_linear_1227_32350)"/>
<path d="M64.262 33.3321C63.6819 32.9277 63.5213 31.8341 63.8436 31.5885C63.9355 31.5183 64.0236 31.5506 65.3324 32.0629C65.9824 32.3174 66.3022 32.4529 66.4075 32.7329C66.4719 32.9039 66.4614 33.1348 66.3902 33.3167C66.3539 33.4105 66.2825 33.527 66.1241 33.7503C65.9835 33.9477 65.993 33.9401 65.9499 33.9983C65.8463 34.1363 65.6466 34.3683 65.2807 34.6375C65.2558 34.5141 65.2201 34.393 65.174 34.2756C65.1143 34.123 65.0347 33.9786 64.9373 33.8458C64.709 33.5479 64.4503 33.4633 64.262 33.3321Z" fill="#26264F"/>
<path d="M65.7485 34.3722C65.7485 34.3722 65.3691 34.9237 64.6651 34.8489C64.0356 34.782 64.005 33.3972 64.4215 33.1213C64.5604 33.0292 64.8315 33.0002 65.0479 33.0693C65.1757 33.1102 65.2171 33.1647 65.4271 33.2276C65.6216 33.2853 65.6771 33.2666 65.7341 33.3178C65.8055 33.3815 65.853 33.533 65.7113 33.9314C65.8372 33.8176 65.9836 33.778 66.0839 33.8295C66.118 33.8496 66.1459 33.8785 66.1644 33.913C66.2472 34.0746 66.09 34.2697 65.7485 34.3722Z" fill="url(#paint56_linear_1227_32350)"/>
<path style="mix-blend-mode:multiply" opacity="0.3" d="M60.0243 43.8656C59.8132 44.1895 59.6007 44.5123 59.3907 44.8359C59.3907 44.8329 59.3907 44.8299 59.3907 44.8267C59.3899 44.8245 59.3892 44.8222 59.3887 44.8199C59.3887 44.8177 59.3865 44.8167 59.3857 44.8148C59.3843 44.813 59.3825 44.8116 59.3804 44.8107C59.3104 44.7755 59.0192 45.2281 58.757 45.6021C58.7361 45.6311 58.7156 45.6604 58.6931 45.6897C57.6849 47.0449 56.3564 46.9888 54.7352 46.6741C55.503 46.5172 56 46.3673 56.5687 45.9198C58.0169 44.7814 58.2355 43.0489 59.0765 43.0701C59.4718 43.0812 59.7943 43.4775 60.0243 43.8656Z" fill="url(#paint57_linear_1227_32350)"/>
<path d="M71.75 53.578C72.8156 53.6707 75.2148 53.7135 76.9116 52.1816C79.7363 49.6319 78.3351 44.7787 77.3519 42.6917C76.2246 40.2987 74.4302 38.9592 73.3399 38.145C71.9869 37.1351 71.1613 36.5188 70.1679 36.6567C67.5987 37.0137 65.8194 42.1512 67.2298 43.6224C67.6915 44.1041 68.1488 43.8314 69.485 44.2458C69.9201 44.3813 73.1679 45.3902 73.7335 47.7241C74.1291 49.3576 73.1223 51.2701 71.328 52.5548C71.4689 52.896 71.6096 53.237 71.75 53.578Z" fill="url(#paint58_linear_1227_32350)"/>
<path style="mix-blend-mode:multiply" opacity="0.3" d="M59.8037 52.7318C61.0102 51.9878 61.1889 51.2338 62.5401 50.7242C64.2953 50.0623 65.1387 50.9031 66.0091 50.2244C67.0447 49.4165 66.1277 48.0092 66.9028 45.5669C67.0345 45.1522 68.0335 42.0038 70.3259 41.6027C71.3949 41.4154 72.807 41.8152 73.351 42.699C73.7768 43.3907 73.3801 43.9062 73.898 44.6697C74.4158 45.4333 75.0339 45.2463 75.6934 45.8829C76.7408 46.8934 76.901 49.0245 75.9557 50.2298C75.5148 50.792 74.9417 51.0142 73.8635 51.4325C73.2818 51.6579 72.6799 51.8303 72.0655 51.9474C73.3857 50.7112 74.0708 49.1167 73.7324 47.7241C73.3798 46.2694 71.985 45.3292 70.879 44.7947C69.7723 46.8275 68.8677 49.1817 68.5663 51.4002C68.3657 52.8784 68.426 54.344 67.2942 55.5596C67.0767 55.7932 66.39 56.531 65.7129 56.3933C64.9073 56.2307 64.9793 55.0004 63.9072 54.4873C63.5558 54.319 63.4349 54.3971 61.8942 54.419C60.9322 54.4329 59.959 54.444 58.9156 54.3285C58.0363 54.2309 56.8143 54.0946 56.4495 53.6382C58.0385 53.5962 59.0975 53.1671 59.8037 52.7318Z" fill="url(#paint59_linear_1227_32350)"/>
<path d="M71.8508 55.5509L72.0608 55.2354C72.3959 54.7321 72.2331 54.0667 71.6972 53.7506L50.69 41.3525L49.4001 43.4747L70.2823 55.8854C70.8143 56.2017 71.5166 56.0526 71.8508 55.5509Z" fill="url(#paint60_linear_1227_32350)"/>
<path d="M29.6814 30.3187C33.1657 24.0401 41.0376 21.6842 47.2907 25.2479C53.6589 28.8771 55.7044 37.1118 51.8382 43.4408C48.0628 49.6205 40.1361 51.4983 34.1499 47.8222C28.2671 44.2101 26.2763 36.4545 29.6814 30.3187ZM50.0108 42.3583C53.2244 37.0562 51.5109 30.1746 46.1967 27.1273C40.9637 24.126 34.3491 26.0718 31.4038 31.3387C28.5146 36.5044 30.1909 43.0476 35.162 46.0832C40.2067 49.1641 46.8602 47.5558 50.0108 42.3583Z" fill="url(#paint61_linear_1227_32350)"/>
<g style="mix-blend-mode:multiply" opacity="0.3">
<path d="M50.69 41.3525L53.3686 42.9332C53.333 43.8859 53.5856 44.499 53.8937 44.9118C55.0516 46.4605 57.3457 45.6514 59.7157 47.7176C60.9049 48.7546 60.5291 49.134 61.6881 49.9387C63.6027 51.269 64.8648 50.3946 66.5542 51.5921C68.2629 52.8034 68.0343 54.4513 69.1275 54.6605C69.5953 54.75 70.2743 54.5695 71.2588 53.4921L71.6983 53.7515C72.2342 54.0675 72.397 54.7329 72.062 55.2362L71.8519 55.5517C71.5186 56.0534 70.8154 56.2022 70.2829 55.8859L49.4007 43.4755L50.69 41.3525Z" fill="#D8DEE8"/>
</g>
<path d="M29.0911 30.007C32.5753 23.7287 40.447 21.3725 46.7004 24.9364C53.0683 28.5654 55.1141 36.8001 51.2478 43.1291C47.4724 49.3088 39.5455 51.1866 33.5593 47.5108C27.6768 43.8983 25.6874 36.1428 29.0911 30.007ZM49.4201 42.0469C52.6341 36.7448 50.9203 29.8631 45.6064 26.8158C40.3734 23.8146 33.7585 25.7604 30.8132 31.0272C27.924 36.193 29.6003 42.7361 34.5714 45.7718C39.6161 48.8524 46.2695 47.2443 49.4201 42.0469Z" fill="url(#paint62_linear_1227_32350)"/>
<path d="M29.6992 30.3673C32.9934 24.4467 40.4209 22.2361 46.312 25.6024C52.3054 29.0259 54.2337 36.7806 50.5997 42.7459C47.0463 48.5789 39.5708 50.3621 33.916 46.8971C28.3543 43.4888 26.4755 36.1607 29.6992 30.3673ZM49.4201 42.0469C52.6341 36.7448 50.9203 29.8631 45.6064 26.8158C40.3734 23.8146 33.7585 25.7604 30.8132 31.0272C27.924 36.193 29.6003 42.7361 34.5714 45.7718C39.6161 48.8524 46.2695 47.2443 49.4201 42.0469Z" fill="url(#paint63_linear_1227_32350)"/>
<path d="M71.6594 53.3587L71.4222 52.783C71.4222 52.783 71.0332 52.8061 70.7165 52.5836C70.5435 52.4624 70.2359 52.4264 70.1465 52.4505C70.057 52.4746 69.7198 52.4602 70.1045 52.6402C70.4893 52.8202 70.486 52.9522 70.3268 53.0994C70.1676 53.2465 69.5564 53.5623 69.3367 53.5775C69.1169 53.5926 69.5142 53.9241 69.7356 53.9664C69.957 54.0087 70.319 54.0624 70.7696 53.8038C70.9324 53.7092 71.6594 53.3587 71.6594 53.3587Z" fill="url(#paint64_linear_1227_32350)"/>
<path d="M54.0081 45.8401C54.0081 45.8401 53.0889 45.4606 52.5988 45.0541C52.1088 44.6475 51.6359 44.876 51.6134 45.1261C51.5909 45.3763 52.4171 45.9834 52.7847 46.1073C53.1522 46.2312 54.0081 45.8401 54.0081 45.8401Z" fill="url(#paint65_linear_1227_32350)"/>
</g>
<defs>
<linearGradient id="paint0_linear_1227_32350" x1="70.3425" y1="23.7484" x2="43.0138" y2="64.4459" gradientUnits="userSpaceOnUse">
<stop stop-color="#FFC444"/>
<stop offset="1" stop-color="#F36F56"/>
</linearGradient>
<linearGradient id="paint1_linear_1227_32350" x1="51.4629" y1="1.09208" x2="44.7511" y2="48.9311" gradientUnits="userSpaceOnUse">
<stop stop-color="#AA80F9"/>
<stop offset="1" stop-color="#6165D7"/>
</linearGradient>
<linearGradient id="paint2_linear_1227_32350" x1="63.1505" y1="10.1748" x2="45.2062" y2="50.7864" gradientUnits="userSpaceOnUse">
<stop stop-color="#FF9085"/>
<stop offset="1" stop-color="#FB6FBB"/>
</linearGradient>
<linearGradient id="paint3_linear_1227_32350" x1="17.4688" y1="45.5777" x2="55.6027" y2="45.5777" gradientUnits="userSpaceOnUse">
<stop stop-color="#444B8C"/>
<stop offset="1" stop-color="#26264F"/>
</linearGradient>
<linearGradient id="paint4_linear_1227_32350" x1="54.7824" y1="16.4337" x2="29.4159" y2="58.979" gradientUnits="userSpaceOnUse">
<stop stop-color="white"/>
<stop offset="1" stop-color="#EBEFF2"/>
</linearGradient>
<linearGradient id="paint5_linear_1227_32350" x1="37265.1" y1="7759.1" x2="68846" y2="7759.1" gradientUnits="userSpaceOnUse">
<stop stop-color="#AA80F9"/>
<stop offset="1" stop-color="#6165D7"/>
</linearGradient>
<linearGradient id="paint6_linear_1227_32350" x1="15314.4" y1="13663" x2="15059.9" y2="25286.3" gradientUnits="userSpaceOnUse">
<stop stop-color="#AA80F9"/>
<stop offset="1" stop-color="#6165D7"/>
</linearGradient>
<linearGradient id="paint7_linear_1227_32350" x1="26198.3" y1="11874" x2="26083.1" y2="22181.9" gradientUnits="userSpaceOnUse">
<stop stop-color="#AA80F9"/>
<stop offset="1" stop-color="#6165D7"/>
</linearGradient>
<linearGradient id="paint8_linear_1227_32350" x1="10234.3" y1="705.098" x2="9522.34" y2="14314.4" gradientUnits="userSpaceOnUse">
<stop stop-color="#AA80F9"/>
<stop offset="1" stop-color="#6165D7"/>
</linearGradient>
<linearGradient id="paint9_linear_1227_32350" x1="8387.12" y1="793.576" x2="7407.59" y2="14129.2" gradientUnits="userSpaceOnUse">
<stop stop-color="#AA80F9"/>
<stop offset="1" stop-color="#6165D7"/>
</linearGradient>
<linearGradient id="paint10_linear_1227_32350" x1="8452.84" y1="966.872" x2="7398.8" y2="13985.5" gradientUnits="userSpaceOnUse">
<stop stop-color="#AA80F9"/>
<stop offset="1" stop-color="#6165D7"/>
</linearGradient>
<linearGradient id="paint11_linear_1227_32350" x1="7767.59" y1="1049.65" x2="6551.1" y2="13814" gradientUnits="userSpaceOnUse">
<stop stop-color="#AA80F9"/>
<stop offset="1" stop-color="#6165D7"/>
</linearGradient>
<linearGradient id="paint12_linear_1227_32350" x1="6310.27" y1="1152.08" x2="4736.86" y2="13647.9" gradientUnits="userSpaceOnUse">
<stop stop-color="#AA80F9"/>
<stop offset="1" stop-color="#6165D7"/>
</linearGradient>
<linearGradient id="paint13_linear_1227_32350" x1="9603.18" y1="1220.16" x2="8510.68" y2="13659.5" gradientUnits="userSpaceOnUse">
<stop stop-color="#AA80F9"/>
<stop offset="1" stop-color="#6165D7"/>
</linearGradient>
<linearGradient id="paint14_linear_1227_32350" x1="2580.72" y1="8213.69" x2="2731.33" y2="8213.69" gradientUnits="userSpaceOnUse">
<stop stop-color="#FFC444"/>
<stop offset="1" stop-color="#F36F56"/>
</linearGradient>
<linearGradient id="paint15_linear_1227_32350" x1="19.2428" y1="60.6171" x2="19.7102" y2="53.4833" gradientUnits="userSpaceOnUse">
<stop offset="0.1" stop-color="#311944"/>
<stop offset="0.27" stop-color="#371B47"/>
<stop offset="0.48" stop-color="#462150"/>
<stop offset="0.72" stop-color="#612A5F"/>
<stop offset="0.97" stop-color="#853774"/>
<stop offset="1" stop-color="#893976"/>
</linearGradient>
<linearGradient id="paint16_linear_1227_32350" x1="367.234" y1="3748.62" x2="454.394" y2="3758.89" gradientUnits="userSpaceOnUse">
<stop offset="0.1" stop-color="#311944"/>
<stop offset="0.27" stop-color="#371B47"/>
<stop offset="0.48" stop-color="#462150"/>
<stop offset="0.72" stop-color="#612A5F"/>
<stop offset="0.97" stop-color="#853774"/>
<stop offset="1" stop-color="#893976"/>
</linearGradient>
<linearGradient id="paint17_linear_1227_32350" x1="1755.15" y1="9113.19" x2="1872.41" y2="9113.19" gradientUnits="userSpaceOnUse">
<stop stop-color="#FFC444"/>
<stop offset="1" stop-color="#F36F56"/>
</linearGradient>
<linearGradient id="paint18_linear_1227_32350" x1="8.50783" y1="64.6499" x2="5.45034" y2="36.0047" gradientUnits="userSpaceOnUse">
<stop offset="0.1" stop-color="#311944"/>
<stop offset="0.69" stop-color="#6D2F66"/>
<stop offset="1" stop-color="#893976"/>
</linearGradient>
<linearGradient id="paint19_linear_1227_32350" x1="22.4743" y1="76.5288" x2="1.46813" y2="64.5402" gradientUnits="userSpaceOnUse">
<stop stop-color="#311944"/>
<stop offset="1" stop-color="#893976"/>
</linearGradient>
<linearGradient id="paint20_linear_1227_32350" x1="3040.48" y1="55818.4" x2="7097.56" y2="57524.8" gradientUnits="userSpaceOnUse">
<stop stop-color="#311944"/>
<stop offset="1" stop-color="#893976"/>
</linearGradient>
<linearGradient id="paint21_linear_1227_32350" x1="18438.1" y1="38348" x2="19951.8" y2="62836.2" gradientUnits="userSpaceOnUse">
<stop offset="0.1" stop-color="#311944"/>
<stop offset="0.69" stop-color="#6D2F66"/>
<stop offset="1" stop-color="#893976"/>
</linearGradient>
<linearGradient id="paint22_linear_1227_32350" x1="23424.8" y1="58946.2" x2="36938.1" y2="70379.2" gradientUnits="userSpaceOnUse">
<stop stop-color="#311944"/>
<stop offset="1" stop-color="#893976"/>
</linearGradient>
<linearGradient id="paint23_linear_1227_32350" x1="20955.1" y1="31478.7" x2="27445.8" y2="30938.8" gradientUnits="userSpaceOnUse">
<stop offset="0.1" stop-color="#311944"/>
<stop offset="0.69" stop-color="#6D2F66"/>
<stop offset="1" stop-color="#893976"/>
</linearGradient>
<linearGradient id="paint24_linear_1227_32350" x1="31347.6" y1="41719.6" x2="30853.3" y2="29744.9" gradientUnits="userSpaceOnUse">
<stop offset="0.1" stop-color="#311944"/>
<stop offset="0.27" stop-color="#371B47"/>
<stop offset="0.48" stop-color="#462150"/>
<stop offset="0.72" stop-color="#612A5F"/>
<stop offset="0.97" stop-color="#853774"/>
<stop offset="1" stop-color="#893976"/>
</linearGradient>
<linearGradient id="paint25_linear_1227_32350" x1="32459.8" y1="43304.6" x2="31662.7" y2="27169.1" gradientUnits="userSpaceOnUse">
<stop stop-color="#311944"/>
<stop offset="1" stop-color="#893976"/>
</linearGradient>
<linearGradient id="paint26_linear_1227_32350" x1="6096.45" y1="12804.8" x2="4201.17" y2="11843.4" gradientUnits="userSpaceOnUse">
<stop stop-color="#FFC444"/>
<stop offset="1" stop-color="#F36F56"/>
</linearGradient>
<linearGradient id="paint27_linear_1227_32350" x1="4415.42" y1="12069.6" x2="6341.18" y2="12731.3" gradientUnits="userSpaceOnUse">
<stop stop-color="#FFC444"/>
<stop offset="1" stop-color="#F36F56"/>
</linearGradient>
<linearGradient id="paint28_linear_1227_32350" x1="19.1031" y1="37.3755" x2="-1.33914" y2="51.6076" gradientUnits="userSpaceOnUse">
<stop stop-color="#311944"/>
<stop offset="1" stop-color="#6B3976"/>
</linearGradient>
<linearGradient id="paint29_linear_1227_32350" x1="-20567" y1="19721.6" x2="-22438.8" y2="24838.2" gradientUnits="userSpaceOnUse">
<stop stop-color="#FFC444"/>
<stop offset="1" stop-color="#F36F56"/>
</linearGradient>
<linearGradient id="paint30_linear_1227_32350" x1="-7265.19" y1="7513.12" x2="-7456.74" y2="7380.66" gradientUnits="userSpaceOnUse">
<stop stop-color="#311944"/>
<stop offset="1" stop-color="#6B3976"/>
</linearGradient>
<linearGradient id="paint31_linear_1227_32350" x1="-2591.66" y1="6992.1" x2="-3183.38" y2="5921.15" gradientUnits="userSpaceOnUse">
<stop stop-color="#FFC444"/>
<stop offset="1" stop-color="#F36F56"/>
</linearGradient>
<linearGradient id="paint32_linear_1227_32350" x1="3163.36" y1="5967.29" x2="3268.61" y2="5967.29" gradientUnits="userSpaceOnUse">
<stop stop-color="#311944"/>
<stop offset="1" stop-color="#6B3976"/>
</linearGradient>
<linearGradient id="paint33_linear_1227_32350" x1="-1970.68" y1="6141.42" x2="-2289.27" y2="5635.06" gradientUnits="userSpaceOnUse">
<stop stop-color="#FFC444"/>
<stop offset="1" stop-color="#F36F56"/>
</linearGradient>
<linearGradient id="paint34_linear_1227_32350" x1="-11180.1" y1="21065.2" x2="-12150" y2="24762.3" gradientUnits="userSpaceOnUse">
<stop stop-color="#AA80F9"/>
<stop offset="1" stop-color="#6165D7"/>
</linearGradient>
<linearGradient id="paint35_linear_1227_32350" x1="-31122.6" y1="45985.8" x2="-32867" y2="40653.3" gradientUnits="userSpaceOnUse">
<stop stop-color="#AA80F9"/>
<stop offset="1" stop-color="#6165D7"/>
</linearGradient>
<linearGradient id="paint36_linear_1227_32350" x1="-29666.1" y1="22272.6" x2="-30127.4" y2="19493.5" gradientUnits="userSpaceOnUse">
<stop stop-color="#AA80F9"/>
<stop offset="1" stop-color="#6165D7"/>
</linearGradient>
<linearGradient id="paint37_linear_1227_32350" x1="-29703.9" y1="12603.8" x2="-29866.8" y2="14991.6" gradientUnits="userSpaceOnUse">
<stop stop-color="#AA80F9"/>
<stop offset="1" stop-color="#6165D7"/>
</linearGradient>
<linearGradient id="paint38_linear_1227_32350" x1="-25789.2" y1="29133.9" x2="-29217.2" y2="36325.7" gradientUnits="userSpaceOnUse">
<stop stop-color="#FFC444"/>
<stop offset="1" stop-color="#F36F56"/>
</linearGradient>
<linearGradient id="paint39_linear_1227_32350" x1="-1837.66" y1="7191.16" x2="-1708.53" y2="6566.12" gradientUnits="userSpaceOnUse">
<stop stop-color="#FFC444"/>
<stop offset="1" stop-color="#F36F56"/>
</linearGradient>
<linearGradient id="paint40_linear_1227_32350" x1="-1124.04" y1="4806.94" x2="-1235.41" y2="5390.46" gradientUnits="userSpaceOnUse">
<stop stop-color="#FFC444"/>
<stop offset="1" stop-color="#F36F56"/>
</linearGradient>
<linearGradient id="paint41_linear_1227_32350" x1="-24476.8" y1="22447.2" x2="-29019.3" y2="22447.2" gradientUnits="userSpaceOnUse">
<stop stop-color="#FFC444"/>
<stop offset="1" stop-color="#F36F56"/>
</linearGradient>
<linearGradient id="paint42_linear_1227_32350" x1="21.8412" y1="53.6425" x2="13.7714" y2="53.6425" gradientUnits="userSpaceOnUse">
<stop stop-color="#40447E"/>
<stop offset="1" stop-color="#3C3B6B"/>
</linearGradient>
<linearGradient id="paint43_linear_1227_32350" x1="37407.1" y1="10744.3" x2="38123.7" y2="12320.8" gradientUnits="userSpaceOnUse">
<stop stop-color="#40447E"/>
<stop offset="1" stop-color="#3C3B6B"/>
</linearGradient>
<linearGradient id="paint44_linear_1227_32350" x1="29562.7" y1="10443" x2="30350.1" y2="11851.5" gradientUnits="userSpaceOnUse">
<stop stop-color="#40447E"/>
<stop offset="1" stop-color="#3C3B6B"/>
</linearGradient>
<linearGradient id="paint45_linear_1227_32350" x1="-19223.3" y1="21879.3" x2="-24916" y2="17781.9" gradientUnits="userSpaceOnUse">
<stop stop-color="#FFC444"/>
<stop offset="1" stop-color="#F36F56"/>
</linearGradient>
<linearGradient id="paint46_linear_1227_32350" x1="-5260.38" y1="2715.84" x2="-5347.38" y2="2902.58" gradientUnits="userSpaceOnUse">
<stop stop-color="#FFC444"/>
<stop offset="1" stop-color="#F36F56"/>
</linearGradient>
<linearGradient id="paint47_linear_1227_32350" x1="57.5446" y1="70.7199" x2="58.155" y2="78.4388" gradientUnits="userSpaceOnUse">
<stop stop-color="#444B8C"/>
<stop offset="1" stop-color="#3E4177"/>
</linearGradient>
<linearGradient id="paint48_linear_1227_32350" x1="59.16" y1="75.0131" x2="59.0333" y2="67.0195" gradientUnits="userSpaceOnUse">
<stop stop-color="#AB316D"/>
<stop offset="1" stop-color="#792D3D"/>
</linearGradient>
<linearGradient id="paint49_linear_1227_32350" x1="8171.19" y1="7726.21" x2="8241.3" y2="8468.83" gradientUnits="userSpaceOnUse">
<stop stop-color="#444B8C"/>
<stop offset="1" stop-color="#3E4177"/>
</linearGradient>
<linearGradient id="paint50_linear_1227_32350" x1="4975.51" y1="5750.2" x2="4965.18" y2="5212.32" gradientUnits="userSpaceOnUse">
<stop stop-color="#AB316D"/>
<stop offset="1" stop-color="#792D3D"/>
</linearGradient>
<linearGradient id="paint51_linear_1227_32350" x1="19937.8" y1="63473" x2="21256.8" y2="63473" gradientUnits="userSpaceOnUse">
<stop stop-color="#444B8C"/>
<stop offset="1" stop-color="#3E4177"/>
</linearGradient>
<linearGradient id="paint52_linear_1227_32350" x1="18596.6" y1="63475" x2="19826.6" y2="63475" gradientUnits="userSpaceOnUse">
<stop stop-color="#444B8C"/>
<stop offset="1" stop-color="#3E4177"/>
</linearGradient>
<linearGradient id="paint53_linear_1227_32350" x1="41026" y1="61678.1" x2="46398.9" y2="61678.1" gradientUnits="userSpaceOnUse">
<stop stop-color="#444B8C"/>
<stop offset="1" stop-color="#3E4177"/>
</linearGradient>
<linearGradient id="paint54_linear_1227_32350" x1="66962.1" y1="33603.2" x2="57167.8" y2="51370.3" gradientUnits="userSpaceOnUse">
<stop stop-color="#AA80F9"/>
<stop offset="1" stop-color="#6165D7"/>
</linearGradient>
<linearGradient id="paint55_linear_1227_32350" x1="14332.5" y1="5590.93" x2="14222" y2="7018.08" gradientUnits="userSpaceOnUse">
<stop stop-color="#AB316D"/>
<stop offset="1" stop-color="#792D3D"/>
</linearGradient>
<linearGradient id="paint56_linear_1227_32350" x1="5743.99" y1="2886.79" x2="5803.86" y2="3440.95" gradientUnits="userSpaceOnUse">
<stop stop-color="#AB316D"/>
<stop offset="1" stop-color="#792D3D"/>
</linearGradient>
<linearGradient id="paint57_linear_1227_32350" x1="12804.4" y1="7641.61" x2="13811.9" y2="7641.61" gradientUnits="userSpaceOnUse">
<stop stop-color="#AA80F9"/>
<stop offset="1" stop-color="#6165D7"/>
</linearGradient>
<linearGradient id="paint58_linear_1227_32350" x1="37884.4" y1="30334.2" x2="28520.3" y2="41064" gradientUnits="userSpaceOnUse">
<stop stop-color="#AA80F9"/>
<stop offset="1" stop-color="#6165D7"/>
</linearGradient>
<linearGradient id="paint59_linear_1227_32350" x1="49827.4" y1="32019.6" x2="64413.2" y2="32019.6" gradientUnits="userSpaceOnUse">
<stop stop-color="#AA80F9"/>
<stop offset="1" stop-color="#6165D7"/>
</linearGradient>
<linearGradient id="paint60_linear_1227_32350" x1="49276.1" y1="41491.7" x2="69124.1" y2="46650.7" gradientUnits="userSpaceOnUse">
<stop stop-color="#444B8C"/>
<stop offset="1" stop-color="#26264F"/>
</linearGradient>
<linearGradient id="paint61_linear_1227_32350" x1="32103.6" y1="53057.6" x2="55219.7" y2="59066.1" gradientUnits="userSpaceOnUse">
<stop stop-color="#444B8C"/>
<stop offset="1" stop-color="#26264F"/>
</linearGradient>
<linearGradient id="paint62_linear_1227_32350" x1="49108" y1="67300.6" x2="40661.7" y2="51433.9" gradientUnits="userSpaceOnUse">
<stop stop-color="#444B8C"/>
<stop offset="1" stop-color="#26264F"/>
</linearGradient>
<linearGradient id="paint63_linear_1227_32350" x1="34900.1" y1="41408.7" x2="45771.3" y2="61424.7" gradientUnits="userSpaceOnUse">
<stop stop-color="#444B8C"/>
<stop offset="1" stop-color="#26264F"/>
</linearGradient>
<linearGradient id="paint64_linear_1227_32350" x1="10731.7" y1="7482.45" x2="10796.6" y2="7335.91" gradientUnits="userSpaceOnUse">
<stop stop-color="#AB316D"/>
<stop offset="1" stop-color="#792D3D"/>
</linearGradient>
<linearGradient id="paint65_linear_1227_32350" x1="9396.24" y1="11334.2" x2="9519.03" y2="11476" gradientUnits="userSpaceOnUse">
<stop stop-color="#AB316D"/>
<stop offset="1" stop-color="#792D3D"/>
</linearGradient>
<clipPath id="clip0_1227_32350">
<rect width="80" height="80" fill="white"/>
</clipPath>
</defs>
</svg>
