<svg width="80" height="80" viewBox="0 0 80 80" fill="none" xmlns="http://www.w3.org/2000/svg">
<g clip-path="url(#clip0_1227_32472)">
<path d="M76.7705 52.3613C68.9678 70.5887 48.3709 78.4168 32.2328 77.0819C27.8266 76.7174 18.9607 75.984 12.0385 69.442C-1.25544 56.8779 0.791962 30.616 13.518 15.1548C15.157 13.1637 26.5008 -0.176873 44.1783 0.00171557C57.1208 0.13268 66.205 7.43894 67.3096 8.34917C68.7048 9.49922 71.7825 12.2328 74.5563 16.5665C81.0729 26.752 81.6465 40.9711 76.7705 52.3613Z" fill="url(#paint0_linear_1227_32472)"/>
<g opacity="0.3">
<path opacity="0.3" d="M54.703 14.6417C54.6286 14.6416 54.5569 14.614 54.5016 14.5642C54.4464 14.5145 54.4115 14.446 54.4037 14.3721C54.3683 14.0339 54.347 13.6892 54.3405 13.3476C54.3397 13.308 54.3468 13.2687 54.3613 13.2319C54.3758 13.195 54.3974 13.1614 54.4249 13.1329C54.4524 13.1044 54.4853 13.0816 54.5216 13.0658C54.5579 13.05 54.597 13.0416 54.6366 13.0409H54.6423C54.7211 13.0409 54.7968 13.0718 54.8531 13.127C54.9094 13.1822 54.9418 13.2572 54.9433 13.336C54.9495 13.6606 54.9699 13.988 55.0034 14.3092C55.0078 14.3511 55.0033 14.3936 54.9902 14.4337C54.9771 14.4738 54.9557 14.5107 54.9275 14.5421C54.8992 14.5734 54.8647 14.5985 54.8261 14.6156C54.7875 14.6328 54.7458 14.6417 54.7036 14.6417H54.703ZM54.7223 12.0196C54.6797 12.0197 54.6375 12.0108 54.5986 11.9934C54.5597 11.976 54.5249 11.9505 54.4966 11.9187C54.4683 11.8868 54.4471 11.8493 54.4344 11.8087C54.4217 11.768 54.4178 11.7251 54.423 11.6828C54.463 11.3426 54.5181 11.0025 54.5867 10.6702C54.5938 10.6307 54.6088 10.593 54.6307 10.5594C54.6526 10.5257 54.681 10.4968 54.7143 10.4743C54.7476 10.4518 54.785 10.4362 54.8244 10.4283C54.8638 10.4205 54.9044 10.4206 54.9437 10.4287C54.9831 10.4368 55.0204 10.4526 55.0536 10.4753C55.0867 10.4981 55.1149 10.5272 55.1367 10.5609C55.1584 10.5947 55.1731 10.6325 55.18 10.6721C55.1868 10.7116 55.1857 10.7521 55.1767 10.7913C55.1115 11.1076 55.0593 11.4313 55.0213 11.7534C55.0126 11.8267 54.9774 11.8943 54.9222 11.9434C54.8669 11.9925 54.7956 12.0196 54.7217 12.0196H54.7223ZM55.318 9.46829C55.2697 9.46822 55.2222 9.45658 55.1794 9.43435C55.1366 9.41212 55.0997 9.37995 55.0719 9.34054C55.0442 9.30113 55.0262 9.25564 55.0197 9.20787C55.0131 9.16011 55.0182 9.11147 55.0343 9.06604C55.1478 8.74515 55.2783 8.42511 55.4201 8.11499C55.4539 8.04345 55.5146 7.98811 55.589 7.96095C55.6634 7.93379 55.7455 7.93698 55.8175 7.96985C55.8895 8.00271 55.9457 8.0626 55.9739 8.13656C56.0021 8.21051 56 8.29258 55.9681 8.36501C55.8334 8.65954 55.7103 8.96342 55.6016 9.26816C55.5807 9.3263 55.5423 9.37658 55.4918 9.41218C55.4412 9.44778 55.3809 9.46698 55.3191 9.46716L55.318 9.46829ZM56.471 7.11262C56.417 7.11251 56.3641 7.09793 56.3177 7.0704C56.2713 7.04287 56.2332 7.00341 56.2072 6.95612C56.1813 6.90883 56.1685 6.85546 56.1703 6.80156C56.172 6.74767 56.1882 6.69523 56.2171 6.64971C56.4007 6.36227 56.5989 6.07936 56.806 5.80865C56.8546 5.74523 56.9263 5.70369 57.0055 5.69316C57.0848 5.68264 57.1649 5.70399 57.2284 5.75252C57.2918 5.80105 57.3334 5.87278 57.3439 5.95194C57.3544 6.0311 57.3331 6.11119 57.2845 6.17461C57.0877 6.43172 56.8993 6.70045 56.7252 6.97372C56.6979 7.01598 56.6604 7.05073 56.6162 7.0748C56.572 7.09886 56.5225 7.11148 56.4721 7.11149L56.471 7.11262ZM58.1204 5.07331C58.0608 5.07327 58.0024 5.05549 57.9528 5.02225C57.9033 4.98901 57.8647 4.94179 57.842 4.8866C57.8194 4.83141 57.8136 4.77074 57.8255 4.71227C57.8374 4.65381 57.8664 4.6002 57.9088 4.55824C58.1511 4.31899 58.4069 4.08711 58.669 3.86855C58.6993 3.84235 58.7345 3.82244 58.7725 3.80998C58.8106 3.79753 58.8507 3.79278 58.8906 3.79601C58.9305 3.79924 58.9694 3.8104 59.005 3.82881C59.0405 3.84723 59.072 3.87255 59.0977 3.90328C59.1233 3.93401 59.1426 3.96954 59.1543 4.0078C59.166 4.04605 59.17 4.08626 59.166 4.12608C59.162 4.16589 59.1502 4.20451 59.1311 4.23968C59.112 4.27485 59.086 4.30586 59.0548 4.3309C58.8055 4.53868 58.5624 4.75923 58.3321 4.98629C58.276 5.0415 58.2003 5.07236 58.1216 5.07218L58.1204 5.07331ZM60.1803 3.44929C60.1149 3.44928 60.0513 3.42798 59.999 3.38862C59.9468 3.34925 59.9088 3.29396 59.8908 3.2311C59.8728 3.16824 59.8757 3.10123 59.8992 3.0402C59.9227 2.97918 59.9654 2.92744 60.0209 2.89283C60.3105 2.71283 60.6115 2.54303 60.9153 2.38853C60.9855 2.35827 61.0646 2.35583 61.1366 2.38171C61.2085 2.40759 61.2679 2.45986 61.3028 2.52791C61.3376 2.59595 61.3452 2.67468 61.3241 2.74814C61.303 2.82159 61.2547 2.88426 61.189 2.92345C60.9002 3.07029 60.6146 3.23159 60.338 3.40252C60.2911 3.43196 60.2369 3.44776 60.1815 3.44816L60.1803 3.44929ZM71.2164 2.73267C71.1733 2.73228 71.1309 2.72261 71.0919 2.70432C70.7975 2.57052 70.4928 2.4492 70.187 2.33949C70.1123 2.31246 70.0513 2.25698 70.0174 2.18517C69.9834 2.11336 69.9793 2.03105 70.0058 1.9562C70.0324 1.88135 70.0875 1.82003 70.1591 1.78562C70.2307 1.75121 70.3131 1.74651 70.3881 1.77254C70.7101 1.88593 71.0309 2.01577 71.3409 2.15637C71.4036 2.1848 71.4546 2.23383 71.4855 2.29529C71.5165 2.35674 71.5254 2.42692 71.5108 2.49415C71.4963 2.56138 71.4591 2.6216 71.4056 2.66479C71.352 2.70798 71.2852 2.73153 71.2164 2.73154V2.73267ZM62.5477 2.32277C62.4764 2.32276 62.4075 2.2975 62.3531 2.25149C62.2987 2.20547 62.2624 2.14168 62.2506 2.07144C62.2389 2.00121 62.2524 1.92908 62.2888 1.86786C62.3252 1.80665 62.3822 1.76032 62.4496 1.73711C62.7718 1.62599 63.102 1.52762 63.4333 1.44485C63.472 1.43394 63.5126 1.4309 63.5525 1.43592C63.5925 1.44095 63.631 1.45393 63.6659 1.47409C63.7007 1.49426 63.7312 1.52121 63.7555 1.55334C63.7797 1.58547 63.7973 1.62214 63.8071 1.66117C63.8169 1.7002 63.8188 1.74081 63.8127 1.78058C63.8065 1.82036 63.7924 1.85849 63.7713 1.89274C63.7501 1.92699 63.7223 1.95665 63.6895 1.97998C63.6567 2.0033 63.6195 2.0198 63.5802 2.02852C63.2662 2.10733 62.9519 2.20087 62.6458 2.30633C62.6145 2.31662 62.5818 2.32179 62.5488 2.32163L62.5477 2.32277ZM68.7205 1.9242C68.7004 1.92417 68.6802 1.92217 68.6604 1.91825C68.343 1.85362 68.0188 1.80203 67.696 1.76461C67.6166 1.75536 67.5442 1.71498 67.4946 1.65236C67.445 1.58973 67.4224 1.50999 67.4316 1.43068C67.4409 1.35136 67.4813 1.27896 67.544 1.22942C67.6066 1.17987 67.6864 1.15723 67.7658 1.16648C68.1047 1.20616 68.4465 1.26031 68.7798 1.32806C68.8522 1.34367 68.9163 1.38538 68.9598 1.44521C69.0034 1.50504 69.0234 1.5788 69.016 1.65242C69.0086 1.72604 68.9743 1.79436 68.9197 1.84434C68.8651 1.89431 68.794 1.92244 68.72 1.92335L68.7205 1.9242ZM65.1074 1.75412C65.0303 1.75407 64.9561 1.72447 64.9002 1.67142C64.8443 1.61837 64.8108 1.54592 64.8068 1.46897C64.8027 1.39202 64.8283 1.31644 64.8783 1.25779C64.9283 1.19915 64.9989 1.1619 65.0756 1.15372C65.4143 1.11772 65.7589 1.09561 66.1004 1.08881H66.1067C66.1851 1.09026 66.2598 1.12218 66.315 1.1778C66.3702 1.23342 66.4015 1.30835 66.4023 1.38668C66.4031 1.46502 66.3734 1.54058 66.3193 1.59733C66.2653 1.65408 66.1913 1.68755 66.1129 1.69062C65.7887 1.69742 65.4605 1.71897 65.1394 1.7527C65.1291 1.75294 65.1188 1.75265 65.1085 1.75185L65.1074 1.75412Z" fill="#91B3FA"/>
<path opacity="0.3" d="M73.0557 3.77698C72.9947 3.77678 72.9354 3.75798 72.8855 3.72308C72.7581 3.63458 72.6265 3.54694 72.4948 3.46297C72.4301 3.41895 72.385 3.35142 72.3691 3.27472C72.3533 3.19801 72.368 3.11815 72.41 3.05208C72.4521 2.98601 72.5182 2.93891 72.5944 2.92078C72.6706 2.90265 72.7509 2.91491 72.8182 2.95495C72.9569 3.04317 73.0954 3.13536 73.2295 3.22868C73.2821 3.26536 73.3216 3.31787 73.3423 3.37856C73.363 3.43925 73.3638 3.50496 73.3445 3.56612C73.3253 3.62729 73.2871 3.68072 73.2354 3.71864C73.1836 3.75656 73.1212 3.777 73.0571 3.77698H73.0557Z" fill="#91B3FA"/>
</g>
<g opacity="0.3">
<path opacity="0.3" d="M77.9484 11.5417C77.8768 11.5416 77.8076 11.5161 77.7532 11.4696C77.6988 11.4231 77.6627 11.3588 77.6513 11.2882C77.6267 11.135 77.5986 10.9795 77.5662 10.8266C77.5503 10.7483 77.5662 10.6669 77.6103 10.6003C77.6544 10.5336 77.7232 10.4873 77.8016 10.4714C77.8799 10.4555 77.9613 10.4713 78.0279 10.5154C78.0946 10.5596 78.1409 10.6283 78.1569 10.7067C78.1895 10.8681 78.219 11.0314 78.2451 11.1929C78.2577 11.2718 78.2384 11.3524 78.1916 11.4172C78.1447 11.4819 78.0741 11.5254 77.9952 11.5381C77.9797 11.5405 77.964 11.5417 77.9484 11.5417Z" fill="#91B3FA"/>
<path opacity="0.3" d="M66.3799 25.1271C66.2415 25.1271 66.1024 25.1248 65.9626 25.12C65.8828 25.1173 65.8073 25.083 65.7527 25.0247C65.6981 24.9663 65.669 24.8887 65.6717 24.8089C65.6744 24.7291 65.7088 24.6537 65.7671 24.5991C65.8255 24.5446 65.9032 24.5155 65.983 24.5182C66.305 24.529 66.6269 24.5267 66.9432 24.5111C66.9827 24.5093 67.0222 24.5152 67.0595 24.5286C67.0967 24.542 67.1309 24.5626 67.1602 24.5892C67.1894 24.6158 67.2132 24.6479 67.23 24.6837C67.2469 24.7195 67.2565 24.7582 67.2584 24.7977C67.2602 24.8372 67.2543 24.8767 67.2409 24.9139C67.2275 24.9511 67.2069 24.9853 67.1802 25.0146C67.1536 25.0438 67.1215 25.0675 67.0857 25.0844C67.0499 25.1012 67.0111 25.1108 66.9716 25.1127C66.777 25.122 66.5784 25.1271 66.3799 25.1271ZM64.381 24.957C64.3638 24.9571 64.3468 24.9556 64.3299 24.9525C63.9986 24.8958 63.6661 24.8247 63.3416 24.7408C63.3034 24.7309 63.2674 24.7135 63.2359 24.6897C63.2043 24.6659 63.1777 24.6362 63.1577 24.6021C63.1376 24.5681 63.1245 24.5304 63.119 24.4913C63.1135 24.4522 63.1157 24.4123 63.1256 24.3741C63.1356 24.3358 63.1529 24.2999 63.1767 24.2684C63.2005 24.2368 63.2303 24.2102 63.2644 24.1902C63.2984 24.1702 63.3361 24.157 63.3753 24.1515C63.4144 24.146 63.4543 24.1483 63.4926 24.1582C63.8006 24.2379 64.1166 24.3053 64.4315 24.3592C64.5059 24.3718 64.5729 24.412 64.6191 24.4716C64.6654 24.5313 64.6875 24.6061 64.6812 24.6813C64.6748 24.7565 64.6404 24.8266 64.5848 24.8777C64.5292 24.9287 64.4565 24.9571 64.381 24.957ZM68.5464 24.9242C68.4716 24.9238 68.3996 24.8956 68.3444 24.8451C68.2892 24.7946 68.2548 24.7254 68.2479 24.6509C68.241 24.5764 68.2621 24.502 68.307 24.4422C68.352 24.3824 68.4176 24.3415 68.4911 24.3274C68.8031 24.2688 69.1183 24.1956 69.4258 24.1103C69.4642 24.0986 69.5046 24.0948 69.5445 24.0989C69.5845 24.1031 69.6232 24.1152 69.6584 24.1345C69.6936 24.1539 69.7246 24.18 69.7495 24.2115C69.7745 24.243 69.7929 24.2791 69.8036 24.3178C69.8143 24.3565 69.8172 24.3969 69.8121 24.4368C69.807 24.4766 69.7939 24.515 69.7738 24.5497C69.7536 24.5844 69.7266 24.6147 69.6945 24.6389C69.6624 24.663 69.6258 24.6805 69.5869 24.6903C69.2629 24.7802 68.9319 24.857 68.6026 24.9191C68.584 24.9228 68.5651 24.9249 68.5461 24.9253L68.5464 24.9242ZM61.8987 24.2438C61.8598 24.2435 61.8212 24.2357 61.7852 24.2209C61.4749 24.093 61.166 23.9504 60.8679 23.7971C60.7993 23.7592 60.7482 23.6961 60.7254 23.6212C60.7026 23.5463 60.7099 23.4655 60.7457 23.3959C60.7815 23.3262 60.8431 23.2733 60.9173 23.2483C60.9916 23.2233 61.0726 23.2281 61.1433 23.2619C61.427 23.4076 61.7197 23.5431 62.0147 23.6644C62.0791 23.6909 62.1323 23.7389 62.1653 23.8002C62.1983 23.8615 62.209 23.9323 62.1957 24.0006C62.1823 24.0689 62.1456 24.1305 62.092 24.1748C62.0383 24.2191 61.9709 24.2435 61.9013 24.2438H61.8987ZM71.0139 24.1687C70.9446 24.1688 70.8774 24.1449 70.8236 24.1012C70.7698 24.0575 70.7327 23.9966 70.7187 23.9287C70.7046 23.8609 70.7144 23.7902 70.7464 23.7288C70.7784 23.6673 70.8306 23.6187 70.8942 23.5913C71.1861 23.4651 71.4769 23.3248 71.7583 23.174C71.8283 23.1401 71.9088 23.1346 71.9828 23.1586C72.0568 23.1827 72.1186 23.2344 72.1553 23.3031C72.192 23.3717 72.2007 23.4518 72.1795 23.5267C72.1584 23.6015 72.1091 23.6653 72.0419 23.7046C71.7458 23.8634 71.4397 24.0111 71.1322 24.1438C71.0949 24.1607 71.0546 24.1699 71.0137 24.1707L71.0139 24.1687ZM73.2548 22.8911C73.1912 22.891 73.1293 22.8709 73.0778 22.8335C73.0264 22.7962 72.9881 22.7435 72.9684 22.683C72.9488 22.6226 72.9488 22.5575 72.9684 22.497C72.9881 22.4366 73.0264 22.3839 73.0778 22.3465C73.3357 22.1591 73.5884 21.9587 73.8301 21.7512C73.8599 21.7244 73.8947 21.7039 73.9326 21.6907C73.9705 21.6775 74.0106 21.6721 74.0506 21.6746C74.0906 21.6771 74.1297 21.6876 74.1656 21.7055C74.2015 21.7233 74.2334 21.7481 74.2596 21.7784C74.2858 21.8088 74.3057 21.844 74.318 21.8821C74.3304 21.9202 74.3351 21.9604 74.3317 22.0003C74.3283 22.0402 74.317 22.0791 74.2984 22.1146C74.2799 22.1501 74.2544 22.1815 74.2235 22.2071C73.9696 22.4259 73.7033 22.6368 73.4318 22.8341C73.3807 22.8719 73.3189 22.8926 73.2554 22.8931L73.2548 22.8911ZM75.1647 21.1554C75.1067 21.1553 75.05 21.1385 75.0013 21.1071C74.9526 21.0756 74.9141 21.0308 74.8903 20.9779C74.8665 20.9251 74.8584 20.8666 74.8671 20.8093C74.8758 20.752 74.9008 20.6984 74.9392 20.655C75.1505 20.4158 75.3539 20.1652 75.5439 19.9098C75.5933 19.8507 75.6634 19.8127 75.7399 19.8037C75.8164 19.7947 75.8935 19.8154 75.9552 19.8614C76.017 19.9074 76.0588 19.9754 76.0719 20.0512C76.0851 20.1271 76.0687 20.2051 76.0261 20.2692C75.8259 20.5379 75.612 20.8019 75.3896 21.0536C75.3617 21.0858 75.3272 21.1116 75.2886 21.1295C75.2499 21.1474 75.2078 21.1569 75.1652 21.1573L75.1647 21.1554ZM76.6504 19.0449C76.5982 19.0448 76.5468 19.031 76.5015 19.0051C76.4561 18.9792 76.4182 18.9419 76.3916 18.8969C76.365 18.8519 76.3506 18.8008 76.3497 18.7486C76.3488 18.6964 76.3616 18.6448 76.3866 18.599C76.5404 18.3195 76.6839 18.0303 76.8121 17.7395C76.8446 17.6666 76.9046 17.6095 76.9792 17.5808C77.0161 17.5666 77.0554 17.5599 77.0949 17.5609C77.1345 17.5619 77.1734 17.5706 77.2095 17.5867C77.2457 17.6027 77.2783 17.6257 77.3055 17.6544C77.3327 17.683 77.3541 17.7167 77.3683 17.7536C77.3825 17.7905 77.3893 17.8298 77.3883 17.8693C77.3873 17.9088 77.3785 17.9477 77.3624 17.9838C77.2263 18.2903 77.0754 18.5947 76.9134 18.8887C76.8878 18.9361 76.85 18.9758 76.8039 19.0037C76.7577 19.0315 76.7049 19.0464 76.651 19.0469L76.6504 19.0449ZM77.6364 16.6589C77.5897 16.6589 77.5437 16.6482 77.5019 16.6274C77.4601 16.6066 77.4237 16.5764 77.3956 16.5391C77.3675 16.5018 77.3485 16.4586 77.34 16.4127C77.3316 16.3668 77.3339 16.3196 77.3468 16.2748C77.435 15.9689 77.511 15.6557 77.5737 15.3427C77.5904 15.2654 77.6367 15.1978 77.7028 15.1544C77.7689 15.111 77.8494 15.0953 77.927 15.1107C78.0045 15.1261 78.0729 15.1714 78.1174 15.2367C78.1618 15.3021 78.1788 15.3823 78.1646 15.4601C78.0991 15.7895 78.0191 16.1194 77.9263 16.4412C77.9086 16.5042 77.8707 16.5598 77.8185 16.5995C77.7663 16.6391 77.7026 16.6607 77.637 16.6609L77.6364 16.6589ZM78.0735 14.1167H78.0551C78.0156 14.1143 77.977 14.1041 77.9415 14.0868C77.9059 14.0695 77.8741 14.0454 77.8479 14.0158C77.8217 13.9862 77.8016 13.9518 77.7887 13.9144C77.7758 13.877 77.7704 13.8375 77.7729 13.798C77.787 13.5636 77.7944 13.3263 77.7944 13.0922C77.7944 13.0071 77.7944 12.9221 77.7916 12.8385C77.7904 12.759 77.8208 12.6822 77.8761 12.625C77.9314 12.5678 78.007 12.5348 78.0866 12.5332C78.1262 12.5319 78.1657 12.5385 78.2028 12.5527C78.2398 12.5669 78.2737 12.5883 78.3023 12.6157C78.331 12.6431 78.3539 12.6759 78.3697 12.7123C78.3855 12.7486 78.3939 12.7878 78.3944 12.8274C78.3961 12.9164 78.3972 13.0052 78.3972 13.0945C78.3972 13.3408 78.3895 13.5905 78.3745 13.8369C78.3696 13.9132 78.3358 13.9848 78.28 14.0371C78.2242 14.0894 78.1506 14.1186 78.0741 14.1187L78.0735 14.1167Z" fill="#91B3FA"/>
<path opacity="0.3" d="M59.6289 23.0007C59.567 23.0008 59.5065 22.9817 59.4559 22.946C59.3226 22.8524 59.1887 22.7539 59.0588 22.6538C58.9973 22.6046 58.9575 22.5332 58.948 22.4551C58.9385 22.3769 58.96 22.2981 59.0078 22.2355C59.0557 22.173 59.1262 22.1317 59.2042 22.1205C59.2822 22.1093 59.3614 22.1291 59.425 22.1756C59.5492 22.2709 59.6766 22.3642 59.8031 22.4533C59.8554 22.4901 59.8946 22.5427 59.915 22.6033C59.9354 22.6639 59.9361 22.7294 59.9167 22.7904C59.8974 22.8514 59.8592 22.9046 59.8076 22.9424C59.756 22.9802 59.6938 23.0007 59.6298 23.0007H59.6289Z" fill="#91B3FA"/>
</g>
<path d="M60.0348 19.5092C60.0534 19.5318 60.0785 19.548 60.1067 19.5557C60.1349 19.5634 60.1648 19.5622 60.1922 19.5523L61.8003 18.9616C62.4424 19.4564 63.1609 19.8433 63.9276 20.1071L64.3196 21.7728C64.3265 21.8012 64.342 21.8268 64.364 21.8461C64.3859 21.8654 64.4134 21.8774 64.4425 21.8805L66.487 22.0874C66.5161 22.0902 66.5454 22.0839 66.5708 22.0694C66.5962 22.0548 66.6165 22.0328 66.6288 22.0064L67.3473 20.4535C68.1519 20.3489 68.9339 20.1138 69.6628 19.7576L71.1193 20.6587C71.1443 20.674 71.1733 20.6812 71.2025 20.6793C71.2317 20.6774 71.2596 20.6666 71.2824 20.6482L72.8745 19.3496C72.8971 19.331 72.9134 19.3059 72.9211 19.2777C72.9288 19.2495 72.9276 19.2195 72.9177 19.192L72.3265 17.5853C72.8218 16.9432 73.209 16.2246 73.4728 15.4578L75.1395 15.0658C75.1679 15.0589 75.1936 15.0435 75.2129 15.0215C75.2322 14.9995 75.2442 14.9721 75.2473 14.943L75.4543 12.9C75.4571 12.8709 75.4508 12.8417 75.4363 12.8163C75.4217 12.791 75.3997 12.7707 75.3732 12.7583L73.8194 12.0406C73.7151 11.2367 73.4804 10.4552 73.1244 9.72684L74.0262 8.27092C74.0415 8.24599 74.0487 8.21694 74.0468 8.18776C74.0449 8.15858 74.034 8.13069 74.0157 8.10792L72.7163 6.51707C72.6978 6.49432 72.6727 6.47792 72.6445 6.47019C72.6163 6.46246 72.5863 6.46378 72.5588 6.47398L70.9508 7.06474C70.3083 6.56976 69.5892 6.18284 68.822 5.91922L68.43 4.25353C68.4232 4.22511 68.4077 4.1995 68.3857 4.18021C68.3637 4.16093 68.3363 4.14891 68.3072 4.14581L66.2626 3.93887C66.2336 3.9361 66.2043 3.94237 66.1789 3.95683C66.1536 3.97129 66.1333 3.99324 66.1208 4.01966L65.4026 5.57282C64.598 5.67733 63.8158 5.9123 63.0869 6.26846L61.6301 5.3673C61.6051 5.35202 61.576 5.34483 61.5468 5.3467C61.5177 5.34858 61.4897 5.35944 61.467 5.37779L59.8751 6.67638C59.8526 6.69497 59.8364 6.72006 59.8286 6.74822C59.8209 6.77639 59.8221 6.80624 59.832 6.83371L60.4231 8.44044C59.9279 9.08213 59.5408 9.80024 59.2769 10.5665L57.6102 10.9583C57.5817 10.9651 57.5561 10.9806 57.5368 11.0026C57.5175 11.0245 57.5055 11.0519 57.5024 11.081L57.2953 13.1243C57.2926 13.1534 57.2989 13.1826 57.3134 13.208C57.3279 13.2334 57.3499 13.2536 57.3764 13.266L58.9303 13.9841C59.035 14.7881 59.2702 15.5697 59.6266 16.298L58.7249 17.7537C58.7096 17.7786 58.7024 17.8077 58.7043 17.8368C58.7062 17.866 58.717 17.8939 58.7354 17.9167L60.0348 19.5092Z" fill="#91B3FA"/>
<path d="M66.3742 15.0771C65.8394 15.0768 65.3256 14.8693 64.9408 14.4982C64.556 14.1271 64.3302 13.6214 64.3108 13.0873C64.2914 12.5533 64.4801 12.0325 64.837 11.6346C65.1939 11.2366 65.6913 10.9925 66.2247 10.9536C66.758 10.9146 67.2856 11.0838 67.6967 11.4257C68.1077 11.7675 68.3701 12.2553 68.4287 12.7865C68.4872 13.3177 68.3374 13.8509 68.0107 14.274C67.684 14.697 67.2058 14.977 66.6768 15.055C66.5766 15.0698 66.4754 15.0772 66.3742 15.0771ZM66.379 11.43C66.0557 11.4293 65.7399 11.5274 65.4741 11.7113C65.2083 11.8951 65.0051 12.1559 64.8919 12.4585C64.7787 12.7612 64.7608 13.0912 64.8407 13.4042C64.9207 13.7173 65.0945 13.9984 65.339 14.2098C65.5835 14.4212 65.8868 14.5528 66.2083 14.5869C66.5298 14.621 66.854 14.556 67.1374 14.4006C67.4209 14.2452 67.6499 14.0068 67.7938 13.7175C67.9377 13.4282 67.9896 13.1018 67.9425 12.7821C67.8871 12.4069 67.6989 12.0641 67.4119 11.8159C67.125 11.5678 66.7584 11.4308 66.379 11.43Z" fill="#BDD0FB"/>
<path d="M66.4164 18.0587C66.2423 18.0588 66.0683 18.05 65.8951 18.0323C65.8404 18.0269 65.7857 18.0204 65.7308 18.0131C65.462 17.9776 65.1964 17.9207 64.9366 17.843L64.9258 17.8399L64.8961 17.8305L64.8376 17.8121C64.8136 17.8043 64.7926 17.7892 64.7776 17.7688C64.7627 17.7485 64.7545 17.7239 64.7542 17.6987C64.7543 17.686 64.7563 17.6734 64.7602 17.6613C64.7701 17.631 64.7917 17.6058 64.8201 17.5913C64.8485 17.5768 64.8815 17.5741 64.9119 17.5839C65.8535 17.8886 66.8659 17.8977 67.8128 17.61C68.7598 17.3222 69.5958 16.7515 70.2083 15.9746C70.7786 15.2533 71.1299 14.3836 71.2204 13.4687C71.2372 13.3036 71.2457 13.1377 71.2456 12.9718C71.2431 11.7754 70.7969 10.6225 69.9933 9.73586C69.1896 8.84918 68.0857 8.29169 66.8947 8.17113C64.2394 7.9024 61.8624 9.84164 61.5938 12.4941C61.505 13.3639 61.6542 14.2415 62.0255 15.0332C62.0329 15.0493 62.0368 15.0668 62.0368 15.0845C62.0367 15.1118 62.0273 15.1382 62.0101 15.1595C61.993 15.1808 61.9691 15.1956 61.9425 15.2015C61.9158 15.2074 61.8879 15.2041 61.8634 15.1921C61.8388 15.1802 61.8191 15.1602 61.8074 15.1355C61.4917 14.4631 61.328 13.7295 61.328 12.9868C61.328 12.8149 61.3366 12.6431 61.3538 12.472C61.6375 9.68715 64.1336 7.65294 66.9188 7.9333C68.1689 8.0602 69.3276 8.64561 70.171 9.57643C71.0145 10.5072 71.4828 11.7174 71.4856 12.9732C71.4856 13.1474 71.4767 13.3215 71.4589 13.4948C71.3322 14.7443 70.7464 15.9025 69.8148 16.7455C68.8832 17.5884 67.672 18.0563 66.4153 18.0587H66.4164Z" fill="#BDD0FB"/>
<g opacity="0.3">
<path opacity="0.3" d="M44.4251 22.5738C44.3849 22.5739 44.3458 22.5609 44.3136 22.5368C44.2815 22.5127 44.258 22.4788 44.2467 22.4402C44.2022 22.2885 44.1616 22.1336 44.1262 21.9796C44.1207 21.9558 44.12 21.9311 44.1241 21.907C44.1281 21.8829 44.1369 21.8599 44.1499 21.8392C44.1629 21.8185 44.1798 21.8005 44.1997 21.7864C44.2197 21.7722 44.2422 21.7621 44.266 21.7567C44.2898 21.7512 44.3145 21.7505 44.3386 21.7546C44.3627 21.7586 44.3857 21.7674 44.4064 21.7804C44.4271 21.7934 44.4451 21.8103 44.4592 21.8302C44.4734 21.8502 44.4835 21.8727 44.4889 21.8965C44.5224 22.0431 44.5613 22.1909 44.6024 22.3356C44.6106 22.3633 44.6122 22.3926 44.6071 22.421C44.602 22.4495 44.5904 22.4764 44.573 22.4995C44.5557 22.5227 44.5332 22.5415 44.5073 22.5544C44.4814 22.5673 44.4529 22.5739 44.424 22.5738H44.4251Z" fill="#91B3FA"/>
<path opacity="0.3" d="M44.1503 21.1702C44.1042 21.1701 44.0598 21.1529 44.0257 21.122C43.9915 21.0912 43.97 21.0487 43.9653 21.0029C43.9378 20.7316 43.9239 20.459 43.9239 20.1862C43.9239 20.1296 43.9239 20.0729 43.9256 20.0142C43.9283 19.9654 43.9494 19.9195 43.9847 19.8857C44.02 19.8519 44.0668 19.8328 44.1157 19.8322C44.165 19.8332 44.2118 19.8538 44.246 19.8893C44.2801 19.9249 44.2988 19.9726 44.2978 20.0218C44.2978 20.0768 44.2958 20.1318 44.2958 20.1862C44.2958 20.4464 44.3091 20.7064 44.3355 20.9652C44.338 20.9895 44.3357 21.0141 44.3287 21.0375C44.3217 21.0609 44.3101 21.0827 44.2947 21.1016C44.2793 21.1206 44.2602 21.1363 44.2387 21.1478C44.2172 21.1594 44.1936 21.1666 44.1693 21.1691C44.163 21.1696 44.1565 21.1702 44.1503 21.1702ZM44.1911 19.2403C44.1822 19.2403 44.1733 19.2397 44.1644 19.2386C44.1402 19.2351 44.117 19.2269 44.0959 19.2144C44.0749 19.202 44.0566 19.1855 44.0419 19.1659C44.0273 19.1464 44.0166 19.1241 44.0106 19.1004C44.0046 19.0768 44.0032 19.0521 44.0067 19.028C44.0538 18.7012 44.1209 18.3776 44.2076 18.059C44.2205 18.0115 44.2519 17.971 44.2948 17.9465C44.3376 17.922 44.3884 17.9155 44.436 17.9285C44.4837 17.9415 44.5242 17.9728 44.5487 18.0156C44.5732 18.0585 44.5796 18.1093 44.5667 18.1568C44.4839 18.4607 44.4198 18.7693 44.3749 19.081C44.3686 19.1252 44.3465 19.1656 44.3127 19.1949C44.279 19.2241 44.2358 19.2403 44.1911 19.2403ZM44.6991 17.3781C44.6748 17.3781 44.6508 17.3734 44.6282 17.3642C44.6056 17.3549 44.5851 17.3413 44.5678 17.324C44.5505 17.3067 44.5367 17.2862 44.5274 17.2637C44.518 17.2411 44.5131 17.2169 44.5131 17.1925C44.5131 17.1681 44.5179 17.1439 44.5272 17.1213C44.653 16.8158 44.7977 16.5185 44.9604 16.2309C44.9724 16.2097 44.9885 16.191 45.0078 16.1759C45.027 16.1609 45.0491 16.1498 45.0726 16.1433C45.0962 16.1367 45.1208 16.1349 45.145 16.1379C45.1693 16.1409 45.1927 16.1486 45.214 16.1606C45.2352 16.1726 45.2539 16.1887 45.269 16.208C45.284 16.2272 45.2951 16.2492 45.3017 16.2728C45.3082 16.2963 45.31 16.3209 45.307 16.3451C45.3041 16.3694 45.2963 16.3928 45.2843 16.414C45.1292 16.6882 44.9912 16.9718 44.8713 17.263C44.8572 17.2971 44.8333 17.3262 44.8027 17.3467C44.772 17.3672 44.736 17.3781 44.6991 17.3781ZM45.6497 15.6977C45.6152 15.6977 45.5814 15.6881 45.5521 15.67C45.5228 15.6519 45.4991 15.626 45.4836 15.5952C45.4681 15.5644 45.4615 15.53 45.4645 15.4957C45.4675 15.4614 45.4799 15.4285 45.5005 15.4009C45.6973 15.1357 45.9102 14.8828 46.1381 14.6437C46.155 14.6261 46.1752 14.6119 46.1975 14.602C46.2199 14.5922 46.244 14.5868 46.2684 14.5862C46.2928 14.5857 46.3171 14.5899 46.3399 14.5987C46.3627 14.6076 46.3835 14.6208 46.4012 14.6376C46.4189 14.6545 46.4331 14.6747 46.4429 14.697C46.4528 14.7194 46.4582 14.7434 46.4587 14.7678C46.4593 14.7922 46.4551 14.8165 46.4462 14.8393C46.4374 14.8621 46.4242 14.8829 46.4073 14.9006C46.1899 15.1287 45.9868 15.37 45.7991 15.6231C45.7818 15.6463 45.7592 15.6652 45.7332 15.6781C45.7073 15.691 45.6787 15.6977 45.6497 15.6977ZM46.9828 14.3002C46.9445 14.3002 46.907 14.2884 46.8756 14.2663C46.8442 14.2443 46.8204 14.2131 46.8075 14.177C46.7945 14.1409 46.7931 14.1016 46.8033 14.0647C46.8135 14.0277 46.8349 13.9948 46.8646 13.9705C47.12 13.7613 47.388 13.5678 47.667 13.3911C47.6876 13.3767 47.711 13.3666 47.7356 13.3615C47.7602 13.3563 47.7856 13.3562 47.8103 13.3612C47.835 13.3662 47.8584 13.3761 47.8791 13.3903C47.8998 13.4046 47.9174 13.4229 47.9309 13.4442C47.9443 13.4654 47.9533 13.4892 47.9573 13.514C47.9613 13.5389 47.9602 13.5642 47.9541 13.5886C47.948 13.613 47.937 13.6359 47.9218 13.6559C47.9066 13.676 47.8874 13.6927 47.8656 13.7051C47.5994 13.8738 47.3436 14.0584 47.0997 14.2579C47.0666 14.2852 47.0249 14.3001 46.982 14.3002H46.9828ZM48.6138 13.2683C48.5716 13.2683 48.5306 13.2539 48.4976 13.2275C48.4647 13.2011 48.4417 13.1642 48.4324 13.123C48.4232 13.0818 48.4282 13.0387 48.4468 13.0008C48.4653 12.9628 48.4962 12.9323 48.5344 12.9142C48.833 12.7734 49.1401 12.651 49.4538 12.548C49.5007 12.5326 49.5518 12.5365 49.5958 12.5588C49.6398 12.581 49.6732 12.6199 49.6886 12.6668C49.704 12.7136 49.7001 12.7647 49.6778 12.8087C49.6555 12.8527 49.6167 12.8861 49.5698 12.9015C49.2706 12.9995 48.9779 13.1161 48.6933 13.2504C48.6682 13.2623 48.6408 13.2685 48.613 13.2683H48.6138ZM50.4474 12.6665C50.4011 12.6665 50.3565 12.6493 50.3223 12.6182C50.288 12.5871 50.2666 12.5444 50.2621 12.4983C50.2577 12.4523 50.2706 12.4063 50.2983 12.3692C50.326 12.3322 50.3665 12.3068 50.4119 12.298C50.7362 12.2346 51.0641 12.1913 51.3937 12.1681C51.4429 12.1647 51.4915 12.181 51.5287 12.2134C51.566 12.2457 51.5888 12.2916 51.5922 12.3408C51.5956 12.39 51.5794 12.4385 51.547 12.4757C51.5146 12.513 51.4687 12.5358 51.4195 12.5392C51.1052 12.5611 50.7926 12.6024 50.4834 12.6628C50.4713 12.6652 50.4589 12.6664 50.4465 12.6665H50.4474ZM53.3356 12.643C53.3245 12.643 53.3135 12.642 53.3027 12.6398C53.0329 12.5922 52.7607 12.5589 52.4874 12.5401C52.446 12.5369 52.4052 12.5344 52.3643 12.5324C52.3157 12.529 52.2704 12.5066 52.2381 12.4701C52.2058 12.4336 52.1891 12.3859 52.1917 12.3373C52.1942 12.2886 52.2157 12.2429 52.2516 12.21C52.2875 12.177 52.3349 12.1594 52.3836 12.1611C52.427 12.1633 52.4704 12.1659 52.5141 12.1693C52.8003 12.1891 53.0853 12.224 53.3679 12.2739C53.4131 12.2826 53.4534 12.3078 53.4812 12.3445C53.5089 12.3812 53.522 12.4269 53.518 12.4727C53.5139 12.5185 53.4931 12.5612 53.4594 12.5926C53.4257 12.6239 53.3816 12.6417 53.3356 12.6424V12.643Z" fill="#91B3FA"/>
</g>
<g opacity="0.3">
<path opacity="0.3" d="M52.0673 28.2071C52.0179 28.2074 51.9705 28.1881 51.9354 28.1534C51.9003 28.1188 51.8804 28.0716 51.8801 28.0223C51.8798 27.9729 51.8991 27.9255 51.9338 27.8904C51.9685 27.8553 52.0157 27.8355 52.065 27.8352C52.3748 27.8311 52.6841 27.8084 52.9912 27.7671C53.0156 27.7635 53.0404 27.7647 53.0643 27.7707C53.0883 27.7767 53.1107 27.7875 53.1305 27.8023C53.1502 27.817 53.1668 27.8356 53.1793 27.8569C53.1918 27.8781 53.1999 27.9016 53.2032 27.9261C53.2065 27.9505 53.2049 27.9753 53.1986 27.9991C53.1922 28.023 53.1811 28.0453 53.166 28.0648C53.1509 28.0843 53.1321 28.1006 53.1107 28.1127C53.0892 28.1249 53.0656 28.1327 53.0411 28.1356C52.7191 28.1789 52.3947 28.2027 52.0699 28.2071H52.0673ZM51.1168 28.162C51.1101 28.1624 51.1033 28.1624 51.0966 28.162C50.7735 28.1275 50.4528 28.0735 50.1362 28.0004C50.1119 27.9954 50.0888 27.9856 50.0683 27.9716C50.0479 27.9576 50.0304 27.9396 50.017 27.9187C50.0036 27.8979 49.9945 27.8745 49.9903 27.8501C49.986 27.8256 49.9867 27.8006 49.9923 27.7764C49.9979 27.7523 50.0082 27.7295 50.0228 27.7094C50.0373 27.6892 50.0557 27.6722 50.0769 27.6594C50.0981 27.6465 50.1217 27.638 50.1463 27.6343C50.1708 27.6307 50.1958 27.632 50.2199 27.6381C50.522 27.7077 50.8281 27.7593 51.1364 27.7926C51.1841 27.7972 51.2281 27.82 51.2594 27.8562C51.2907 27.8925 51.3068 27.9394 51.3042 27.9873C51.3017 28.0351 51.2808 28.0801 51.2459 28.1128C51.2109 28.1456 51.1647 28.1636 51.1168 28.1631V28.162ZM53.9496 27.9528C53.9045 27.9527 53.8609 27.9362 53.827 27.9064C53.7932 27.8766 53.7713 27.8355 53.7655 27.7907C53.7597 27.746 53.7704 27.7007 53.7955 27.6632C53.8207 27.6257 53.8586 27.5987 53.9023 27.5871C54.202 27.5082 54.4968 27.4113 54.785 27.2971C54.8305 27.2804 54.8808 27.2821 54.9251 27.3019C54.9694 27.3217 55.0042 27.358 55.0221 27.403C55.0401 27.4481 55.0396 27.4984 55.021 27.5432C55.0023 27.5879 54.9669 27.6236 54.9223 27.6427C54.6202 27.7625 54.3113 27.864 53.997 27.9466C53.9816 27.9512 53.9657 27.9538 53.9496 27.9542V27.9528ZM49.2654 27.7334C49.2436 27.7333 49.222 27.7295 49.2016 27.7221C48.8962 27.6107 48.5979 27.4808 48.3083 27.3331C48.2866 27.322 48.2672 27.3066 48.2514 27.288C48.2356 27.2693 48.2236 27.2478 48.2161 27.2245C48.2086 27.2012 48.2058 27.1767 48.2078 27.1524C48.2098 27.128 48.2166 27.1043 48.2278 27.0825C48.239 27.0608 48.2543 27.0415 48.273 27.0257C48.2916 27.0098 48.3132 26.9979 48.3365 26.9904C48.3598 26.9829 48.3843 26.9801 48.4087 26.9821C48.433 26.9841 48.4568 26.9909 48.4785 27.002C48.7544 27.1427 49.0386 27.2665 49.3295 27.3728C49.3705 27.3878 49.405 27.4168 49.4268 27.4547C49.4486 27.4925 49.4563 27.5368 49.4487 27.5798C49.4411 27.6228 49.4186 27.6618 49.3851 27.6899C49.3517 27.7179 49.3094 27.7334 49.2657 27.7334H49.2654ZM55.7142 27.2515C55.6729 27.2514 55.6328 27.2377 55.6003 27.2123C55.5677 27.187 55.5444 27.1516 55.5342 27.1116C55.5239 27.0717 55.5273 27.0294 55.5437 26.9916C55.5601 26.9537 55.5887 26.9224 55.6249 26.9025C55.8968 26.754 56.1596 26.5891 56.4117 26.409C56.4316 26.3942 56.4542 26.3835 56.4782 26.3776C56.5022 26.3716 56.5272 26.3705 56.5516 26.3743C56.5761 26.3781 56.5995 26.3868 56.6206 26.3998C56.6417 26.4127 56.6599 26.4298 56.6743 26.4499C56.6887 26.47 56.699 26.4928 56.7044 26.5169C56.7099 26.541 56.7105 26.566 56.7062 26.5904C56.7019 26.6147 56.6928 26.638 56.6794 26.6588C56.666 26.6796 56.6486 26.6975 56.6282 26.7115C56.3638 26.9002 56.0884 27.073 55.8033 27.2288C55.776 27.2436 55.7455 27.2514 55.7145 27.2515H55.7142ZM57.2593 26.1476C57.2218 26.1476 57.1852 26.1363 57.1543 26.1152C57.1233 26.0941 57.0995 26.0641 57.0859 26.0292C57.0723 25.9943 57.0695 25.9561 57.078 25.9196C57.0865 25.8832 57.1058 25.8501 57.1333 25.8247C57.3618 25.6153 57.5776 25.3923 57.7795 25.1572C57.8116 25.1196 57.8573 25.0963 57.9066 25.0924C57.9559 25.0884 58.0047 25.1043 58.0423 25.1363C58.0799 25.1684 58.1032 25.2141 58.1072 25.2633C58.1111 25.3126 58.0952 25.3614 58.0632 25.399C57.8516 25.6457 57.6254 25.8794 57.3858 26.0989C57.3513 26.1305 57.3061 26.148 57.2593 26.1476ZM58.4952 24.7053C58.4585 24.7054 58.4226 24.6945 58.3922 24.6741C58.3719 24.6606 58.3544 24.6432 58.3408 24.6229C58.3272 24.6027 58.3177 24.5799 58.3129 24.556C58.3081 24.532 58.3081 24.5074 58.3128 24.4835C58.3176 24.4595 58.327 24.4367 58.3406 24.4164C58.5123 24.1585 58.6682 23.8904 58.8075 23.6136C58.8303 23.5707 58.869 23.5384 58.9153 23.5236C58.9616 23.5089 59.0119 23.5128 59.0554 23.5346C59.0989 23.5565 59.132 23.5944 59.1478 23.6404C59.1636 23.6864 59.1608 23.7367 59.1399 23.7806C58.9939 24.0709 58.8304 24.3521 58.6503 24.6225C58.6332 24.6482 58.61 24.6691 58.5828 24.6836C58.5555 24.698 58.5251 24.7055 58.4943 24.7053H58.4952Z" fill="#91B3FA"/>
<path opacity="0.3" d="M47.5654 26.8658C47.5283 26.8658 47.4921 26.8546 47.4613 26.8338C47.3295 26.7447 47.1999 26.6511 47.0757 26.5558C47.0365 26.5257 47.0109 26.4813 47.0045 26.4323C46.9981 26.3833 47.0114 26.3338 47.0415 26.2947C47.0716 26.2555 47.116 26.2299 47.1649 26.2235C47.2139 26.2171 47.2634 26.2304 47.3025 26.2605C47.4208 26.3513 47.5447 26.4406 47.6712 26.5257C47.7042 26.548 47.7293 26.5803 47.7426 26.618C47.7559 26.6556 47.7568 26.6964 47.7451 26.7346C47.7334 26.7727 47.7097 26.8061 47.6776 26.8298C47.6455 26.8535 47.6067 26.8662 47.5668 26.8661L47.5654 26.8658Z" fill="#91B3FA"/>
</g>
<path d="M47.7199 24.4638C47.7324 24.4789 47.7492 24.4897 47.7682 24.4948C47.7871 24.4999 47.8071 24.4989 47.8254 24.4921L48.9013 24.0953C49.3315 24.426 49.8126 24.6845 50.3259 24.8606L50.5882 25.975C50.5927 25.994 50.6031 26.0112 50.6178 26.0241C50.6326 26.037 50.651 26.045 50.6705 26.047L52.0386 26.1856C52.0581 26.1876 52.0777 26.1834 52.0947 26.1737C52.1118 26.164 52.1254 26.1492 52.1336 26.1314L52.6144 25.0922C53.1527 25.0223 53.6761 24.865 54.1637 24.6265L55.1383 25.2297C55.155 25.24 55.1745 25.2448 55.1941 25.2435C55.2136 25.2423 55.2323 25.235 55.2475 25.2226L56.3129 24.3538C56.3281 24.3413 56.3389 24.3245 56.344 24.3056C56.3491 24.2867 56.3481 24.2667 56.3413 24.2483L55.9456 23.1731C56.2766 22.7433 56.5353 22.2625 56.7115 21.7495L57.8268 21.4873C57.8459 21.4828 57.8631 21.4725 57.876 21.4577C57.8889 21.443 57.8969 21.4246 57.8989 21.4051L58.0376 20.0379C58.0395 20.0184 58.0353 19.9988 58.0256 19.9818C58.0159 19.9648 58.0012 19.9512 57.9834 19.9429L56.9435 19.461C56.8734 18.9231 56.716 18.4001 56.4775 17.9127L57.0808 16.9384C57.0912 16.9218 57.096 16.9024 57.0948 16.8828C57.0935 16.8633 57.0861 16.8447 57.0737 16.8296L56.2043 15.7648C56.1919 15.7497 56.1751 15.7389 56.1562 15.7338C56.1374 15.7287 56.1174 15.7296 56.0991 15.7365L55.0229 16.1334C54.5929 15.8025 54.1117 15.5439 53.5984 15.368L53.336 14.2534C53.3316 14.2343 53.3213 14.2171 53.3066 14.2042C53.2919 14.1913 53.2735 14.1833 53.254 14.1814L51.8857 14.0427C51.8662 14.0409 51.8467 14.0451 51.8297 14.0548C51.8127 14.0644 51.7992 14.0792 51.7909 14.0969L51.3101 15.1361C50.7718 15.2061 50.2485 15.3634 49.7608 15.6018L48.7876 14.9995C48.771 14.9891 48.7515 14.9842 48.732 14.9854C48.7124 14.9867 48.6938 14.9941 48.6787 15.0065L47.6133 15.8754C47.5982 15.8878 47.5873 15.9047 47.5822 15.9236C47.5771 15.9425 47.5781 15.9625 47.5849 15.9808L47.9806 17.0561C47.6496 17.4859 47.3909 17.9667 47.2147 18.4797L46.0997 18.7419C46.0806 18.7463 46.0635 18.7566 46.0505 18.7713C46.0376 18.786 46.0296 18.8043 46.0276 18.8238L45.8889 20.191C45.887 20.2105 45.8911 20.2301 45.9008 20.2471C45.9105 20.2642 45.9253 20.2777 45.9431 20.2859L46.983 20.7679C47.053 21.3059 47.2104 21.8289 47.449 22.3162L46.8454 23.2905C46.8352 23.3072 46.8303 23.3266 46.8316 23.3462C46.8329 23.3657 46.8402 23.3844 46.8525 23.3996L47.7199 24.4638Z" fill="#91B3FA"/>
<path d="M51.9601 21.523C51.5949 21.5228 51.2439 21.3811 50.9811 21.1276C50.7183 20.8742 50.564 20.5288 50.5507 20.1641C50.5374 19.7993 50.6661 19.4436 50.9098 19.1718C51.1535 18.8999 51.4931 18.733 51.8574 18.7063C52.2216 18.6795 52.5821 18.7949 52.863 19.0282C53.1438 19.2615 53.3233 19.5945 53.3635 19.9573C53.4038 20.32 53.3017 20.6843 53.0788 20.9734C52.8559 21.2625 52.5296 21.4541 52.1683 21.5077C52.0994 21.5178 52.0298 21.523 51.9601 21.523ZM51.9638 19.0823C51.9131 19.0824 51.8625 19.086 51.8123 19.0934C51.6776 19.1129 51.548 19.1587 51.4311 19.2284C51.3141 19.298 51.212 19.39 51.1307 19.4991C51.0494 19.6082 50.9904 19.7322 50.9571 19.8642C50.9238 19.9961 50.9169 20.1333 50.9367 20.2679C50.9566 20.4025 51.0028 20.5318 51.0728 20.6485C51.1427 20.7652 51.235 20.867 51.3444 20.948C51.4537 21.0291 51.578 21.0877 51.7101 21.1207C51.8422 21.1536 51.9795 21.1602 52.1141 21.14C52.3727 21.1019 52.6073 20.9675 52.7708 20.7637C52.9342 20.5599 53.0145 20.3019 52.9955 20.0414C52.9765 19.7809 52.8595 19.5372 52.6682 19.3593C52.4768 19.1814 52.2251 19.0825 51.9638 19.0823Z" fill="#BDD0FB"/>
<path d="M51.987 23.5984C51.8692 23.5984 51.7505 23.5924 51.631 23.5805C51.3937 23.557 51.1593 23.5095 50.9315 23.4388L50.9012 23.4288C50.8774 23.4219 50.8552 23.4102 50.836 23.3946C50.8168 23.3789 50.8009 23.3595 50.7893 23.3377C50.7777 23.3158 50.7706 23.2918 50.7684 23.2671C50.7662 23.2424 50.7689 23.2175 50.7765 23.194C50.7841 23.1704 50.7963 23.1485 50.8125 23.1297C50.8286 23.1109 50.8484 23.0955 50.8705 23.0845C50.8927 23.0734 50.9169 23.0669 50.9417 23.0654C50.9664 23.0638 50.9912 23.0672 51.0146 23.0754C51.2267 23.1438 51.4454 23.1896 51.667 23.212L51.7036 23.2154C52.2208 23.2635 52.7417 23.181 53.2187 22.9756C53.4779 22.8637 53.7209 22.7174 53.9412 22.5407L53.9466 22.5365L53.963 22.5229C54.2823 22.2637 54.5471 21.9438 54.7418 21.5816C54.9366 21.2195 55.0575 20.8224 55.0977 20.4132C55.1086 20.3064 55.1141 20.1991 55.1141 20.0918C55.1127 19.2894 54.803 18.5182 54.2489 17.9374C53.6949 17.3566 52.9388 17.0107 52.1369 16.971C51.3349 16.9313 50.5483 17.2009 49.9396 17.7241C49.3308 18.2473 48.9463 18.9842 48.8656 19.7825C48.8547 19.888 48.8493 19.994 48.8494 20.1C48.8492 20.5584 48.9501 21.0111 49.145 21.4261C49.1564 21.4483 49.1632 21.4726 49.165 21.4975C49.1668 21.5224 49.1636 21.5474 49.1555 21.5711C49.1475 21.5947 49.1347 21.6164 49.118 21.635C49.1013 21.6536 49.0811 21.6687 49.0585 21.6793C49.0359 21.6899 49.0113 21.6959 48.9864 21.6968C48.9614 21.6977 48.9365 21.6936 48.9131 21.6847C48.8898 21.6758 48.8685 21.6623 48.8505 21.645C48.8325 21.6277 48.8181 21.607 48.8083 21.584C48.5903 21.1197 48.4772 20.6131 48.4773 20.1003C48.4773 19.9817 48.4832 19.8631 48.4951 19.7451C48.5864 18.8526 49.0168 18.0291 49.6978 17.4444C50.3788 16.8598 51.2583 16.5586 52.1549 16.6029C53.0516 16.6473 53.897 17.0338 54.5169 17.6828C55.1367 18.3318 55.4837 19.1938 55.4863 20.0909C55.4863 20.2111 55.4802 20.3311 55.4681 20.4507C55.3793 21.3123 54.9745 22.1106 54.3318 22.6918C53.689 23.273 52.8538 23.5959 51.987 23.5984Z" fill="#BDD0FB"/>
<path d="M34.5736 77.4075H5.0876V36.3978C5.08768 35.3634 5.49889 34.3714 6.2308 33.64C6.9627 32.9086 7.95535 32.4977 8.99038 32.4977H34.122C35.157 32.4977 36.1497 32.9086 36.8816 33.64C37.6135 34.3714 38.0247 35.3634 38.0248 36.3978V73.9582C38.0249 74.4111 37.9356 74.8597 37.7622 75.2782C37.5888 75.6967 37.3346 76.077 37.0141 76.3973C36.6936 76.7176 36.3132 76.9717 35.8944 77.145C35.4757 77.3183 35.0268 77.4075 34.5736 77.4075Z" fill="#7D97F4"/>
<path d="M1.30054 32.4974H31.9435C32.0941 32.4974 32.2431 32.5271 32.3823 32.5847C32.5214 32.6422 32.6477 32.7266 32.7542 32.833C32.8607 32.9394 32.9451 33.0657 33.0027 33.2048C33.0604 33.3438 33.09 33.4928 33.09 33.6432V77.4073H0.154022V33.6435C0.153985 33.493 0.183613 33.344 0.241215 33.205C0.298816 33.0659 0.383262 32.9396 0.489731 32.8331C0.596199 32.7267 0.722603 32.6423 0.861724 32.5847C1.00085 32.5271 1.14996 32.4974 1.30054 32.4974Z" fill="#91B3FA"/>
<path d="M68.0011 60.5775C68.0011 60.5775 63.7764 59.8688 63.546 59.8688H51.7852C51.407 59.87 51.0447 60.0207 50.7773 60.2879C50.5098 60.5552 50.3591 60.9173 50.3579 61.2953V62.5851C50.3591 62.963 50.5098 63.3252 50.7773 63.5924C51.0447 63.8597 51.407 64.0103 51.7852 64.0115H63.546C63.6549 64.0111 63.7633 63.9982 63.8691 63.973C65.2463 63.7462 66.6237 62.6144 68.0011 60.5775Z" fill="url(#paint1_linear_1227_32472)"/>
<path d="M67.9559 60.7523C83.9855 22.6844 54.2894 22.6515 57.988 58.6767L67.9559 60.7523Z" fill="url(#paint2_linear_1227_32472)"/>
<path d="M66.8521 60.3868C82.8818 21.5925 52.3263 22.6303 56.0251 59.3428L66.8521 60.3868Z" fill="url(#paint3_linear_1227_32472)"/>
<path d="M59.0468 62.9539H57.7979V76.4506H59.0468V62.9539Z" fill="url(#paint4_linear_1227_32472)"/>
<path d="M53.0346 75.8984H63.8043C63.8275 75.8984 63.8497 75.9076 63.8661 75.924C63.8824 75.9404 63.8916 75.9626 63.8916 75.9858V76.7114H52.9534V75.9796C52.9534 75.958 52.962 75.9374 52.9772 75.9222C52.9924 75.907 53.013 75.8984 53.0346 75.8984Z" fill="url(#paint5_linear_1227_32472)"/>
<path d="M51.8001 74.5959C51.8001 74.5959 48.234 77.1647 48.8532 78.8905C48.8532 78.8905 52.7551 77.2081 53.2266 75.8829C53.698 74.5576 53.1466 73.9725 53.1466 73.9725L51.8001 74.5959Z" fill="url(#paint6_linear_1227_32472)"/>
<path d="M52.3371 72.4432L52.92 74.1279C53.0079 74.383 52.92 74.6716 52.6931 74.8153C52.5441 74.9044 52.381 74.9675 52.2109 75.0019C52.0648 75.0355 51.9118 75.0202 51.7753 74.9583C51.6389 74.8964 51.5266 74.7914 51.4558 74.6594L50.7582 73.3469L52.3371 72.4432Z" fill="url(#paint7_linear_1227_32472)"/>
<path d="M58.0122 57.2798C58.0122 57.2798 50.6873 58.5484 47.5452 61.4492C44.4031 64.35 50.4294 73.6027 50.4294 73.6027C50.4294 73.6027 51.4166 73.5964 52.6136 72.5717C52.6136 72.5717 49.0395 65.6126 52.12 63.5835C55.5807 61.3018 59.5715 60.7881 59.5715 60.7881L58.0837 57.5035L58.0122 57.2798Z" fill="url(#paint8_linear_1227_32472)"/>
<path d="M49.4742 77.936C50.2585 77.5731 52.4789 76.02 52.8533 75.9517C53.2278 75.8834 53.8768 76.3227 53.8768 76.3227C53.8768 76.3227 54.0348 76.6062 53.866 77.1017C53.3446 77.7319 52.1873 78.9335 50.6323 79.3811C49.4878 79.7105 48.6873 79.4035 48.1889 79.044C48.4623 78.6265 48.9514 78.1778 49.4742 77.936Z" fill="url(#paint9_linear_1227_32472)"/>
<path d="M50.6315 79.381C52.1871 78.9334 53.3444 77.7317 53.8652 77.1015C53.7517 77.436 53.4876 77.8669 52.9251 78.3721C51.5304 79.6251 48.8663 80.0766 48.299 79.9896C47.8451 79.9199 47.8874 79.5006 48.1875 79.0439C48.6864 79.4048 49.4869 79.7104 50.6315 79.381Z" fill="url(#paint10_linear_1227_32472)"/>
<path d="M54.5417 75.226C54.5329 75.442 54.0912 76.1827 53.8325 76.5982C53.7724 76.6954 53.6885 76.7756 53.5887 76.8313C53.489 76.8871 53.3766 76.9165 53.2623 76.9168C53.1034 76.9196 52.9449 76.9005 52.7912 76.8602C52.6802 76.827 52.587 76.7511 52.532 76.6493C52.477 76.5474 52.4647 76.4279 52.4979 76.317L53.0022 74.5956L54.5417 75.226Z" fill="url(#paint11_linear_1227_32472)"/>
<path d="M65.062 55.0825C65.062 55.0825 66.6887 59.4293 65.062 60.752C63.4353 62.0747 59.5549 63.5621 58.6881 66.1947C57.8213 68.8273 56.3503 73.9443 54.3814 75.7563C54.3814 75.7563 52.9984 75.6225 52.481 75.0717C52.481 75.0717 53.6023 67.4329 54.3417 65.4727C54.9819 63.7752 55.9256 61.3255 57.7336 59.956C58.2513 59.564 58.1611 58.9431 57.9211 58.3402L57.484 57.242L65.062 55.0825Z" fill="url(#paint12_linear_1227_32472)"/>
<path d="M48.0967 51.6755C50.8244 51.84 49.9745 47.4853 49.9252 47.3121L54.0649 50.2352C54.0649 50.2352 53.8459 52.5639 50.404 53.7854C49.5332 54.0947 48.7372 54.1083 48.0338 53.9572C48.2907 53.2215 48.3127 52.4243 48.0967 51.6755Z" fill="url(#paint13_linear_1227_32472)"/>
<path d="M42.823 50.3648C43.8393 49.6584 44.9907 50.3648 44.9907 50.3648C46.3497 51.2532 47.355 51.6308 48.0967 51.6756C48.3125 52.424 48.2905 53.2208 48.0338 53.9561C46.5114 53.629 45.4221 52.528 44.9487 51.9627C44.8672 51.8643 44.7505 51.8015 44.6234 51.7876C44.4963 51.7738 44.3688 51.81 44.2679 51.8885C44.0563 52.0554 43.8509 52.2853 43.8881 52.5249C43.9616 52.9994 43.4104 53.1505 43.369 52.9784C43.3276 52.8064 43.5574 51.7859 43.5574 51.7859C43.5574 51.7859 42.4551 52.8937 42.0256 53.3192C41.5961 53.7447 41.0544 53.3192 41.0544 53.3192C41.0544 53.3192 41.8063 51.0715 42.823 50.3648Z" fill="url(#paint14_linear_1227_32472)"/>
<path d="M60.8146 40.587C60.8146 40.587 56.8466 38.9995 49.462 45.0919C49.462 45.0919 48.8453 46.3675 49.5187 47.5037C50.1921 48.6399 56.6032 54.173 57.4842 57.2419C57.4842 57.2419 61.3042 58.4824 65.2543 55.541C65.2538 55.541 64.9049 47.0003 60.8146 40.587Z" fill="url(#paint15_linear_1227_32472)"/>
<path d="M52.9704 39.1701L54.9237 41.5365C55.0192 41.6513 55.0797 41.791 55.0979 41.9392C55.116 42.0873 55.0911 42.2376 55.0261 42.3719C54.7552 42.9247 54.1118 43.7292 52.685 43.6192C52.4763 43.6029 52.2755 43.5323 52.1026 43.4144C51.9297 43.2965 51.7906 43.1354 51.6993 42.9471L50.3335 40.1254L52.9704 39.1701Z" fill="url(#paint16_linear_1227_32472)"/>
<path d="M63.8868 50.7226C64.3475 48.8477 59.6814 44.6678 59.6814 44.6678L60.816 40.5858C60.816 40.5858 70.8899 47.29 68.3223 52.6802C67.9535 53.4527 67.4654 53.9941 66.8983 54.3561C66.0871 52.1737 64.7942 51.1727 63.8868 50.7226Z" fill="url(#paint17_linear_1227_32472)"/>
<path d="M63.8898 50.4496C63.9146 50.4495 63.9387 50.4411 63.9581 50.4257C63.9775 50.4102 63.9911 50.3887 63.9967 50.3645C64.4679 48.4476 59.9506 44.374 59.7582 44.2014C59.7363 44.183 59.7081 44.1739 59.6795 44.1759C59.651 44.178 59.6243 44.191 59.6052 44.2123C59.5861 44.2336 59.5761 44.2615 59.5771 44.2901C59.5782 44.3187 59.5904 44.3457 59.611 44.3655C59.6573 44.4069 64.2225 48.5225 63.7826 50.3118C63.7756 50.3402 63.7803 50.3702 63.7954 50.3951C63.8106 50.4201 63.835 50.4381 63.8634 50.445C63.872 50.4477 63.8808 50.4492 63.8898 50.4496Z" fill="url(#paint18_linear_1227_32472)"/>
<path d="M56.8207 50.561C56.8207 50.561 62.3519 52.7074 63.703 51.0931C63.7923 50.9854 63.8556 50.8586 63.8879 50.7226C64.7956 51.1727 66.0882 52.1737 66.8994 54.3561C63.99 56.214 59.017 53.3226 57.6722 52.4699C57.4517 52.3296 57.1851 52.2808 56.9291 52.3338C56.4106 52.4413 55.5145 52.5992 55.0314 52.5249C54.3246 52.416 53.3091 54.908 52.1635 54.1393C52.1623 54.1393 53.1435 49.8078 56.8207 50.561Z" fill="url(#paint19_linear_1227_32472)"/>
<path d="M48.7199 35.693C48.7003 35.7693 49.1777 40.9424 49.1777 40.9424L52.1277 40.607L52.404 35.6369C52.404 35.6369 49.0487 34.4202 48.7199 35.693Z" fill="url(#paint20_linear_1227_32472)"/>
<path d="M51.6359 36.6676L51.6954 39.2954C51.6961 39.3288 51.6923 39.3621 51.6841 39.3946C51.6327 39.5944 51.4058 40.2691 50.7293 39.995C50.1155 39.7461 49.5516 39.5281 49.1369 39.6066C49.0472 39.6239 48.9672 39.6737 48.9122 39.7466C48.8573 39.8194 48.8313 39.91 48.8393 40.0009C48.8827 40.4709 49.0004 41.5283 49.243 42.4314C49.2672 42.5197 49.3236 42.5957 49.4011 42.6445C49.4785 42.6933 49.5715 42.7113 49.6616 42.695C50.225 42.5958 51.4072 42.3549 52.3127 41.9359C52.3728 41.9083 52.4244 41.8651 52.4621 41.8107C52.4998 41.7564 52.5222 41.6929 52.5268 41.6269C52.5711 40.9701 52.7126 38.9739 52.8388 38.4237C52.9568 37.9072 53.6331 37.6645 53.9247 37.5826C53.9718 37.5695 54.0158 37.5469 54.0539 37.5163C54.092 37.4856 54.1235 37.4475 54.1465 37.4043C54.3113 37.0948 54.572 36.3657 53.6612 35.9552C53.6161 35.9349 53.5756 35.9058 53.542 35.8695C53.5085 35.8333 53.4826 35.7907 53.4658 35.7442C53.4491 35.6977 53.4418 35.6484 53.4446 35.5991C53.4473 35.5498 53.4599 35.5015 53.4816 35.4572C53.664 35.0833 53.7882 34.4959 53.0936 34.0888C52.3878 33.6747 51.7888 34.0095 51.4552 34.298C51.3894 34.3537 51.3062 34.3845 51.22 34.3853C51.1339 34.386 51.0502 34.3565 50.9835 34.302C50.904 34.2385 50.7957 34.2088 50.6536 34.2771C50.6078 34.2981 50.558 34.3093 50.5076 34.3099C50.4572 34.3106 50.4072 34.3007 50.3609 34.2809C50.3145 34.2612 50.2728 34.2319 50.2384 34.1951C50.204 34.1582 50.1777 34.1146 50.1612 34.067C50.0233 33.6826 49.7039 33.2523 48.9633 33.2971C47.6491 33.3762 47.3465 34.7887 47.5947 35.663C47.8429 36.5372 49.2628 36.3716 50.0037 36.0247C50.5671 35.7619 51.2155 36.1732 51.4938 36.3855C51.5371 36.4189 51.5724 36.4615 51.597 36.5103C51.6216 36.5592 51.6349 36.6129 51.6359 36.6676Z" fill="url(#paint21_linear_1227_32472)"/>
<path d="M52.8496 39.381C52.8496 39.381 52.4809 37.839 53.0669 37.5354C53.6528 37.2318 54.4376 37.5087 54.1421 38.5644C53.7751 39.8771 52.8496 39.381 52.8496 39.381Z" fill="url(#paint22_linear_1227_32472)"/>
<path d="M53.9856 54.7945H53.9589L42.3522 54.7817C42.283 54.7833 42.2141 54.7711 42.1496 54.7457C42.0852 54.7203 42.0265 54.6823 41.9769 54.6339C41.9274 54.5855 41.888 54.5277 41.8611 54.4639C41.8343 54.4 41.8204 54.3315 41.8204 54.2622C41.8204 54.1929 41.8343 54.1244 41.8611 54.0605C41.888 53.9967 41.9274 53.9389 41.9769 53.8905C42.0265 53.8421 42.0852 53.8041 42.1496 53.7787C42.2141 53.7533 42.283 53.7411 42.3522 53.7427L53.9589 53.7555C54.0939 53.7565 54.2231 53.8099 54.3193 53.9045C54.4155 53.9991 54.4712 54.1274 54.4745 54.2623C54.4778 54.3972 54.4285 54.5281 54.3371 54.6273C54.2456 54.7265 54.1192 54.7863 53.9845 54.7939L53.9856 54.7945Z" fill="url(#paint23_linear_1227_32472)"/>
<path d="M31.918 44.2622H41.5844C41.9337 44.2624 42.2757 44.3617 42.5707 44.5486C42.8657 44.7355 43.1014 45.0023 43.2506 45.3179L47.7193 54.7876H35.7068C35.4821 54.7875 35.2627 54.7199 35.077 54.5935C34.8912 54.4671 34.7479 54.2878 34.6655 54.0789L31.2001 45.317C31.1538 45.2 31.1369 45.0735 31.1508 44.9485C31.1647 44.8235 31.2089 44.7037 31.2797 44.5997C31.3505 44.4957 31.4457 44.4106 31.5569 44.3518C31.6682 44.2929 31.7922 44.2622 31.918 44.2622Z" fill="url(#paint24_linear_1227_32472)"/>
<path d="M38.7279 49.1175C38.9375 49.7678 38.7826 50.3994 38.3824 50.5283C37.9822 50.6573 37.4875 50.2352 37.2771 49.5832C37.0666 48.9313 37.2223 48.3014 37.6225 48.1724C38.0228 48.0434 38.5186 48.4672 38.7279 49.1175Z" fill="#7D97F4"/>
<path d="M33.4852 79.6723C33.4191 79.6723 33.3536 79.6592 33.2926 79.6338C33.2344 79.6107 33.1815 79.5761 33.137 79.5322C33.0925 79.4882 33.0572 79.4357 33.0334 79.3779C33.0096 79.3201 32.9977 79.258 32.9983 79.1955C32.999 79.1329 33.0123 79.0712 33.0373 79.0138L43.2666 56.0065C43.3205 55.8903 43.4175 55.7996 43.5371 55.7536C43.6566 55.7075 43.7894 55.7097 43.9074 55.7596C43.9655 55.7827 44.0185 55.8172 44.063 55.8612C44.1075 55.9051 44.1427 55.9576 44.1665 56.0154C44.1904 56.0733 44.2023 56.1353 44.2016 56.1979C44.201 56.2604 44.1877 56.3222 44.1627 56.3795L33.9334 79.3869C33.8942 79.4726 33.8311 79.5452 33.7515 79.5959C33.672 79.6465 33.5795 79.6731 33.4852 79.6723Z" fill="url(#paint25_linear_1227_32472)"/>
<path d="M45.0089 79.6723C44.9146 79.6731 44.8221 79.6466 44.7425 79.5959C44.663 79.5452 44.5999 79.4726 44.5607 79.3869L34.3313 56.3797C34.3063 56.3224 34.293 56.2606 34.2924 56.198C34.2917 56.1355 34.3036 56.0735 34.3275 56.0156C34.3513 55.9578 34.3865 55.9053 34.431 55.8613C34.4755 55.8174 34.5285 55.7828 34.5866 55.7597C34.7046 55.7097 34.8374 55.7075 34.957 55.7535C35.0766 55.7996 35.1736 55.8904 35.2274 56.0066L45.4568 79.0138C45.4818 79.0711 45.4951 79.1329 45.4958 79.1955C45.4964 79.258 45.4845 79.3201 45.4607 79.3779C45.4369 79.4357 45.4016 79.4882 45.3571 79.5322C45.3126 79.5761 45.2597 79.6107 45.2015 79.6338C45.1405 79.6592 45.075 79.6723 45.0089 79.6723Z" fill="url(#paint26_linear_1227_32472)"/>
<path d="M65.1491 79.6723C65.0831 79.6723 65.0177 79.6592 64.9568 79.6338C64.8986 79.6107 64.8456 79.5762 64.8011 79.5322C64.7565 79.4883 64.7213 79.4358 64.6975 79.378C64.6736 79.3201 64.6617 79.258 64.6624 79.1955C64.6631 79.1329 64.6764 79.0711 64.7015 79.0138L74.9306 56.0065C74.9845 55.8903 75.0815 55.7996 75.201 55.7536C75.3206 55.7075 75.4534 55.7097 75.5714 55.7596C75.6295 55.7826 75.6825 55.8172 75.727 55.8611C75.7716 55.9051 75.8068 55.9575 75.8306 56.0154C75.8545 56.0733 75.8664 56.1353 75.8657 56.1979C75.865 56.2604 75.8517 56.3222 75.8266 56.3795L65.5975 79.3869C65.5583 79.4727 65.4951 79.5452 65.4155 79.5959C65.336 79.6465 65.2434 79.6731 65.1491 79.6723Z" fill="url(#paint27_linear_1227_32472)"/>
<path d="M76.6727 79.6723C76.5784 79.673 76.4859 79.6464 76.4063 79.5958C76.3268 79.5451 76.2637 79.4726 76.2245 79.3868L65.9952 56.3797C65.9702 56.3224 65.9569 56.2606 65.9562 56.198C65.9556 56.1355 65.9675 56.0735 65.9913 56.0156C66.0151 55.9578 66.0504 55.9053 66.0949 55.8613C66.1394 55.8174 66.1923 55.7828 66.2505 55.7597C66.3685 55.7097 66.5013 55.7075 66.6209 55.7535C66.7405 55.7996 66.8374 55.8904 66.8913 56.0066L77.1205 79.0138C77.1456 79.0711 77.1588 79.1329 77.1595 79.1954C77.1602 79.258 77.1482 79.32 77.1244 79.3778C77.1006 79.4357 77.0654 79.4881 77.0209 79.5321C76.9763 79.5761 76.9234 79.6106 76.8653 79.6337C76.8042 79.6591 76.7388 79.6722 76.6727 79.6723Z" fill="url(#paint28_linear_1227_32472)"/>
<path d="M77.8726 55.2961C77.8857 55.2223 77.8839 55.1467 77.8672 55.0737C77.8506 55.0007 77.8196 54.9317 77.7759 54.8709C77.7356 54.8139 77.6824 54.7673 77.6207 54.7348C77.559 54.7023 77.4905 54.6848 77.4207 54.6838H30.885C30.7043 54.6838 30.5361 54.7867 30.4388 54.957C30.3908 55.0429 30.3627 55.1384 30.3567 55.2366C30.3507 55.3347 30.367 55.433 30.4042 55.524L30.9085 56.7452C31.024 57.0247 31.2741 57.2039 31.5496 57.2039H77.1019C77.3572 57.2039 77.5782 57.0006 77.627 56.7194L77.8726 55.2961Z" fill="#BDD0FB"/>
<path d="M17.3236 53.2168C17.3236 53.2168 22.2569 44.566 20.7274 43.2776C19.198 41.9892 19.1699 45.7317 18.5507 45.2016C17.9314 44.6715 18.9412 41.5465 18.6661 39.3751C18.391 37.2037 17.7933 34.2986 17.0209 37.2178C16.2485 40.137 16.3455 43.0148 16.0114 41.5266C15.6772 40.0384 14.5242 32.2877 13.0415 34.6008C11.5589 36.9139 11.2471 39.9264 12.7411 41.6811C14.2351 43.4358 16.242 45.3946 13.7753 44.1014C11.3087 42.8082 9.62745 43.3851 12.2657 45.728C12.2657 45.728 16.2332 49.0095 14.5108 48.8555C12.7885 48.7016 10.0461 50.5187 12.8722 51.832C12.8727 51.8314 16.8876 52.4142 17.3236 53.2168Z" fill="#7D97F4"/>
<path d="M15.2741 61.1063C15.2741 61.1063 5.65831 60.6504 6.08379 58.4254C6.50927 56.2004 9.6493 57.6907 11.0446 57.8324C12.4399 57.9741 11.6215 57.0197 8.77735 55.0186C5.93317 53.0176 4.36939 50.0861 7.38008 51.4542C10.3908 52.8222 11.5954 55.3868 11.3915 53.5769C11.1875 51.7669 7.31626 46.6711 10.5907 48.7578C13.8652 50.8444 13.6411 52.7749 13.7393 54.2983C13.8374 55.8217 14.2743 51.3502 15.2994 52.0163C16.3245 52.6825 15.7422 53.3668 15.3754 55.1374C15.0086 56.908 16.0352 55.4807 16.3741 54.8996C16.7131 54.3184 17.5465 55.7123 16.7301 57.6354C15.9138 59.5585 15.2741 61.1063 15.2741 61.1063Z" fill="url(#paint29_linear_1227_32472)"/>
<path d="M17.1891 71.2357C17.1831 71.2407 17.1787 71.2474 17.1766 71.2549C17.1766 71.2549 17.1766 71.2685 17.1766 71.2583L17.178 71.23L17.1834 71.1208L17.1922 70.8975L17.2072 70.4465L17.2302 69.5408L17.2617 67.7265C17.2774 66.517 17.2831 65.3069 17.2787 64.096C17.2717 61.6757 17.2244 59.2562 17.1369 56.8374C17.0888 55.6279 17.0271 54.4199 16.9517 53.2134C16.8714 52.007 16.7741 50.8022 16.651 49.6006C16.5279 48.3989 16.3702 47.2018 16.162 46.0157C15.9464 44.8339 15.6911 43.6521 15.2656 42.5451L15.2634 42.5395C15.2446 42.4877 15.2468 42.4307 15.2695 42.3805C15.2923 42.3303 15.3337 42.291 15.385 42.2709C15.4363 42.2509 15.4935 42.2516 15.5442 42.273C15.595 42.2944 15.6354 42.3348 15.6568 42.3856C16.1174 43.5382 16.3923 44.7344 16.6255 45.9313C16.8524 47.1301 17.0271 48.336 17.1686 49.5439C17.3102 50.7518 17.4239 51.9625 17.5209 53.1723C17.614 54.3837 17.6926 55.5959 17.7567 56.8088C17.8824 59.2342 17.9634 61.6609 17.9998 64.089C18.0202 65.3026 18.0311 66.5165 18.0327 67.7308L18.0259 69.5527L18.0151 70.4649L18.0063 70.9224L18 71.1534L17.9958 71.2714V71.2997C17.9958 71.3085 17.9932 71.3405 17.991 71.3598C17.9862 71.4043 17.9789 71.4485 17.9691 71.4922C17.9521 71.5432 17.9252 71.5904 17.8899 71.6311C17.8546 71.6717 17.8117 71.705 17.7636 71.7291C17.7154 71.7531 17.663 71.7675 17.6093 71.7713C17.5556 71.7751 17.5017 71.7683 17.4506 71.7513C17.3995 71.7343 17.3523 71.7074 17.3116 71.6721C17.271 71.6369 17.2377 71.594 17.2136 71.5459C17.1895 71.4977 17.1752 71.4454 17.1713 71.3917C17.1675 71.338 17.1743 71.2841 17.1913 71.2331L17.1891 71.2357Z" fill="#7D97F4"/>
<path d="M17.1357 71.7019C17.1322 71.7127 17.1307 71.724 17.1312 71.7353C17.131 71.7388 17.131 71.7423 17.1312 71.7458L17.1289 71.7288L17.119 71.6602L17.0974 71.5185L17.052 71.2324L16.957 70.6584L16.7585 69.5101C16.6225 68.7443 16.4807 67.9796 16.333 67.2159C16.0399 65.6882 15.7241 64.1654 15.3856 62.6474C15.0426 61.1311 14.6742 59.6208 14.2479 58.1292C14.0343 57.3836 13.8034 56.6437 13.5444 55.9161C13.2854 55.1884 12.9972 54.4704 12.6245 53.8147L12.6214 53.8093C12.5951 53.761 12.5886 53.7043 12.6035 53.6513C12.6183 53.5984 12.6533 53.5533 12.7009 53.5256C12.7485 53.498 12.805 53.49 12.8584 53.5034C12.9118 53.5168 12.9578 53.5505 12.9868 53.5973C13.3995 54.2892 13.7047 55.0186 13.9875 55.7517C14.2703 56.4847 14.5162 57.2311 14.7479 57.9792C15.2103 59.4759 15.6131 60.9871 15.99 62.504C16.367 64.0209 16.7122 65.5443 17.0395 67.0719C17.2031 67.8356 17.3614 68.6005 17.5144 69.3666L17.739 70.5172L17.8474 71.0944L17.8999 71.385L17.9254 71.5324L17.9379 71.6081L17.941 71.627L17.9467 71.6738C17.9499 71.7092 17.9511 71.7446 17.9503 71.7801C17.9397 71.8883 17.8866 71.9878 17.8026 72.0568C17.7185 72.1257 17.6105 72.1585 17.5023 72.1479C17.3941 72.1373 17.2945 72.0842 17.2255 72.0002C17.1565 71.9163 17.1237 71.8083 17.1343 71.7002L17.1357 71.7019Z" fill="url(#paint30_linear_1227_32472)"/>
<path d="M19.1971 54.9633C19.1971 54.9633 28.9445 53.411 28.0144 51.3453C27.0843 49.2797 24.3774 51.4556 23.0505 51.9165C21.7236 52.3775 21.5344 52.1476 23.8373 49.5422C26.1403 46.9368 26.3548 44.2336 23.742 46.2607C21.1293 48.2878 22.0339 50.1675 21.8132 48.3584C21.5925 46.5493 25.084 39.6476 22.3828 42.4356C19.6815 45.2235 19.3519 47.599 19.6092 49.1014C19.8665 50.6038 18.4051 46.3577 17.5638 47.2427C16.7225 48.1277 17.4464 48.66 18.2136 50.2962C18.9809 51.9324 17.6517 50.7832 17.1871 50.2962C16.7225 49.8092 16.2352 51.3584 17.475 53.0402C18.7148 54.722 19.1971 54.9633 19.1971 54.9633Z" fill="url(#paint31_linear_1227_32472)"/>
<path d="M18.4624 71.4958C18.4531 71.4569 18.4463 71.4174 18.442 71.3776C18.4397 71.3609 18.4374 71.3311 18.4374 71.3246V71.3025L18.4346 71.2132L18.4303 71.0394L18.4244 70.6964L18.4178 70.0135L18.4159 68.6503C18.4191 67.7418 18.4294 66.8335 18.4468 65.9252C18.4812 64.1093 18.5461 62.2938 18.6414 60.4786C18.7424 58.6643 18.8779 56.8501 19.0952 55.0416C19.2033 54.1373 19.3358 53.2347 19.5082 52.3366C19.6852 51.4397 19.8929 50.5434 20.242 49.6757C20.2624 49.6236 20.3027 49.5817 20.354 49.5593C20.4053 49.5368 20.4634 49.5357 20.5155 49.5561C20.5676 49.5764 20.6095 49.6167 20.632 49.6679C20.6544 49.7192 20.6556 49.7772 20.6352 49.8293L20.6329 49.8356C20.3195 50.6576 20.1291 51.5395 19.9726 52.4223C19.816 53.305 19.7045 54.2016 19.6137 55.0991C19.4328 56.8946 19.3301 58.6992 19.2631 60.5069C19.1962 62.3146 19.1698 64.1232 19.1687 65.9323C19.1687 66.837 19.175 67.7415 19.1877 68.6457L19.2144 70.0013L19.2331 70.6777L19.245 71.0142L19.2521 71.1803L19.2563 71.2608V71.2809C19.2563 71.2886 19.2563 71.273 19.2549 71.2701C19.2528 71.2582 19.2483 71.2468 19.2416 71.2367C19.2732 71.3391 19.2634 71.4497 19.2144 71.545C19.1654 71.6402 19.081 71.7125 18.9793 71.7464C18.8776 71.7803 18.7667 71.773 18.6703 71.7262C18.5739 71.6793 18.4997 71.5966 18.4635 71.4958H18.4624Z" fill="url(#paint32_linear_1227_32472)"/>
<path d="M13.7963 69.6166H21.8673C21.9911 69.6167 22.1132 69.6446 22.2246 69.6983C22.336 69.7521 22.4339 69.8302 22.5109 69.927C22.5879 70.0238 22.6421 70.1367 22.6694 70.2573C22.6967 70.3779 22.6965 70.5031 22.6686 70.6235C22.1524 72.8596 21.534 75.1279 20.267 77.4306C20.1527 77.6397 19.9843 77.8142 19.7794 77.9359C19.5745 78.0577 19.3407 78.1221 19.1023 78.1226H16.4686C16.2339 78.1225 16.0037 78.059 15.8023 77.9387C15.6009 77.8183 15.4359 77.6457 15.3249 77.4391C14.3103 75.5551 13.3342 73.3092 12.8523 70.7602C12.8259 70.6212 12.8305 70.478 12.8656 70.341C12.9008 70.2039 12.9658 70.0763 13.0559 69.9671C13.146 69.8579 13.259 69.77 13.387 69.7094C13.515 69.6488 13.6547 69.6172 13.7963 69.6166Z" fill="url(#paint33_linear_1227_32472)"/>
<path d="M3.458 8.24995C3.458 8.24995 0.323925 9.98509 0.064666 12.9216C-0.194593 15.8581 0.0431091 28.0463 6.32772 31.0463C12.6123 34.0463 20.9313 33.3547 24.1156 33.027C27.2999 32.6993 29.0653 30.5361 29.4596 29.047C29.8539 27.5579 30.4913 22.0109 27.1413 20.2216C23.7914 18.4323 20.2732 15.6911 16.7576 13.0214C13.242 10.3516 7.21725 5.99548 3.458 8.24995Z" fill="url(#paint34_linear_1227_32472)"/>
<path d="M26.1536 21.2342C26.1536 21.2342 25.3078 21.2787 25.204 23.0181C25.204 23.0181 27.1654 24.7756 29.8151 25.1935C30.0136 25.225 29.5368 23.8365 29.4653 23.6486C29.1241 22.7536 28.0496 22.1773 26.1536 21.2342Z" fill="url(#paint35_linear_1227_32472)"/>
<path d="M16.6272 19.1892H18.4122C18.4122 19.1892 23.8909 13.1421 27.4843 12.5332C27.4843 12.5332 29.9855 15.724 27.351 21.6863C27.1391 22.166 26.5462 22.3789 26.1029 22.0968C25.9746 22.0163 25.8753 21.8972 25.8192 21.7566L26.0311 16.666C26.0311 16.666 21.3576 20.7509 20.5455 21.5392C19.7334 22.3276 15.604 21.8465 16.6272 19.1892Z" fill="url(#paint36_linear_1227_32472)"/>
<path d="M33.8846 31.8848C33.1366 31.2297 31.9447 30.4958 30.224 30.2841L29.6423 30.6398C29.6423 30.6398 30.0133 31.1866 30.6918 31.7643C31.3158 32.126 32.2766 32.6147 33.0745 32.7219C33.8489 32.8251 33.9635 32.3571 33.8846 31.8848Z" fill="url(#paint37_linear_1227_32472)"/>
<path d="M29.4653 23.6486C29.0043 23.7974 28.8015 24.45 27.6323 24.0185C26.7785 23.7038 25.9698 23.278 25.2272 22.7522C25.2176 22.8372 25.2096 22.9243 25.204 23.0181C25.204 23.0181 27.2721 24.984 29.9217 25.4022C29.9672 25.4086 30.0135 25.4032 30.0562 25.3862C30.0989 25.3693 30.1365 25.3415 30.1651 25.3056C30.1938 25.2697 30.2126 25.227 30.2196 25.1816C30.2267 25.1363 30.2217 25.0898 30.2053 25.047C30.0151 24.5531 29.7667 24.0836 29.4653 23.6486Z" fill="#7D97F4"/>
<path d="M34.448 32.4449C34.2724 32.2463 34.0843 32.0593 33.8846 31.885C33.9635 32.3575 33.8489 32.8259 33.0737 32.7226C32.276 32.6165 31.315 32.1269 30.6909 31.7644C31.4716 32.4304 32.6598 33.1373 34.1592 33.0959C34.4925 33.086 34.6675 32.6948 34.448 32.4449Z" fill="#91B3FA"/>
<path d="M16.6924 20.4799L25.0517 20.5703C25.0517 20.5703 29.8253 24.5174 30.6913 30.5358C30.6913 30.5358 30.8348 30.9786 29.9719 31.0543C29.9719 31.0543 27.0858 29.1706 25.204 25.8401C22.8965 21.7561 18.3251 23.5944 18.3251 23.5944C16.8218 22.5124 14.7006 22.2904 13.1016 21.9312L16.6924 20.4799Z" fill="url(#paint38_linear_1227_32472)"/>
<path d="M16.8898 13.7505C16.8898 13.7505 17.7896 18.2577 22.1989 20.0402L23.7673 19.8557L24.136 20.4453L20.457 20.5624C20.457 20.5624 17.3122 19.3176 15.646 15.9259C15.5924 15.8139 14.6751 13.9206 16.8898 13.7505Z" fill="url(#paint39_linear_1227_32472)"/>
<path d="M17.372 20.4062C17.372 20.4062 16.3486 17.6264 16.1288 14.9252C16.1288 14.9252 16.8773 14.2823 17.3454 14.0048C17.4184 13.9616 17.4726 13.8925 17.497 13.8113C17.5215 13.73 17.5146 13.6426 17.4775 13.5662C17.1335 12.8541 15.0529 10.0577 14.8963 10.0185C14.0493 9.80736 10.5751 8.15669 8.12864 11.5014C7.07912 12.9366 8.33684 17.3554 13.1008 21.9313L14.0836 22.1192L17.372 20.4062Z" fill="url(#paint40_linear_1227_32472)"/>
<path d="M13.429 15.5344C13.429 15.5344 16.272 18.8986 19.907 19.3896C19.907 19.3896 20.8462 18.5335 21.5448 18.8391C22.2435 19.1447 23.2011 20.4935 23.2011 20.4935H18.5339C18.5339 20.4935 14.1211 20.339 11.9157 17.6641C12.0933 16.7286 12.6246 16.1699 13.429 15.5344Z" fill="url(#paint41_linear_1227_32472)"/>
<path d="M11.7704 7.65887L11.1484 9.73249C11.1338 9.77888 11.1346 9.82872 11.1505 9.87465C11.1665 9.92059 11.1967 9.96019 11.2369 9.98762C11.5364 10.1926 12.319 10.6002 13.3926 10.2039C13.4528 10.1812 13.5052 10.1419 13.5437 10.0904C13.5823 10.039 13.6053 9.97769 13.6102 9.91363L13.7577 8.10733L11.7704 7.65887Z" fill="url(#paint42_linear_1227_32472)"/>
<path d="M15.4128 5.9799C15.4128 5.9799 15.1071 8.12919 14.2808 8.79139C13.4545 9.45358 11.8451 8.95467 11.3024 7.33433L12.3857 4.56366L15.4128 5.9799Z" fill="url(#paint43_linear_1227_32472)"/>
<path d="M12.2626 6.35547C12.2773 6.3603 12.2929 6.36187 12.3082 6.36008C12.3236 6.35828 12.3384 6.35315 12.3516 6.34505C12.3647 6.33696 12.376 6.32609 12.3845 6.3132C12.3931 6.30031 12.3987 6.28571 12.401 6.27043C12.4294 6.072 12.5054 5.67939 12.6563 5.41179C12.6563 5.41179 12.5775 5.13002 13.3694 5.55579C14.1614 5.98157 15.351 6.60776 16.0513 6.23613C16.7341 5.87271 17.4256 4.04431 15.621 4.38306C15.605 4.38618 15.5885 4.38559 15.5728 4.38133C15.5571 4.37707 15.5426 4.36925 15.5303 4.35849C15.5181 4.34772 15.5085 4.33429 15.5023 4.31924C15.4961 4.30419 15.4934 4.28791 15.4945 4.27166C15.5166 3.97118 15.4869 3.2795 14.7854 3.05811C14.1299 2.85033 14.4819 3.18709 14.3341 3.3654C14.2904 3.41812 14.3888 3.18681 13.4573 3.32203C13.1377 3.36852 12.7278 2.52036 11.9426 2.8662C11.2959 3.15109 11.1952 3.54909 11.2052 3.79713C11.2061 3.81542 11.2022 3.83363 11.194 3.85C11.1858 3.86636 11.1735 3.88032 11.1582 3.89051C11.143 3.9007 11.1254 3.90678 11.1071 3.90815C11.0889 3.90952 11.0705 3.90613 11.054 3.89833C10.8554 3.80705 10.5372 3.75971 10.2314 4.14183C9.80932 4.67022 10.4124 5.12831 10.593 5.24737C10.6077 5.25693 10.6198 5.26995 10.6283 5.28527C10.6367 5.30059 10.6413 5.31775 10.6415 5.33525C10.6432 5.60994 10.6858 6.80931 11.2869 7.48426C11.299 7.49762 11.3144 7.5077 11.3315 7.51357C11.3486 7.51943 11.3669 7.52089 11.3847 7.51781C11.4025 7.51473 11.4192 7.50721 11.4334 7.49594C11.4475 7.48468 11.4586 7.47003 11.4656 7.45336L11.9282 6.35178C11.9385 6.32708 11.9577 6.30715 11.9821 6.29597C12.0064 6.28478 12.034 6.28315 12.0595 6.2914L12.2626 6.35547Z" fill="url(#paint44_linear_1227_32472)"/>
<path d="M12.2725 6.58079C12.2725 6.58079 11.9889 5.42973 11.5605 5.80358C11.1322 6.17743 11.674 6.99946 12.1642 7.15631L12.2725 6.58079Z" fill="url(#paint45_linear_1227_32472)"/>
<path d="M22.9663 20.7554L25.0619 13.7715C25.1036 13.6323 25.1868 13.5092 25.3004 13.4185C25.414 13.3279 25.5525 13.274 25.6975 13.2641L28.5269 13.0704C28.5932 13.0659 28.6595 13.078 28.72 13.1054C28.7805 13.1329 28.8332 13.1749 28.8734 13.2277C28.9137 13.2805 28.9402 13.3425 28.9505 13.408C28.9609 13.4736 28.9548 13.5407 28.9328 13.6034L26.5902 20.2721C26.5533 20.3774 26.4871 20.47 26.3993 20.539C26.3116 20.6079 26.206 20.6505 26.0949 20.6616L23.3089 20.9709L22.9663 20.7554Z" fill="#7D97F4"/>
<path d="M26.831 16.139C26.6747 16.4547 26.4055 16.6399 26.2277 16.5522C26.0498 16.4646 26.0342 16.1375 26.1908 15.8218C26.3474 15.5061 26.6163 15.3209 26.7942 15.4085C26.972 15.4962 26.9876 15.8232 26.831 16.139Z" fill="#91B3FA"/>
<path d="M23.3089 20.9725H23.2953L17.3587 20.6724C17.2882 20.6689 17.222 20.6375 17.1747 20.5851C17.1273 20.5328 17.1027 20.4638 17.1062 20.3933C17.1098 20.3228 17.1412 20.2566 17.1935 20.2093C17.2459 20.1619 17.3149 20.1373 17.3854 20.1408L23.3214 20.4407C23.3909 20.4439 23.4564 20.4742 23.5038 20.5251C23.5512 20.576 23.5768 20.6434 23.5751 20.713C23.5734 20.7825 23.5445 20.8486 23.4947 20.8971C23.4448 20.9457 23.3779 20.9727 23.3083 20.9725H23.3089Z" fill="#7D97F4"/>
<path d="M16.1288 14.9711C16.1163 14.971 16.1043 14.966 16.0955 14.9571C16.0866 14.9482 16.0817 14.9362 16.0817 14.9237C16.0859 13.6844 15.6071 12.0388 15.6023 12.0224C15.6006 12.0164 15.6 12.0102 15.6007 12.0041C15.6014 11.9979 15.6033 11.992 15.6062 11.9865C15.6092 11.9811 15.6132 11.9763 15.6181 11.9725C15.6229 11.9686 15.6284 11.9657 15.6344 11.964C15.6403 11.9622 15.6465 11.9617 15.6527 11.9624C15.6588 11.963 15.6648 11.9649 15.6702 11.9679C15.6756 11.9709 15.6804 11.9749 15.6843 11.9797C15.6882 11.9845 15.6911 11.9901 15.6928 11.996C15.6976 12.0125 16.1801 13.6708 16.175 14.9243C16.175 14.9366 16.1702 14.9484 16.1615 14.9572C16.1528 14.9659 16.1411 14.9709 16.1288 14.9711Z" fill="url(#paint46_linear_1227_32472)"/>
<path d="M13.429 15.5814C13.4219 15.5815 13.4149 15.5799 13.4085 15.5768C13.4021 15.5737 13.3965 15.5692 13.3921 15.5636C13.3791 15.5469 12.0805 13.8976 11.6335 12.7671C11.6288 12.7555 11.629 12.7426 11.634 12.7311C11.6389 12.7196 11.6482 12.7105 11.6598 12.7059C11.6715 12.7013 11.6844 12.7015 11.6959 12.7064C11.7074 12.7114 11.7165 12.7207 11.7211 12.7323C12.1625 13.85 13.4514 15.4887 13.4656 15.5052C13.471 15.5122 13.4743 15.5205 13.4752 15.5293C13.4761 15.5381 13.4745 15.5469 13.4707 15.5548C13.4668 15.5628 13.4608 15.5694 13.4534 15.5741C13.4459 15.5789 13.4373 15.5814 13.4284 15.5814H13.429Z" fill="url(#paint47_linear_1227_32472)"/>
<path d="M11.602 18.1032L11.5668 18.0884C9.68844 17.2845 8.52802 15.0434 8.51667 15.0207C8.5134 15.0152 8.51131 15.009 8.5105 15.0027C8.5097 14.9963 8.51021 14.9898 8.51199 14.9837C8.51378 14.9775 8.51681 14.9718 8.5209 14.9668C8.52499 14.9619 8.53005 14.9578 8.53576 14.9549C8.54148 14.952 8.54773 14.9502 8.55414 14.9498C8.56055 14.9494 8.56698 14.9503 8.57303 14.9524C8.57907 14.9546 8.58462 14.958 8.58932 14.9623C8.59402 14.9667 8.59777 14.972 8.60035 14.9779C8.61169 15 9.74262 17.1839 11.5691 17.9867L11.7625 17.7134C11.7661 17.7084 11.7706 17.7041 11.7759 17.7008C11.7811 17.6975 11.7869 17.6953 11.793 17.6942C11.7991 17.6932 11.8054 17.6933 11.8114 17.6947C11.8174 17.6961 11.8231 17.6986 11.8282 17.7022C11.8332 17.7058 11.8375 17.7103 11.8408 17.7155C11.8441 17.7208 11.8463 17.7266 11.8474 17.7327C11.8484 17.7388 11.8483 17.745 11.8469 17.7511C11.8455 17.7571 11.843 17.7628 11.8394 17.7678L11.602 18.1032Z" fill="url(#paint48_linear_1227_32472)"/>
</g>
<defs>
<linearGradient id="paint0_linear_1227_32472" x1="84.6841" y1="87.2674" x2="27.9365" y2="25.9774" gradientUnits="userSpaceOnUse">
<stop stop-color="#DAE3FE"/>
<stop offset="1" stop-color="#E9EFFD"/>
</linearGradient>
<linearGradient id="paint1_linear_1227_32472" x1="63.0655" y1="53.7427" x2="55.2216" y2="67.9115" gradientUnits="userSpaceOnUse">
<stop stop-color="#FF928E"/>
<stop offset="1" stop-color="#FE7062"/>
</linearGradient>
<linearGradient id="paint2_linear_1227_32472" x1="40.6098" y1="29.7231" x2="65.0243" y2="46.5094" gradientUnits="userSpaceOnUse">
<stop stop-color="#E1473D"/>
<stop offset="1" stop-color="#E9605A"/>
</linearGradient>
<linearGradient id="paint3_linear_1227_32472" x1="41191.7" y1="75244.1" x2="49531.7" y2="47506.3" gradientUnits="userSpaceOnUse">
<stop stop-color="#FF928E"/>
<stop offset="1" stop-color="#FE7062"/>
</linearGradient>
<linearGradient id="paint4_linear_1227_32472" x1="15930.2" y1="41997.5" x2="19531.4" y2="39901.5" gradientUnits="userSpaceOnUse">
<stop stop-color="#FF928E"/>
<stop offset="1" stop-color="#FE7062"/>
</linearGradient>
<linearGradient id="paint5_linear_1227_32472" x1="141873" y1="2592.98" x2="141879" y2="2072.37" gradientUnits="userSpaceOnUse">
<stop stop-color="#FF928E"/>
<stop offset="1" stop-color="#FE7062"/>
</linearGradient>
<linearGradient id="paint6_linear_1227_32472" x1="48.7616" y1="72.0069" x2="50.964" y2="76.3409" gradientUnits="userSpaceOnUse">
<stop stop-color="#09005D"/>
<stop offset="1" stop-color="#1A0F91"/>
</linearGradient>
<linearGradient id="paint7_linear_1227_32472" x1="52.9538" y1="73.731" x2="50.7577" y2="73.731" gradientUnits="userSpaceOnUse">
<stop stop-color="#FEBBBA"/>
<stop offset="1" stop-color="#FF928E"/>
</linearGradient>
<linearGradient id="paint8_linear_1227_32472" x1="10001.7" y1="46234.6" x2="15650" y2="39961.7" gradientUnits="userSpaceOnUse">
<stop stop-color="#09005D"/>
<stop offset="1" stop-color="#1A0F91"/>
</linearGradient>
<linearGradient id="paint9_linear_1227_32472" x1="5685.4" y1="11263.3" x2="4911.02" y2="12892.6" gradientUnits="userSpaceOnUse">
<stop stop-color="#09005D"/>
<stop offset="1" stop-color="#1A0F91"/>
</linearGradient>
<linearGradient id="paint10_linear_1227_32472" x1="53.8657" y1="78.5507" x2="47.9603" y2="78.5507" gradientUnits="userSpaceOnUse">
<stop stop-color="#4042E2"/>
<stop offset="1" stop-color="#4F52FF"/>
</linearGradient>
<linearGradient id="paint11_linear_1227_32472" x1="1745.11" y1="7283.63" x2="1894.96" y2="7283.63" gradientUnits="userSpaceOnUse">
<stop stop-color="#FEBBBA"/>
<stop offset="1" stop-color="#FF928E"/>
</linearGradient>
<linearGradient id="paint12_linear_1227_32472" x1="8714.86" y1="63291.7" x2="9296.91" y2="50560.3" gradientUnits="userSpaceOnUse">
<stop stop-color="#09005D"/>
<stop offset="1" stop-color="#1A0F91"/>
</linearGradient>
<linearGradient id="paint13_linear_1227_32472" x1="12637.2" y1="16356" x2="10078.8" y2="19432.3" gradientUnits="userSpaceOnUse">
<stop stop-color="#4042E2"/>
<stop offset="1" stop-color="#4F52FF"/>
</linearGradient>
<linearGradient id="paint14_linear_1227_32472" x1="7538.84" y1="8904.82" x2="9361.23" y2="8904.82" gradientUnits="userSpaceOnUse">
<stop stop-color="#FEBBBA"/>
<stop offset="1" stop-color="#FF928E"/>
</linearGradient>
<linearGradient id="paint15_linear_1227_32472" x1="14911.5" y1="33623.6" x2="5370.54" y2="40136.1" gradientUnits="userSpaceOnUse">
<stop stop-color="#4042E2"/>
<stop offset="1" stop-color="#4F52FF"/>
</linearGradient>
<linearGradient id="paint16_linear_1227_32472" x1="3871.36" y1="8481.95" x2="4673.6" y2="8481.95" gradientUnits="userSpaceOnUse">
<stop stop-color="#FEBBBA"/>
<stop offset="1" stop-color="#FF928E"/>
</linearGradient>
<linearGradient id="paint17_linear_1227_32472" x1="7708.34" y1="25535.4" x2="1284.31" y2="28609.2" gradientUnits="userSpaceOnUse">
<stop stop-color="#4042E2"/>
<stop offset="1" stop-color="#4F52FF"/>
</linearGradient>
<linearGradient id="paint18_linear_1227_32472" x1="12791.9" y1="9439.45" x2="11726.8" y2="11380.1" gradientUnits="userSpaceOnUse">
<stop stop-color="#09005D"/>
<stop offset="1" stop-color="#1A0F91"/>
</linearGradient>
<linearGradient id="paint19_linear_1227_32472" x1="10166.2" y1="10254.1" x2="9026.52" y2="16747.7" gradientUnits="userSpaceOnUse">
<stop stop-color="#FEBBBA"/>
<stop offset="1" stop-color="#FF928E"/>
</linearGradient>
<linearGradient id="paint20_linear_1227_32472" x1="-5115.79" y1="112.672" x2="-4161.77" y2="1442.83" gradientUnits="userSpaceOnUse">
<stop stop-color="#FEBBBA"/>
<stop offset="1" stop-color="#FF928E"/>
</linearGradient>
<linearGradient id="paint21_linear_1227_32472" x1="-8471.85" y1="736.585" x2="-10127.4" y2="309.637" gradientUnits="userSpaceOnUse">
<stop stop-color="#09005D"/>
<stop offset="1" stop-color="#1A0F91"/>
</linearGradient>
<linearGradient id="paint22_linear_1227_32472" x1="-1695.21" y1="579.817" x2="-1955.09" y2="261.446" gradientUnits="userSpaceOnUse">
<stop stop-color="#FEBBBA"/>
<stop offset="1" stop-color="#FF928E"/>
</linearGradient>
<linearGradient id="paint23_linear_1227_32472" x1="161876" y1="-4859.47" x2="161560" y2="-3596.52" gradientUnits="userSpaceOnUse">
<stop stop-color="#09005D"/>
<stop offset="1" stop-color="#1A0F91"/>
</linearGradient>
<linearGradient id="paint24_linear_1227_32472" x1="206209" y1="21559.3" x2="204032" y2="25182.9" gradientUnits="userSpaceOnUse">
<stop stop-color="#09005D"/>
<stop offset="1" stop-color="#1A0F91"/>
</linearGradient>
<linearGradient id="paint25_linear_1227_32472" x1="18049.4" y1="67623.4" x2="22474.9" y2="67623.4" gradientUnits="userSpaceOnUse">
<stop stop-color="#4042E2"/>
<stop offset="1" stop-color="#4F52FF"/>
</linearGradient>
<linearGradient id="paint26_linear_1227_32472" x1="18562" y1="67623.3" x2="22987.6" y2="67623.3" gradientUnits="userSpaceOnUse">
<stop stop-color="#4042E2"/>
<stop offset="1" stop-color="#4F52FF"/>
</linearGradient>
<linearGradient id="paint27_linear_1227_32472" x1="30587.3" y1="67623.4" x2="35012.9" y2="67623.4" gradientUnits="userSpaceOnUse">
<stop stop-color="#4042E2"/>
<stop offset="1" stop-color="#4F52FF"/>
</linearGradient>
<linearGradient id="paint28_linear_1227_32472" x1="31099.6" y1="67623.2" x2="35525.1" y2="67623.2" gradientUnits="userSpaceOnUse">
<stop stop-color="#4042E2"/>
<stop offset="1" stop-color="#4F52FF"/>
</linearGradient>
<linearGradient id="paint29_linear_1227_32472" x1="7341.16" y1="30380.1" x2="11865.7" y2="30380.1" gradientUnits="userSpaceOnUse">
<stop stop-color="#4042E2"/>
<stop offset="1" stop-color="#4F52FF"/>
</linearGradient>
<linearGradient id="paint30_linear_1227_32472" x1="4772.46" y1="49465.9" x2="5783.63" y2="49465.9" gradientUnits="userSpaceOnUse">
<stop stop-color="#4042E2"/>
<stop offset="1" stop-color="#4F52FF"/>
</linearGradient>
<linearGradient id="paint31_linear_1227_32472" x1="11782" y1="28243.5" x2="16353.5" y2="28243.5" gradientUnits="userSpaceOnUse">
<stop stop-color="#4042E2"/>
<stop offset="1" stop-color="#4F52FF"/>
</linearGradient>
<linearGradient id="paint32_linear_1227_32472" x1="2462.29" y1="57230" x2="2638.04" y2="57230" gradientUnits="userSpaceOnUse">
<stop stop-color="#4042E2"/>
<stop offset="1" stop-color="#4F52FF"/>
</linearGradient>
<linearGradient id="paint33_linear_1227_32472" x1="13015.9" y1="20408" x2="8605.81" y2="31839.9" gradientUnits="userSpaceOnUse">
<stop stop-color="#4042E2"/>
<stop offset="1" stop-color="#4F52FF"/>
</linearGradient>
<linearGradient id="paint34_linear_1227_32472" x1="33869.2" y1="21632.1" x2="23725.7" y2="43635.2" gradientUnits="userSpaceOnUse">
<stop stop-color="#4042E2"/>
<stop offset="1" stop-color="#4F52FF"/>
</linearGradient>
<linearGradient id="paint35_linear_1227_32472" x1="6533.91" y1="4932.41" x2="6953.47" y2="5447.98" gradientUnits="userSpaceOnUse">
<stop stop-color="#09005D"/>
<stop offset="1" stop-color="#1A0F91"/>
</linearGradient>
<linearGradient id="paint36_linear_1227_32472" x1="19153.3" y1="1966.14" x2="18032.3" y2="5644.81" gradientUnits="userSpaceOnUse">
<stop stop-color="#09005D"/>
<stop offset="1" stop-color="#1A0F91"/>
</linearGradient>
<linearGradient id="paint37_linear_1227_32472" x1="6597.06" y1="3766.7" x2="7107.46" y2="4418.01" gradientUnits="userSpaceOnUse">
<stop stop-color="#09005D"/>
<stop offset="1" stop-color="#1A0F91"/>
</linearGradient>
<linearGradient id="paint38_linear_1227_32472" x1="29018.4" y1="2416.12" x2="28065.7" y2="6585.62" gradientUnits="userSpaceOnUse">
<stop stop-color="#09005D"/>
<stop offset="1" stop-color="#1A0F91"/>
</linearGradient>
<linearGradient id="paint39_linear_1227_32472" x1="10570.8" y1="6614.32" x2="9689.9" y2="7955.73" gradientUnits="userSpaceOnUse">
<stop stop-color="#FEBBBA"/>
<stop offset="1" stop-color="#FF928E"/>
</linearGradient>
<linearGradient id="paint40_linear_1227_32472" x1="6677.2" y1="2459" x2="10176.6" y2="11867.7" gradientUnits="userSpaceOnUse">
<stop stop-color="#FF928E"/>
<stop offset="1" stop-color="#FE7062"/>
</linearGradient>
<linearGradient id="paint41_linear_1227_32472" x1="11840.5" y1="5565.75" x2="12681.5" y2="2947.36" gradientUnits="userSpaceOnUse">
<stop stop-color="#FEBBBA"/>
<stop offset="1" stop-color="#FF928E"/>
</linearGradient>
<linearGradient id="paint42_linear_1227_32472" x1="2312.23" y1="2189.61" x2="2340.89" y2="1940.34" gradientUnits="userSpaceOnUse">
<stop stop-color="#FEBBBA"/>
<stop offset="1" stop-color="#FF928E"/>
</linearGradient>
<linearGradient id="paint43_linear_1227_32472" x1="3845.9" y1="3272.76" x2="3626.57" y2="2613.7" gradientUnits="userSpaceOnUse">
<stop stop-color="#FEBBBA"/>
<stop offset="1" stop-color="#FF928E"/>
</linearGradient>
<linearGradient id="paint44_linear_1227_32472" x1="5977.12" y1="2143.73" x2="6119.46" y2="3289.76" gradientUnits="userSpaceOnUse">
<stop stop-color="#09005D"/>
<stop offset="1" stop-color="#1A0F91"/>
</linearGradient>
<linearGradient id="paint45_linear_1227_32472" x1="780.057" y1="1059.89" x2="687.532" y2="874.457" gradientUnits="userSpaceOnUse">
<stop stop-color="#FEBBBA"/>
<stop offset="1" stop-color="#FF928E"/>
</linearGradient>
<linearGradient id="paint46_linear_1227_32472" x1="587.225" y1="2744.03" x2="598.884" y2="2744.03" gradientUnits="userSpaceOnUse">
<stop stop-color="#E1473D"/>
<stop offset="1" stop-color="#E9605A"/>
</linearGradient>
<linearGradient id="paint47_linear_1227_32472" x1="1589.15" y1="2695.09" x2="1709.19" y2="2695.09" gradientUnits="userSpaceOnUse">
<stop stop-color="#E1473D"/>
<stop offset="1" stop-color="#E9605A"/>
</linearGradient>
<linearGradient id="paint48_linear_1227_32472" x1="2494.86" y1="3218.63" x2="2887.53" y2="3218.63" gradientUnits="userSpaceOnUse">
<stop stop-color="#E1473D"/>
<stop offset="1" stop-color="#E9605A"/>
</linearGradient>
<clipPath id="clip0_1227_32472">
<rect width="80" height="80" fill="white"/>
</clipPath>
</defs>
</svg>
